<svg width="1920" height="574" viewBox="0 0 1920 574" fill="none" xmlns="http://www.w3.org/2000/svg">
<path d="M1815.1 262.365C1905.95 130.726 1995.84 131.318 2084.74 264.141C2185.59 432.991 2275.48 433.583 2354.38 265.917" stroke="#005AA4" strokeWidth="60"/>
<path d="M-436 246.1C-58.7778 -42.0332 318.444 -42.0332 695.667 246.1C1143.62 642.283 1520.84 642.283 1827.33 246.1" stroke="#005AA4" strokeWidth="60"/>
<path d="M98.8557 43.4894L95.6418 43.57L104.303 18.0209L107.467 17.9416L117.398 43.0246L114.184 43.1052L106.084 21.9838L105.887 21.9888L98.8557 43.4894ZM99.7945 33.5706L112.749 33.2458L112.817 35.9653L99.8627 36.2901L99.7945 33.5706Z" fill="white"/>
<path d="M144.257 50.4103L144.441 40.3715L144.194 40.3669C143.973 40.7092 143.66 41.1404 143.255 41.6606C142.85 42.1726 142.277 42.6279 141.536 43.0265C140.795 43.4169 139.814 43.6009 138.595 43.5785C137.012 43.5494 135.622 43.124 134.425 42.3023C133.229 41.4723 132.302 40.3175 131.645 38.8378C130.988 37.3499 130.678 35.6004 130.715 33.5894C130.751 31.5948 131.125 29.8702 131.836 28.4157C132.547 26.9612 133.52 25.8454 134.754 25.0683C135.989 24.2912 137.406 23.9174 139.005 23.9467C140.241 23.9694 141.214 24.1934 141.923 24.6187C142.641 25.0359 143.185 25.5076 143.555 26.0338C143.933 26.5519 144.226 26.9778 144.434 27.3114L144.78 27.3178L144.836 24.3012L147.654 24.353L147.175 50.4639L144.257 50.4103ZM139.038 40.9648C140.209 40.9863 141.203 40.6995 142.022 40.1044C142.841 39.5011 143.471 38.6593 143.911 37.5791C144.352 36.4906 144.585 35.2293 144.612 33.7952C144.638 32.3775 144.454 31.1333 144.062 30.0625C143.669 28.9835 143.075 28.1398 142.278 27.5315C141.481 26.915 140.49 26.5959 139.303 26.5741C138.066 26.5514 137.03 26.8498 136.194 27.4693C135.367 28.0807 134.737 28.9224 134.305 29.9946C133.882 31.0586 133.658 32.2583 133.633 33.5935C133.608 34.9452 133.792 36.1771 134.184 37.2891C134.584 38.393 135.186 39.278 135.99 39.9441C136.802 40.6022 137.819 40.9424 139.038 40.9648Z" fill="white"/>
<path d="M165.204 36.3411L165.723 25.1255L168.638 25.2605L167.76 44.2332L164.844 44.0982L164.993 40.8867L164.796 40.8775C164.306 41.8204 163.577 42.6077 162.607 43.2395C161.637 43.863 160.436 44.1416 159.003 44.0752C157.817 44.0203 156.775 43.7121 155.877 43.1506C154.979 42.5808 154.291 41.7568 153.813 40.6783C153.335 39.5916 153.133 38.2413 153.208 36.6273L153.766 24.5717L156.682 24.7068L156.132 36.5647C156.068 37.9481 156.404 39.0695 157.14 39.9288C157.884 40.7885 158.862 41.2464 160.072 41.3024C160.797 41.336 161.542 41.1848 162.309 40.849C163.084 40.5135 163.744 39.9747 164.29 39.2325C164.844 38.4907 165.149 37.5269 165.204 36.3411Z" fill="white"/>
<path d="M173.566 44.6267L174.856 25.6775L177.767 25.8757L176.477 44.8249L173.566 44.6267ZM176.551 22.6201C175.984 22.5815 175.507 22.3549 175.122 21.9404C174.746 21.5264 174.576 21.048 174.613 20.5052C174.65 19.9623 174.883 19.5114 175.312 19.1523C175.75 18.7937 176.252 18.6337 176.82 18.6724C177.387 18.711 177.859 18.9373 178.236 19.3513C178.621 19.7658 178.795 20.2445 178.758 20.7873C178.721 21.3301 178.484 21.7808 178.046 22.1394C177.617 22.4985 177.119 22.6587 176.551 22.6201Z" fill="white"/>
<path d="M189.705 46.2488C187.931 46.0949 186.44 45.5436 185.231 44.5948C184.023 43.6459 183.137 42.4066 182.575 40.8767C182.013 39.3468 181.813 37.6374 181.977 35.7485C182.144 33.8267 182.644 32.1614 183.478 30.7526C184.321 29.3363 185.415 28.2686 186.759 27.5496C188.113 26.823 189.644 26.5338 191.353 26.682C192.683 26.7974 193.861 27.1477 194.886 27.7331C195.91 28.3185 196.725 29.0842 197.33 30.0303C197.935 30.9764 198.268 32.0479 198.33 33.2447L195.422 32.9926C195.275 32.111 194.849 31.3045 194.143 30.573C193.446 29.834 192.456 29.409 191.175 29.2979C190.042 29.1996 189.023 29.409 188.117 29.9262C187.221 30.436 186.488 31.204 185.919 32.2303C185.359 33.2492 185.017 34.4731 184.893 35.9021C184.766 37.3639 184.886 38.6568 185.252 39.7808C185.626 40.9055 186.21 41.8043 187.004 42.4772C187.806 43.1508 188.782 43.5374 189.932 43.6372C190.687 43.7027 191.384 43.6308 192.023 43.4214C192.662 43.212 193.216 42.8795 193.686 42.4237C194.156 41.968 194.511 41.4031 194.751 40.7289L197.659 40.981C197.397 42.0837 196.904 43.0545 196.177 43.8934C195.46 44.7248 194.548 45.3574 193.443 45.7911C192.347 46.2173 191.101 46.3699 189.705 46.2488Z" fill="white"/>
<path d="M205.439 40.4048L205.791 36.8109L206.381 36.8768L215.577 29.3933L219.166 29.7939L209.373 37.7086L209.128 37.6812L205.439 40.4048ZM201.967 46.9847L204.777 21.8171L207.678 22.1409L204.867 47.3085L201.967 46.9847ZM213.961 48.3239L207.631 38.161L209.92 36.3762L217.648 48.7355L213.961 48.3239Z" fill="white"/>
<path d="M237.265 59.0853C235.872 58.8732 234.701 58.5115 233.753 58.0003C232.804 57.4972 232.04 56.9055 231.46 56.2252C230.886 55.5542 230.454 54.8629 230.162 54.1514L232.706 52.8877C232.914 53.2697 233.185 53.7111 233.517 54.212C233.848 54.721 234.335 55.1912 234.978 55.6227C235.628 56.0635 236.52 56.3702 237.653 56.5427C239.168 56.7734 240.475 56.5972 241.573 56.0138C242.671 55.4305 243.339 54.3565 243.577 52.7918L244.158 48.9778L243.913 48.9405C243.649 49.2506 243.283 49.6284 242.815 50.0741C242.356 50.5129 241.734 50.8727 240.95 51.1535C240.174 51.4273 239.175 51.4712 237.953 51.2851C236.437 51.0543 235.131 50.4885 234.034 49.5877C232.945 48.6882 232.154 47.5005 231.662 46.0246C231.177 44.55 231.084 42.8348 231.382 40.8789C231.675 38.9556 232.268 37.3323 233.162 36.0091C234.056 34.6778 235.166 33.7128 236.492 33.114C237.818 32.5072 239.272 32.3241 240.853 32.5648C242.075 32.7509 243.014 33.1023 243.669 33.619C244.334 34.1287 244.818 34.6695 245.123 35.2412C245.438 35.806 245.676 36.2676 245.838 36.6258L246.131 36.6705L246.586 33.6877L249.373 34.1121L246.432 53.4266C246.186 55.0402 245.62 56.2964 244.733 57.1953C243.852 58.1036 242.761 58.7004 241.458 58.9857C240.163 59.2804 238.765 59.3136 237.265 59.0853ZM238.738 48.7531C239.896 48.9293 240.914 48.8133 241.793 48.4052C242.673 47.997 243.396 47.3275 243.963 46.3965C244.53 45.4655 244.919 44.3073 245.13 42.9219C245.336 41.5691 245.314 40.3441 245.064 39.2471C244.814 38.1501 244.334 37.2474 243.625 36.539C242.916 35.8306 241.974 35.3871 240.801 35.2085C239.578 35.0223 238.512 35.1769 237.603 35.6722C236.702 36.1688 235.968 36.9076 235.402 37.8887C234.844 38.871 234.468 39.9979 234.274 41.2692C234.076 42.5731 234.104 43.7573 234.359 44.8218C234.623 45.8793 235.115 46.7547 235.835 47.448C236.565 48.1344 237.532 48.5694 238.738 48.7531Z" fill="white"/>
<path d="M259.117 29.3671L254.848 54.3287L251.971 53.8367L256.24 28.8752L259.117 29.3671Z" fill="white"/>
<path d="M260.318 55.3007L263.747 36.6198L266.618 37.1467L263.188 55.8276L260.318 55.3007ZM265.778 33.7743C265.219 33.6716 264.771 33.3925 264.436 32.937C264.109 32.483 263.994 31.9884 264.092 31.4533C264.191 30.9181 264.473 30.4965 264.941 30.1884C265.416 29.8817 265.933 29.7797 266.493 29.8824C267.052 29.9851 267.496 30.2635 267.823 30.7175C268.158 31.173 268.277 31.6683 268.179 32.2034C268.08 32.7385 267.794 33.1594 267.318 33.4661C266.851 33.7742 266.338 33.877 265.778 33.7743Z" fill="white"/>
<path d="M268.723 56.7753L272.604 38.1829L275.363 38.7589L274.757 41.664L274.999 41.7145C275.594 40.8028 276.38 40.1626 277.358 39.7941C278.338 39.4175 279.433 39.3555 280.643 39.6082C281.87 39.8642 282.832 40.3556 283.531 41.0825C284.24 41.803 284.72 42.7076 284.973 43.7961L285.167 43.8366C285.843 42.9756 286.717 42.3621 287.787 41.996C288.859 41.6218 290.06 41.5736 291.392 41.8515C293.054 42.1984 294.305 43.0027 295.145 44.2643C295.987 45.5179 296.179 47.2381 295.723 49.4249L293.126 61.8683L290.269 61.2721L292.866 48.8287C293.152 47.4569 292.982 46.3981 292.354 45.6524C291.727 44.9067 290.905 44.4277 289.888 44.2155C288.581 43.9427 287.485 44.1267 286.602 44.7677C285.72 45.4005 285.154 46.3181 284.903 47.5205L282.377 59.6249L279.472 59.0186L282.13 46.2848C282.35 45.2277 282.185 44.3047 281.634 43.516C281.084 42.7192 280.269 42.208 279.187 41.9823C278.445 41.8274 277.71 41.8802 276.982 42.1409C276.262 42.4033 275.631 42.8442 275.089 43.4637C274.557 44.0769 274.195 44.8394 274.005 45.7512L271.58 57.3715L268.723 56.7753Z" fill="white"/>
<path d="M296.985 70.1173L303.161 44.7426L305.9 45.4093L305.186 48.3409L305.523 48.4228C305.809 48.1531 306.197 47.8147 306.686 47.4078C307.185 46.9948 307.831 46.6769 308.624 46.454C309.426 46.2251 310.428 46.2568 311.629 46.5492C313.183 46.9274 314.458 47.6492 315.455 48.7147C316.451 49.7801 317.108 51.1066 317.426 52.6942C317.744 54.2817 317.667 56.0446 317.195 57.983C316.719 59.9373 315.975 61.5505 314.961 62.8224C313.949 64.0863 312.759 64.9675 311.39 65.4659C310.024 65.9562 308.572 66.0143 307.034 65.64C305.848 65.3515 304.947 64.9242 304.33 64.3583C303.714 63.7843 303.276 63.1982 303.014 62.6C302.754 61.9938 302.561 61.4972 302.435 61.1101L302.195 61.0516L299.82 70.8074L296.985 70.1173ZM303.702 54.6482C303.363 56.0419 303.268 57.3211 303.417 58.4858C303.569 59.6425 303.963 60.6167 304.602 61.4085C305.243 62.1922 306.132 62.7225 307.269 62.9993C308.455 63.2878 309.52 63.2162 310.465 62.7845C311.42 62.3466 312.227 61.6438 312.887 60.676C313.557 59.7021 314.051 58.5584 314.371 57.2448C314.687 55.9472 314.771 54.7291 314.624 53.5904C314.487 52.4456 314.092 51.4713 313.439 50.6677C312.797 49.8579 311.874 49.3068 310.673 49.0144C309.52 48.7337 308.479 48.7902 307.552 49.1839C306.627 49.5695 305.837 50.2342 305.183 51.178C304.531 52.1138 304.038 53.2705 303.702 54.6482Z" fill="white"/>
<path d="M336.301 57.6052L333.577 57.6415C333.531 57.1768 333.406 56.7037 333.203 56.2222C333.009 55.7349 332.685 55.2893 332.23 54.8854C331.775 54.4815 331.138 54.1694 330.318 53.949C329.195 53.6474 328.191 53.6548 327.303 53.9712C326.426 54.2818 325.881 54.8311 325.67 55.6193C325.481 56.3198 325.587 56.9416 325.988 57.4845C326.388 58.0274 327.093 58.5797 328.103 59.1413L330.646 60.5416C332.179 61.3803 333.238 62.3177 333.822 63.3538C334.407 64.3818 334.528 65.5368 334.184 66.8185C333.901 67.8694 333.346 68.7275 332.519 69.3929C331.699 70.0604 330.688 70.4886 329.485 70.6775C328.282 70.8664 326.968 70.7693 325.543 70.3864C323.672 69.8837 322.233 69.0617 321.225 67.9202C320.217 66.7787 319.759 65.384 319.852 63.7359L322.707 63.7859C322.696 64.8415 322.979 65.7113 323.555 66.3953C324.139 67.0814 325.008 67.5796 326.162 67.8897C327.476 68.2427 328.594 68.2443 329.516 67.8945C330.448 67.5389 331.02 66.967 331.232 66.1789C331.403 65.542 331.323 64.9487 330.993 64.399C330.665 63.8414 330.068 63.331 329.202 62.8679L326.337 61.33C324.765 60.4806 323.696 59.532 323.133 58.4843C322.579 57.4308 322.473 56.2711 322.813 55.0053C323.091 53.9704 323.627 53.1329 324.423 52.493C325.226 51.8552 326.194 51.4452 327.327 51.2631C328.468 51.0831 329.683 51.1664 330.973 51.5129C332.788 52.0006 334.106 52.7816 334.927 53.8558C335.756 54.9321 336.214 56.182 336.301 57.6052Z" fill="white"/>
<path d="M344.831 75.8217C343.076 75.3053 341.675 74.4724 340.63 73.3229C339.595 72.1678 338.939 70.7891 338.663 69.187C338.396 67.5792 338.538 65.8421 339.087 63.9757C339.636 62.1093 340.46 60.5643 341.558 59.3408C342.667 58.1117 343.952 57.2781 345.413 56.8398C346.884 56.396 348.442 56.416 350.087 56.8998C351.036 57.1789 351.927 57.6127 352.759 58.2012C353.591 58.7897 354.282 59.5514 354.832 60.4865C355.384 61.4136 355.715 62.5248 355.824 63.8199C355.933 65.1151 355.737 66.6128 355.237 68.3131L354.888 69.4994L340.842 65.3685L341.554 62.9485L352.753 66.2421C353.055 65.214 353.119 64.2361 352.945 63.3085C352.779 62.3832 352.389 61.5767 351.775 60.8892C351.169 60.2039 350.36 59.7124 349.347 59.4147C348.232 59.0868 347.186 59.0798 346.209 59.3938C345.241 59.7023 344.411 60.2314 343.718 60.9814C343.025 61.7313 342.531 62.6084 342.235 63.6128L341.761 65.2262C341.356 66.6023 341.25 67.8385 341.443 68.935C341.647 70.0259 342.102 70.9461 342.81 71.6956C343.52 72.4371 344.44 72.9742 345.571 73.3068C346.306 73.5231 347.001 73.6157 347.655 73.5845C348.318 73.5477 348.929 73.3837 349.488 73.0925C350.048 72.7934 350.54 72.3624 350.964 71.7994L353.445 73.3541C352.891 74.1878 352.175 74.8538 351.298 75.352C350.423 75.8423 349.435 76.1359 348.332 76.2327C347.232 76.3215 346.065 76.1845 344.831 75.8217Z" fill="white"/>
<path d="M373.464 84.8122C371.837 84.2713 370.538 83.4096 369.567 82.2269C368.604 81.0468 368.01 79.6461 367.784 78.0249C367.566 76.4062 367.767 74.666 368.386 72.8042C369.01 70.9268 369.895 69.401 371.041 68.227C372.195 67.0556 373.511 66.2855 374.988 65.9167C376.474 65.5505 378.03 65.6378 379.657 66.1786C381.285 66.7195 382.58 67.58 383.542 68.76C384.513 69.9427 385.106 71.3473 385.321 72.9738C385.544 74.6029 385.344 76.3561 384.72 78.2335C384.101 80.0953 383.216 81.608 382.064 82.7716C380.921 83.9379 379.607 84.7041 378.121 85.0703C376.643 85.4391 375.091 85.353 373.464 84.8122ZM374.29 82.3246C375.526 82.7354 376.649 82.7566 377.657 82.3882C378.666 82.0198 379.533 81.383 380.26 80.4779C380.986 79.5727 381.55 78.5177 381.95 77.3131C382.351 76.1084 382.532 74.9221 382.495 73.7543C382.457 72.5865 382.146 71.5492 381.562 70.6425C380.977 69.7358 380.067 69.0771 378.831 68.6662C377.595 68.2554 376.471 68.2381 375.46 68.6143C374.449 68.9906 373.579 69.6352 372.849 70.5482C372.12 71.4612 371.556 72.52 371.155 73.7247C370.755 74.9294 370.574 76.1117 370.615 77.2717C370.655 78.4317 370.968 79.4612 371.556 80.36C372.143 81.2589 373.055 81.9137 374.29 82.3246Z" fill="white"/>
<path d="M400.473 73.6499L399.646 75.9806L389.998 72.5566L390.825 70.2259L400.473 73.6499ZM387.363 89.1509L394.591 68.781C394.955 67.7555 395.499 66.9864 396.223 66.4736C396.948 65.9609 397.755 65.6701 398.646 65.6012C399.536 65.5323 400.408 65.6494 401.263 65.9527C401.939 66.1925 402.471 66.4426 402.86 66.703C403.249 66.9634 403.531 67.1775 403.708 67.3451L402.072 69.4412C401.949 69.345 401.775 69.2178 401.551 69.0596C401.335 68.9042 401.029 68.7563 400.633 68.6157C399.724 68.2931 398.986 68.2893 398.42 68.6044C397.861 68.9221 397.424 69.5238 397.11 70.4095L390.113 90.1268L387.363 89.1509Z" fill="white"/>
<path d="M407.661 96.4911L414.616 78.8175L417.24 79.8499L416.153 82.6114L416.383 82.702C417.123 81.9034 418.005 81.4048 419.031 81.2062C420.061 80.9999 421.15 81.1232 422.301 81.576C423.467 82.0349 424.333 82.6814 424.9 83.5156C425.477 84.3451 425.798 85.3177 425.864 86.4333L426.048 86.5057C426.86 85.771 427.824 85.3133 428.941 85.1326C430.06 84.9441 431.253 85.099 432.519 85.5971C434.099 86.219 435.197 87.2224 435.812 88.6074C436.431 89.9848 436.331 91.7128 435.513 93.7916L430.858 105.62L428.142 104.551L432.797 92.723C433.31 91.4189 433.32 90.3465 432.827 89.5058C432.334 88.6651 431.605 88.0545 430.638 87.6742C429.395 87.1851 428.285 87.1821 427.306 87.6652C426.331 88.1406 425.618 88.9498 425.168 90.0927L420.64 101.599L417.879 100.512L422.642 88.4076C423.038 87.4027 423.03 86.4652 422.62 85.5949C422.212 84.7169 421.494 84.0757 420.467 83.6712C419.761 83.3935 419.027 83.3218 418.266 83.4561C417.512 83.5935 416.815 83.9219 416.177 84.4414C415.549 84.9562 415.065 85.647 414.724 86.5138L410.376 97.5598L407.661 96.4911Z" fill="white"/>
<path d="M434.546 114.941C434.091 114.748 433.702 114.537 433.378 114.309C433.05 114.089 432.833 113.916 432.725 113.789L434.416 111.714C434.997 112.159 435.548 112.465 436.068 112.633C436.588 112.8 437.127 112.766 437.685 112.528C438.247 112.302 438.88 111.815 439.584 111.066L440.666 109.914L441.687 89.5971L444.599 90.8377L443.491 106.817L443.673 106.894L454.428 95.0248L457.341 96.2654L441.394 113.128C440.676 113.888 439.945 114.459 439.2 114.84C438.451 115.23 437.69 115.429 436.915 115.44C436.147 115.453 435.358 115.287 434.546 114.941Z" fill="white"/>
<path d="M475.801 97.5995L465.306 120.646L462.65 119.437L473.145 96.3901L475.801 97.5995Z" fill="white"/>
<path d="M470.336 122.958L478.348 105.737L480.994 106.968L472.982 124.189L470.336 122.958ZM481.028 103.493C480.513 103.253 480.15 102.87 479.939 102.345C479.737 101.823 479.75 101.316 479.979 100.823C480.209 100.329 480.589 99.9923 481.118 99.8114C481.655 99.634 482.182 99.6652 482.698 99.9052C483.213 100.145 483.572 100.526 483.775 101.048C483.986 101.573 483.976 102.082 483.746 102.575C483.517 103.069 483.134 103.404 482.597 103.581C482.067 103.762 481.544 103.733 481.028 103.493Z" fill="white"/>
<path d="M493.832 113.059L492.765 115.29L483.529 110.871L484.596 108.64L493.832 113.059ZM479.167 127.097L488.494 107.599C488.963 106.617 489.585 105.91 490.359 105.476C491.133 105.042 491.967 104.837 492.86 104.862C493.752 104.887 494.608 105.096 495.426 105.487C496.073 105.796 496.576 106.101 496.935 106.401C497.294 106.7 497.553 106.943 497.711 107.128L495.864 109.041C495.751 108.932 495.592 108.788 495.386 108.607C495.188 108.43 494.899 108.25 494.52 108.069C493.649 107.653 492.916 107.572 492.32 107.825C491.73 108.083 491.233 108.635 490.828 109.483L481.799 128.357L479.167 127.097Z" fill="white"/>
<path d="M495.762 135.611C494.124 134.795 492.891 133.73 492.063 132.415C491.247 131.097 490.843 129.624 490.851 127.999C490.871 126.369 491.314 124.684 492.182 122.942C493.049 121.201 494.131 119.824 495.427 118.812C496.735 117.796 498.146 117.201 499.661 117.025C501.187 116.846 502.717 117.139 504.252 117.903C505.137 118.344 505.938 118.927 506.654 119.652C507.371 120.378 507.917 121.249 508.295 122.266C508.676 123.275 508.807 124.427 508.687 125.721C508.568 127.015 508.113 128.456 507.322 130.042L506.771 131.149L493.666 124.621L494.791 122.363L505.239 127.568C505.717 126.609 505.952 125.657 505.943 124.713C505.942 123.773 505.699 122.911 505.215 122.126C504.738 121.346 504.027 120.72 503.083 120.249C502.042 119.731 501.014 119.541 499.996 119.679C498.99 119.813 498.08 120.189 497.266 120.806C496.452 121.422 495.812 122.199 495.345 123.137L494.595 124.642C493.956 125.926 493.635 127.124 493.633 128.238C493.642 129.347 493.929 130.333 494.495 131.195C495.064 132.049 495.876 132.739 496.931 133.265C497.617 133.607 498.285 133.82 498.934 133.903C499.594 133.984 500.224 133.929 500.825 133.74C501.429 133.544 501.989 133.206 502.504 132.726L504.675 134.691C503.983 135.415 503.161 135.945 502.211 136.282C501.264 136.612 500.239 136.727 499.137 136.629C498.038 136.524 496.913 136.185 495.762 135.611Z" fill="white"/>
<path d="M522.038 120.1L513.488 136.17L510.938 134.857L519.047 118.56L522.038 120.1ZM508.863 142.022C508.321 141.743 507.955 141.31 507.767 140.721C507.578 140.133 507.623 139.567 507.903 139.025C508.182 138.483 508.616 138.117 509.204 137.929C509.792 137.74 510.358 137.785 510.9 138.064C511.443 138.344 511.808 138.777 511.997 139.366C512.185 139.954 512.14 140.52 511.861 141.062C511.676 141.421 511.414 141.704 511.076 141.91C510.746 142.12 510.383 142.239 509.988 142.268C509.605 142.293 509.23 142.211 508.863 142.022Z" fill="white"/>
<path d="M525.037 150.256L537.206 128.048L539.895 129.521L534.476 139.411L546.318 145.9L551.737 136.01L554.426 137.484L542.257 159.692L539.567 158.218L545.01 148.285L533.169 141.797L527.726 151.73L525.037 150.256Z" fill="white"/>
<path d="M553.935 166.829C552.448 165.975 551.347 164.871 550.632 163.519C549.924 162.17 549.621 160.679 549.723 159.045C549.832 157.416 550.376 155.751 551.354 154.05C552.34 152.334 553.511 151.016 554.868 150.094C556.232 149.176 557.675 148.684 559.197 148.617C560.726 148.555 562.233 148.95 563.72 149.805C565.207 150.659 566.304 151.761 567.012 153.109C567.728 154.462 568.029 155.956 567.915 157.593C567.809 159.234 567.262 160.912 566.277 162.627C565.299 164.328 564.13 165.634 562.77 166.545C561.417 167.459 559.976 167.948 558.447 168.011C556.925 168.077 555.421 167.684 553.935 166.829ZM555.241 164.556C556.37 165.205 557.466 165.45 558.528 165.29C559.589 165.13 560.566 164.679 561.459 163.937C562.351 163.195 563.114 162.274 563.746 161.173C564.379 160.072 564.794 158.946 564.99 157.794C565.186 156.642 565.088 155.564 564.696 154.559C564.304 153.554 563.543 152.727 562.414 152.078C561.284 151.429 560.187 151.188 559.121 151.355C558.055 151.522 557.074 151.98 556.177 152.729C555.281 153.478 554.516 154.403 553.884 155.504C553.251 156.605 552.839 157.727 552.647 158.872C552.455 160.017 552.557 161.088 552.953 162.086C553.349 163.084 554.112 163.907 555.241 164.556Z" fill="white"/>
<path d="M588.051 164.459L572.272 177.15L569.725 175.626L573.451 155.722L576.167 157.347L572.895 173.027L573.064 173.129L585.335 162.833L588.051 164.459Z" fill="white"/>
<path d="M587.766 187.077C586.212 186.11 585.085 184.933 584.385 183.546C583.696 182.156 583.432 180.653 583.594 179.035C583.767 177.415 584.367 175.778 585.395 174.127C586.423 172.475 587.629 171.206 589.015 170.321C590.412 169.432 591.873 168.972 593.398 168.94C594.934 168.906 596.43 169.341 597.886 170.247C598.726 170.769 599.468 171.425 600.113 172.215C600.758 173.004 601.22 173.923 601.5 174.971C601.785 176.012 601.806 177.171 601.565 178.448C601.324 179.725 600.736 181.116 599.799 182.621L599.146 183.671L586.715 175.938L588.047 173.796L597.959 179.962C598.525 179.052 598.848 178.127 598.928 177.186C599.015 176.25 598.855 175.369 598.447 174.542C598.046 173.72 597.397 173.03 596.501 172.473C595.514 171.859 594.508 171.573 593.482 171.614C592.468 171.653 591.526 171.941 590.658 172.478C589.79 173.016 589.079 173.729 588.526 174.618L587.638 176.046C586.88 177.264 586.448 178.427 586.341 179.535C586.245 180.641 586.438 181.649 586.92 182.56C587.406 183.465 588.15 184.228 589.151 184.851C589.801 185.256 590.446 185.531 591.084 185.675C591.734 185.817 592.366 185.822 592.982 185.691C593.602 185.552 594.192 185.268 594.75 184.839L596.726 187C595.969 187.655 595.101 188.106 594.123 188.352C593.149 188.591 592.118 188.609 591.03 188.408C589.946 188.2 588.858 187.756 587.766 187.077Z" fill="white"/>
<path d="M598.483 193.338L608.711 177.334L611.087 178.853L609.542 181.27L609.708 181.376C610.506 180.771 611.445 180.466 612.524 180.461C613.603 180.456 614.622 180.76 615.581 181.373C615.761 181.488 615.985 181.636 616.251 181.816C616.518 181.996 616.716 182.138 616.846 182.24L615.248 184.741C615.178 184.667 615.007 184.513 614.735 184.281C614.474 184.046 614.181 183.824 613.854 183.615C613.076 183.118 612.277 182.837 611.457 182.773C610.649 182.706 609.885 182.845 609.167 183.188C608.46 183.528 607.876 184.06 607.414 184.782L600.942 194.91L598.483 193.338Z" fill="white"/>
<path d="M624.005 210.474C622.58 209.519 621.557 208.343 620.936 206.945C620.322 205.551 620.122 204.043 620.336 202.42C620.557 200.801 621.214 199.177 622.306 197.547C623.407 195.904 624.666 194.669 626.083 193.842C627.507 193.02 628.98 192.628 630.503 192.665C632.032 192.708 633.509 193.206 634.934 194.16C636.358 195.115 637.378 196.289 637.992 197.683C638.613 199.081 638.811 200.593 638.585 202.218C638.367 203.847 637.707 205.484 636.605 207.128C635.513 208.758 634.258 209.98 632.838 210.796C631.426 211.615 629.955 212.004 628.425 211.962C626.903 211.924 625.429 211.428 624.005 210.474ZM625.464 208.296C626.546 209.021 627.622 209.34 628.692 209.253C629.762 209.166 630.768 208.783 631.709 208.104C632.651 207.425 633.474 206.558 634.181 205.503C634.888 204.449 635.378 203.354 635.653 202.218C635.928 201.082 635.904 200 635.581 198.97C635.259 197.94 634.557 197.063 633.475 196.338C632.393 195.613 631.314 195.298 630.24 195.391C629.165 195.485 628.154 195.875 627.209 196.561C626.263 197.247 625.437 198.117 624.73 199.172C624.023 200.226 623.535 201.318 623.265 202.447C622.995 203.576 623.023 204.652 623.35 205.674C623.677 206.697 624.382 207.571 625.464 208.296Z" fill="white"/>
<path d="M658.172 210.35L641.599 221.986L639.158 220.3L644.172 200.681L646.777 202.479L642.49 217.913L642.652 218.025L655.567 208.551L658.172 210.35Z" fill="white"/>
<path d="M656.406 232.887C654.914 231.826 653.862 230.582 653.249 229.154C652.647 227.725 652.477 226.207 652.739 224.603C653.012 222.996 653.712 221.4 654.84 219.815C655.968 218.23 657.25 217.038 658.688 216.24C660.138 215.44 661.624 215.071 663.148 215.133C664.683 215.194 666.149 215.721 667.547 216.715C668.353 217.288 669.053 217.989 669.648 218.816C670.243 219.644 670.647 220.59 670.862 221.653C671.082 222.71 671.032 223.868 670.712 225.128C670.392 226.387 669.719 227.739 668.692 229.184L667.975 230.191L656.045 221.704L657.507 219.649L667.019 226.415C667.64 225.542 668.02 224.639 668.158 223.705C668.303 222.776 668.197 221.887 667.841 221.036C667.491 220.191 666.887 219.462 666.027 218.851C665.08 218.177 664.093 217.829 663.067 217.807C662.052 217.783 661.095 218.012 660.195 218.495C659.295 218.978 658.541 219.646 657.935 220.499L656.96 221.869C656.128 223.038 655.625 224.172 655.45 225.272C655.286 226.369 655.416 227.388 655.841 228.327C656.27 229.26 656.965 230.067 657.925 230.751C658.55 231.195 659.176 231.509 659.804 231.693C660.444 231.875 661.075 231.919 661.698 231.826C662.325 231.726 662.931 231.479 663.515 231.085L665.353 233.364C664.557 233.971 663.663 234.367 662.672 234.552C661.685 234.731 660.655 234.686 659.581 234.417C658.512 234.143 657.454 233.632 656.406 232.887Z" fill="white"/>
<path d="M666.713 239.816L677.934 224.492L680.209 226.158L678.514 228.472L678.674 228.589C679.508 228.036 680.464 227.791 681.542 227.854C682.619 227.918 683.617 228.286 684.534 228.958C684.707 229.084 684.921 229.246 685.176 229.443C685.43 229.639 685.619 229.793 685.742 229.904L683.989 232.298C683.924 232.219 683.763 232.056 683.506 231.806C683.261 231.555 682.982 231.315 682.669 231.086C681.924 230.541 681.145 230.21 680.331 230.094C679.528 229.976 678.757 230.066 678.019 230.363C677.292 230.658 676.675 231.151 676.168 231.843L669.067 241.54L666.713 239.816Z" fill="white"/>
<path d="M691.32 258.623C689.863 257.516 688.851 256.239 688.283 254.792C687.728 253.344 687.606 251.822 687.918 250.227C688.242 248.63 688.992 247.057 690.17 245.508C691.347 243.96 692.667 242.809 694.13 242.057C695.604 241.303 697.101 240.982 698.622 241.093C700.155 241.202 701.604 241.775 702.969 242.813C703.756 243.412 704.434 244.134 705.002 244.98C705.57 245.827 705.945 246.784 706.126 247.854C706.312 248.917 706.225 250.073 705.865 251.322C705.506 252.571 704.79 253.901 703.717 255.312L702.969 256.296L691.315 247.435L692.841 245.427L702.133 252.492C702.782 251.639 703.19 250.748 703.358 249.819C703.532 248.895 703.455 248.003 703.126 247.142C702.803 246.286 702.222 245.538 701.382 244.9C700.457 244.196 699.481 243.817 698.456 243.762C697.443 243.706 696.479 243.905 695.564 244.359C694.649 244.813 693.875 245.457 693.241 246.29L692.223 247.629C691.355 248.771 690.816 249.888 690.606 250.982C690.408 252.073 690.506 253.095 690.9 254.048C691.299 254.993 691.968 255.823 692.907 256.536C693.517 257 694.133 257.334 694.755 257.538C695.388 257.74 696.018 257.804 696.643 257.731C697.273 257.651 697.887 257.423 698.483 257.048L700.248 259.384C699.433 259.966 698.527 260.333 697.53 260.487C696.538 260.634 695.51 260.556 694.445 260.254C693.385 259.945 692.344 259.402 691.32 258.623Z" fill="white"/>
<path d="M705.398 270.756C704.49 269.966 703.815 269.078 703.373 268.092C702.936 267.1 702.783 266.088 702.916 265.056C703.054 264.018 703.529 263.033 704.341 262.1C705.055 261.279 705.796 260.754 706.563 260.526C707.335 260.291 708.119 260.263 708.915 260.441C709.71 260.62 710.496 260.921 711.274 261.346C712.063 261.771 712.828 262.229 713.569 262.721C714.537 263.366 715.316 263.896 715.906 264.311C716.508 264.725 716.995 264.969 717.368 265.042C717.748 265.121 718.091 264.983 718.4 264.628L718.465 264.554C719.266 263.633 719.636 262.699 719.576 261.751C719.522 260.808 718.988 259.896 717.974 259.014C716.923 258.099 715.899 257.612 714.902 257.553C713.904 257.494 713.057 257.62 712.36 257.931L710.92 255.367C712.05 254.821 713.137 254.576 714.181 254.632C715.237 254.687 716.219 254.94 717.127 255.391C718.046 255.842 718.866 256.381 719.588 257.008C720.048 257.409 720.528 257.925 721.028 258.556C721.539 259.186 721.928 259.913 722.196 260.736C722.47 261.564 722.498 262.48 722.282 263.482C722.065 264.485 721.462 265.555 720.472 266.693L712.258 276.134L710.057 274.219L711.745 272.278L711.633 272.181C711.213 272.362 710.675 272.478 710.018 272.53C709.361 272.581 708.636 272.48 707.841 272.225C707.046 271.971 706.232 271.481 705.398 270.756ZM707.455 269.071C708.326 269.828 709.208 270.296 710.103 270.473C711.004 270.656 711.842 270.609 712.617 270.333C713.399 270.063 714.05 269.629 714.569 269.032L716.322 267.017C716.131 267.047 715.837 266.972 715.439 266.789C715.052 266.605 714.624 266.369 714.154 266.081C713.695 265.791 713.252 265.504 712.823 265.218C712.405 264.931 712.065 264.701 711.802 264.526C711.165 264.103 710.524 263.759 709.881 263.494C709.249 263.228 708.637 263.128 708.045 263.192C707.465 263.256 706.932 263.568 706.445 264.127C705.78 264.892 705.559 265.717 705.784 266.601C706.021 267.485 706.578 268.308 707.455 269.071Z" fill="white"/>
<path d="M721.843 284.873C720.489 283.717 719.596 282.401 719.164 280.927C718.732 279.452 718.732 277.929 719.163 276.357C719.595 274.785 720.426 273.279 721.657 271.837C722.91 270.37 724.285 269.305 725.782 268.644C727.291 267.981 728.802 267.748 730.314 267.944C731.838 268.14 733.252 268.795 734.556 269.908C735.572 270.775 736.326 271.745 736.82 272.817C737.314 273.889 737.532 274.986 737.474 276.107C737.416 277.228 737.065 278.294 736.419 279.304L734.2 277.409C734.593 276.606 734.715 275.702 734.565 274.696C734.427 273.69 733.87 272.769 732.892 271.934C732.026 271.195 731.075 270.773 730.038 270.668C729.012 270.561 727.969 270.76 726.91 271.265C725.862 271.769 724.872 272.566 723.941 273.656C722.988 274.772 722.334 275.894 721.978 277.021C721.629 278.154 721.582 279.225 721.837 280.234C722.098 281.248 722.667 282.13 723.545 282.879C724.122 283.372 724.731 283.718 725.372 283.919C726.014 284.12 726.658 284.172 727.305 284.074C727.953 283.976 728.57 283.723 729.158 283.314L731.377 285.209C730.523 285.955 729.557 286.458 728.479 286.718C727.411 286.978 726.302 286.963 725.151 286.673C724.011 286.383 722.909 285.783 721.843 284.873Z" fill="white"/>
<path d="M740.881 285.516L733.56 294.288L731.319 292.418L747.545 272.976L749.786 274.845L743.828 281.985L744.018 282.143C744.988 281.675 746 281.505 747.053 281.632C748.118 281.759 749.223 282.3 750.369 283.256C751.362 284.085 752.066 285.011 752.48 286.033C752.9 287.048 752.974 288.136 752.704 289.296C752.446 290.454 751.794 291.66 750.748 292.914L743.016 302.179L740.775 300.31L748.381 291.196C749.348 290.037 749.794 288.891 749.721 287.756C749.66 286.621 749.101 285.612 748.044 284.73C747.309 284.117 746.522 283.723 745.681 283.547C744.846 283.376 744.013 283.449 743.181 283.764C742.355 284.084 741.588 284.668 740.881 285.516Z" fill="white"/>
<path d="M750.183 317.307L766.605 297.001L768.798 298.774L766.9 301.12L767.169 301.338C767.543 301.216 768.039 301.076 768.655 300.917C769.283 300.757 770.002 300.745 770.814 300.882C771.637 301.018 772.53 301.474 773.491 302.252C774.735 303.258 775.579 304.455 776.025 305.844C776.471 307.233 776.498 308.713 776.108 310.284C775.717 311.855 774.894 313.416 773.64 314.967C772.375 316.531 771.013 317.672 769.553 318.389C768.098 319.1 766.646 319.388 765.195 319.254C763.75 319.114 762.412 318.546 761.182 317.551C760.233 316.784 759.601 316.012 759.284 315.237C758.973 314.455 758.827 313.738 758.846 313.085C758.87 312.426 758.907 311.895 758.958 311.491L758.766 311.335L752.452 319.142L750.183 317.307ZM762.864 306.189C761.962 307.305 761.33 308.421 760.967 309.537C760.61 310.648 760.551 311.697 760.79 312.686C761.035 313.669 761.612 314.528 762.523 315.264C763.471 316.031 764.465 316.421 765.504 316.434C766.554 316.446 767.585 316.156 768.594 315.563C769.616 314.968 770.552 314.145 771.402 313.094C772.242 312.056 772.838 310.99 773.192 309.898C773.557 308.804 773.616 307.755 773.369 306.749C773.133 305.742 772.535 304.85 771.573 304.073C770.65 303.326 769.686 302.933 768.679 302.893C767.678 302.846 766.68 303.11 765.685 303.684C764.696 304.252 763.756 305.087 762.864 306.189Z" fill="white"/>
<path d="M771.247 325.118L783.073 310.257L785.357 312.074L773.53 326.936L771.247 325.118ZM786.205 308.704C785.76 308.35 785.497 307.893 785.416 307.333C785.341 306.778 785.473 306.288 785.812 305.862C786.151 305.437 786.599 305.198 787.156 305.146C787.72 305.1 788.224 305.253 788.669 305.608C789.114 305.962 789.374 306.416 789.449 306.971C789.53 307.531 789.402 308.024 789.063 308.449C788.724 308.875 788.273 309.111 787.709 309.158C787.152 309.209 786.651 309.058 786.205 308.704Z" fill="white"/>
<path d="M783.636 335.398C782.234 334.301 781.286 333.024 780.792 331.57C780.297 330.115 780.232 328.593 780.597 327.004C780.961 325.416 781.728 323.875 782.896 322.382C784.085 320.863 785.414 319.741 786.882 319.016C788.361 318.29 789.86 317.993 791.38 318.125C792.911 318.255 794.351 318.849 795.701 319.906C796.753 320.729 797.548 321.666 798.087 322.716C798.626 323.766 798.89 324.852 798.88 325.975C798.87 327.098 798.564 328.177 797.963 329.214L795.665 327.415C796.023 326.596 796.106 325.688 795.914 324.689C795.733 323.69 795.137 322.793 794.124 322.001C793.229 321.299 792.26 320.918 791.219 320.857C790.19 320.795 789.157 321.038 788.12 321.587C787.094 322.135 786.139 322.973 785.255 324.103C784.351 325.258 783.745 326.407 783.438 327.548C783.137 328.694 783.135 329.766 783.433 330.763C783.737 331.766 784.343 332.623 785.252 333.334C785.849 333.802 786.473 334.122 787.122 334.295C787.772 334.469 788.417 334.493 789.06 334.368C789.702 334.242 790.308 333.963 790.878 333.53L793.176 335.328C792.355 336.11 791.411 336.653 790.344 336.959C789.289 337.264 788.181 337.296 787.018 337.056C785.867 336.815 784.74 336.262 783.636 335.398Z" fill="white"/>
<path d="M811.558 332.466L810.053 334.429L802.242 328.441L803.746 326.478L811.558 332.466ZM808.792 324.612L811.108 326.387L800.094 340.754C799.592 341.408 799.311 341.972 799.25 342.444C799.2 342.915 799.284 343.322 799.499 343.664C799.726 344.004 800.01 344.305 800.35 344.566C800.606 344.761 800.825 344.909 801.009 345.008C801.197 345.101 801.348 345.175 801.461 345.23L800.337 347.672C800.135 347.61 799.871 347.501 799.545 347.344C799.213 347.194 798.831 346.954 798.4 346.623C797.745 346.121 797.212 345.489 796.8 344.726C796.394 343.968 796.206 343.144 796.235 342.252C796.27 341.365 796.624 340.483 797.296 339.607L808.792 324.612Z" fill="white"/>
<path d="M816.691 350.417L823.449 341.451L825.779 343.207L814.348 358.375L812.017 356.618L813.952 354.051L813.794 353.932C812.858 354.434 811.812 354.672 810.654 354.647C809.502 354.614 808.353 354.166 807.208 353.303C806.26 352.589 805.573 351.746 805.149 350.776C804.729 349.799 804.626 348.73 804.84 347.57C805.058 346.403 805.654 345.175 806.626 343.884L813.89 334.247L816.22 336.003L809.076 345.483C808.242 346.589 807.887 347.704 808.009 348.829C808.139 349.958 808.687 350.888 809.655 351.617C810.234 352.054 810.935 352.35 811.757 352.505C812.586 352.665 813.436 352.593 814.305 352.288C815.181 351.989 815.977 351.365 816.691 350.417Z" fill="white"/>
<path d="M818.91 361.732L830.182 346.446L832.452 348.119L830.749 350.428L830.908 350.545C831.745 349.994 832.701 349.753 833.779 349.82C834.856 349.887 835.852 350.258 836.768 350.933C836.94 351.06 837.153 351.223 837.407 351.42C837.661 351.617 837.849 351.772 837.972 351.883L836.211 354.271C836.146 354.193 835.986 354.028 835.73 353.778C835.485 353.526 835.207 353.285 834.895 353.055C834.152 352.507 833.374 352.174 832.56 352.055C831.758 351.935 830.987 352.022 830.247 352.316C829.519 352.609 828.901 353.101 828.392 353.791L821.259 363.464L818.91 361.732Z" fill="white"/>
<path d="M835.21 374.111C833.726 373.04 832.682 371.789 832.078 370.358C831.485 368.924 831.325 367.406 831.596 365.803C831.88 364.198 832.59 362.607 833.728 361.029C834.866 359.451 836.156 358.268 837.599 357.479C839.054 356.688 840.543 356.329 842.066 356.401C843.601 356.471 845.064 357.007 846.454 358.01C847.257 358.589 847.953 359.294 848.542 360.126C849.132 360.957 849.53 361.905 849.738 362.97C849.951 364.028 849.894 365.186 849.566 366.443C849.238 367.701 848.556 369.049 847.519 370.486L846.796 371.489L834.921 362.926L836.397 360.88L845.865 367.707C846.491 366.838 846.877 365.937 847.021 365.005C847.172 364.077 847.072 363.186 846.721 362.334C846.377 361.486 845.777 360.754 844.921 360.137C843.978 359.457 842.994 359.102 841.968 359.074C840.953 359.043 839.994 359.267 839.091 359.744C838.188 360.221 837.431 360.884 836.818 361.733L835.835 363.097C834.996 364.26 834.485 365.391 834.303 366.49C834.132 367.586 834.256 368.605 834.674 369.547C835.098 370.483 835.787 371.295 836.743 371.984C837.365 372.433 837.99 372.751 838.616 372.939C839.255 373.125 839.886 373.173 840.509 373.084C841.137 372.988 841.744 372.745 842.33 372.355L844.154 374.646C843.354 375.248 842.458 375.638 841.465 375.816C840.478 375.988 839.448 375.937 838.376 375.662C837.308 375.38 836.253 374.863 835.21 374.111Z" fill="white"/>
<path d="M871.067 375.655L869.655 377.686L861.573 372.068L862.984 370.037L871.067 375.655ZM867.937 367.938L870.333 369.604L860.002 384.469C859.531 385.145 859.276 385.721 859.237 386.196C859.21 386.669 859.312 387.071 859.543 387.403C859.786 387.732 860.084 388.019 860.436 388.264C860.7 388.447 860.926 388.584 861.114 388.675C861.306 388.759 861.461 388.826 861.576 388.876L860.568 391.367C860.363 391.315 860.094 391.219 859.76 391.077C859.422 390.943 859.03 390.72 858.583 390.409C857.906 389.939 857.344 389.332 856.896 388.59C856.456 387.852 856.229 387.037 856.216 386.145C856.211 385.257 856.523 384.36 857.154 383.453L867.937 367.938Z" fill="white"/>
<path d="M868.625 397.448C867.206 396.485 866.19 395.302 865.578 393.9C864.972 392.503 864.781 390.993 865.005 389.372C865.235 387.755 865.902 386.135 867.004 384.512C868.115 382.875 869.381 381.647 870.803 380.829C872.232 380.015 873.708 379.632 875.23 379.679C876.759 379.731 878.233 380.238 879.652 381.201C881.071 382.164 882.083 383.344 882.689 384.741C883.301 386.143 883.49 387.656 883.255 389.28C883.026 390.908 882.356 392.541 881.245 394.178C880.144 395.801 878.88 397.016 877.456 397.823C876.039 398.634 874.565 399.014 873.036 398.963C871.514 398.916 870.043 398.411 868.625 397.448ZM870.097 395.279C871.174 396.01 872.249 396.336 873.319 396.256C874.39 396.175 875.398 395.799 876.343 395.125C877.289 394.452 878.118 393.59 878.831 392.539C879.544 391.489 880.041 390.397 880.322 389.263C880.604 388.129 880.587 387.046 880.271 386.014C879.954 384.983 879.258 384.101 878.18 383.37C877.102 382.638 876.026 382.316 874.95 382.403C873.875 382.49 872.862 382.874 871.912 383.554C870.962 384.235 870.131 385.1 869.418 386.15C868.705 387.201 868.21 388.29 867.933 389.417C867.657 390.544 867.678 391.62 867.999 392.645C868.32 393.669 869.019 394.547 870.097 395.279Z" fill="white"/>
<path d="M907.168 404.717L904.563 403.918C904.662 403.462 904.688 402.973 904.641 402.452C904.606 401.929 904.434 401.406 904.125 400.882C903.815 400.358 903.304 399.866 902.591 399.405C901.614 398.775 900.655 398.474 899.714 398.504C898.784 398.531 898.097 398.887 897.654 399.573C897.261 400.182 897.171 400.807 897.386 401.446C897.601 402.085 898.104 402.827 898.893 403.671L900.886 405.782C902.089 407.05 902.809 408.266 903.048 409.431C903.291 410.589 903.053 411.726 902.332 412.841C901.742 413.755 900.951 414.402 899.96 414.782C898.975 415.167 897.881 415.265 896.678 415.076C895.475 414.888 894.254 414.393 893.014 413.593C891.387 412.542 890.268 411.318 889.658 409.923C889.048 408.528 889.039 407.06 889.632 405.52L892.334 406.441C892.001 407.443 892.004 408.357 892.343 409.185C892.689 410.017 893.364 410.757 894.368 411.405C895.511 412.144 896.574 412.487 897.559 412.436C898.555 412.383 899.275 412.014 899.718 411.328C900.075 410.774 900.181 410.185 900.035 409.561C899.893 408.929 899.481 408.261 898.799 407.555L896.542 405.214C895.305 403.924 894.578 402.694 894.362 401.524C894.158 400.352 894.411 399.215 895.122 398.114C895.704 397.214 896.471 396.581 897.424 396.215C898.383 395.854 899.431 395.76 900.565 395.933C901.706 396.111 902.838 396.562 903.959 397.287C905.538 398.306 906.554 399.453 907.007 400.727C907.467 402.006 907.52 403.336 907.168 404.717Z" fill="white"/>
<path d="M909.787 424.253C908.236 423.282 907.112 422.101 906.416 420.712C905.732 419.32 905.473 417.816 905.639 416.199C905.817 414.579 906.423 412.944 907.455 411.296C908.488 409.647 909.699 408.382 911.087 407.501C912.487 406.617 913.949 406.161 915.474 406.134C917.01 406.104 918.505 406.544 919.958 407.454C920.796 407.979 921.537 408.637 922.179 409.429C922.821 410.22 923.281 411.14 923.558 412.189C923.839 413.231 923.857 414.39 923.612 415.666C923.367 416.943 922.775 418.332 921.834 419.834L921.178 420.882L908.77 413.111L910.109 410.973L920.001 417.169C920.57 416.261 920.896 415.337 920.979 414.396C921.069 413.461 920.911 412.579 920.506 411.751C920.107 410.927 919.461 410.236 918.567 409.676C917.581 409.059 916.576 408.769 915.55 408.808C914.536 408.843 913.593 409.129 912.723 409.664C911.853 410.198 911.141 410.909 910.585 411.797L909.692 413.222C908.931 414.438 908.495 415.599 908.385 416.707C908.286 417.812 908.476 418.821 908.955 419.734C909.438 420.64 910.179 421.406 911.178 422.031C911.828 422.438 912.472 422.715 913.11 422.861C913.759 423.005 914.391 423.013 915.007 422.883C915.628 422.746 916.218 422.464 916.778 422.037L918.747 424.204C917.988 424.857 917.119 425.304 916.14 425.547C915.165 425.783 914.134 425.799 913.047 425.594C911.963 425.383 910.877 424.936 909.787 424.253Z" fill="white"/>
<path d="M927.039 434.833C925.472 433.887 924.329 432.726 923.61 431.349C922.902 429.969 922.618 428.469 922.757 426.849C922.908 425.226 923.486 423.582 924.491 421.916C925.496 420.25 926.685 418.965 928.059 418.061C929.444 417.154 930.898 416.674 932.422 416.621C933.958 416.565 935.459 416.98 936.928 417.866C937.775 418.377 938.526 419.022 939.181 419.803C939.837 420.584 940.312 421.496 940.606 422.54C940.905 423.577 940.942 424.736 940.719 426.016C940.495 427.296 939.926 428.695 939.01 430.213L938.372 431.272L925.835 423.709L927.138 421.549L937.133 427.579C937.687 426.661 937.997 425.732 938.065 424.79C938.139 423.853 937.967 422.974 937.547 422.153C937.135 421.336 936.477 420.655 935.574 420.11C934.578 419.51 933.568 419.238 932.543 419.293C931.529 419.346 930.592 419.647 929.731 420.196C928.87 420.745 928.169 421.468 927.629 422.365L926.76 423.805C926.019 425.033 925.603 426.202 925.511 427.311C925.43 428.418 925.637 429.424 926.131 430.328C926.63 431.226 927.384 431.979 928.393 432.588C929.049 432.984 929.698 433.25 930.338 433.386C930.989 433.519 931.622 433.515 932.236 433.375C932.854 433.228 933.439 432.936 933.992 432.5L935.997 434.633C935.249 435.299 934.387 435.761 933.413 436.021C932.442 436.273 931.412 436.306 930.321 436.119C929.234 435.926 928.14 435.497 927.039 434.833Z" fill="white"/>
<path d="M965.201 439.547L962.556 438.892C962.629 438.431 962.628 437.942 962.553 437.424C962.489 436.904 962.289 436.391 961.951 435.885C961.613 435.379 961.075 434.916 960.338 434.495C959.328 433.92 958.354 433.672 957.415 433.754C956.488 433.832 955.822 434.226 955.418 434.935C955.059 435.565 955.004 436.193 955.254 436.82C955.504 437.447 956.046 438.159 956.881 438.958L958.987 440.956C960.258 442.156 961.045 443.331 961.347 444.481C961.654 445.623 961.479 446.771 960.821 447.924C960.282 448.869 959.528 449.559 958.559 449.994C957.597 450.432 956.511 450.59 955.299 450.469C954.087 450.347 952.84 449.921 951.559 449.189C949.876 448.23 948.691 447.07 948.005 445.711C947.319 444.351 947.229 442.886 947.736 441.315L950.485 442.086C950.208 443.105 950.261 444.018 950.645 444.825C951.037 445.637 951.751 446.339 952.79 446.931C953.971 447.605 955.052 447.889 956.033 447.784C957.024 447.676 957.722 447.267 958.127 446.558C958.454 445.985 958.527 445.391 958.346 444.776C958.17 444.153 957.721 443.509 957.001 442.842L954.619 440.629C953.312 439.409 952.519 438.221 952.239 437.065C951.97 435.906 952.16 434.757 952.81 433.618C953.34 432.687 954.071 432.013 955.003 431.595C955.941 431.181 956.981 431.029 958.123 431.14C959.273 431.254 960.427 431.643 961.587 432.304C963.22 433.235 964.298 434.324 964.82 435.571C965.35 436.823 965.477 438.148 965.201 439.547Z" fill="white"/>
<path d="M968.687 458.739C967.183 457.916 966.059 456.835 965.315 455.498C964.579 454.165 964.245 452.681 964.312 451.045C964.388 449.414 964.896 447.737 965.838 446.016C966.788 444.281 967.931 442.938 969.269 441.988C970.613 441.041 972.046 440.519 973.565 440.42C975.093 440.325 976.608 440.69 978.112 441.513C979.617 442.336 980.737 443.414 981.473 444.747C982.217 446.084 982.549 447.572 982.47 449.211C982.398 450.854 981.887 452.543 980.938 454.278C979.996 456 978.855 457.33 977.514 458.269C976.18 459.212 974.75 459.731 973.223 459.825C971.703 459.924 970.191 459.562 968.687 458.739ZM969.945 456.439C971.088 457.064 972.188 457.286 973.246 457.104C974.304 456.921 975.272 456.45 976.149 455.689C977.025 454.929 977.768 453.991 978.378 452.878C978.987 451.764 979.378 450.629 979.55 449.474C979.722 448.318 979.601 447.242 979.188 446.245C978.775 445.249 977.997 444.438 976.854 443.812C975.711 443.187 974.609 442.969 973.547 443.159C972.485 443.348 971.514 443.827 970.633 444.595C969.752 445.363 969.007 446.303 968.398 447.417C967.789 448.531 967.4 449.662 967.232 450.81C967.064 451.959 967.188 453.028 967.606 454.017C968.023 455.006 968.803 455.814 969.945 456.439Z" fill="white"/>
<path d="M980.334 464.645L989.017 447.753L991.525 449.042L990.168 451.682L990.388 451.795C991.203 451.074 992.131 450.666 993.172 450.57C994.217 450.468 995.289 450.699 996.389 451.265C997.503 451.837 998.3 452.567 998.781 453.454C999.272 454.336 999.495 455.336 999.45 456.453L999.626 456.543C1000.51 455.893 1001.51 455.534 1002.64 455.465C1003.77 455.39 1004.94 455.663 1006.15 456.284C1007.66 457.061 1008.66 458.169 1009.13 459.608C1009.61 461.04 1009.34 462.75 1008.32 464.737L1002.5 476.042L999.909 474.708L1005.72 463.403C1006.36 462.156 1006.48 461.09 1006.07 460.204C1005.66 459.319 1005 458.638 1004.08 458.164C1002.89 457.553 1001.78 457.439 1000.76 457.822C999.744 458.198 998.954 458.932 998.392 460.025L992.739 471.022L990.1 469.665L996.047 458.096C996.54 457.136 996.626 456.202 996.305 455.295C995.987 454.381 995.337 453.671 994.354 453.166C993.68 452.82 992.957 452.675 992.186 452.733C991.422 452.794 990.696 453.052 990.009 453.505C989.333 453.955 988.782 454.594 988.356 455.422L982.93 465.98L980.334 464.645Z" fill="white"/>
<path d="M1014.38 482.23C1012.74 481.433 1011.49 480.382 1010.65 479.076C1009.82 477.767 1009.4 476.299 1009.39 474.673C1009.39 473.044 1009.81 471.353 1010.66 469.602C1011.51 467.851 1012.58 466.463 1013.86 465.436C1015.16 464.405 1016.56 463.794 1018.07 463.601C1019.6 463.405 1021.13 463.68 1022.67 464.427C1023.56 464.859 1024.37 465.433 1025.1 466.15C1025.82 466.867 1026.38 467.732 1026.77 468.744C1027.16 469.749 1027.3 470.9 1027.2 472.195C1027.09 473.491 1026.65 474.936 1025.88 476.531L1025.34 477.644L1012.16 471.264L1013.26 468.994L1023.77 474.081C1024.24 473.116 1024.46 472.162 1024.44 471.218C1024.43 470.278 1024.18 469.419 1023.68 468.64C1023.2 467.864 1022.48 467.247 1021.53 466.787C1020.48 466.28 1019.45 466.102 1018.44 466.251C1017.43 466.397 1016.53 466.783 1015.72 467.409C1014.91 468.035 1014.28 468.819 1013.83 469.761L1013.09 471.275C1012.47 472.566 1012.16 473.768 1012.17 474.881C1012.19 475.991 1012.49 476.973 1013.07 477.829C1013.65 478.676 1014.47 479.357 1015.53 479.871C1016.22 480.205 1016.89 480.41 1017.54 480.487C1018.2 480.56 1018.83 480.498 1019.43 480.302C1020.03 480.099 1020.58 479.755 1021.09 479.269L1023.29 481.21C1022.6 481.941 1021.79 482.481 1020.84 482.828C1019.9 483.168 1018.87 483.296 1017.77 483.21C1016.67 483.117 1015.54 482.791 1014.38 482.23Z" fill="white"/>
<path d="M1041.35 494.704C1039.78 494.008 1038.57 493.024 1037.72 491.753C1036.88 490.486 1036.42 489.034 1036.35 487.398C1036.29 485.766 1036.66 484.054 1037.46 482.261C1038.26 480.452 1039.29 479.02 1040.54 477.962C1041.81 476.908 1043.19 476.269 1044.7 476.045C1046.21 475.824 1047.75 476.062 1049.32 476.758C1050.89 477.453 1052.09 478.435 1052.94 479.703C1053.79 480.974 1054.24 482.43 1054.3 484.069C1054.36 485.712 1053.99 487.438 1053.19 489.246C1052.39 491.039 1051.37 492.459 1050.11 493.506C1048.86 494.556 1047.47 495.191 1045.96 495.412C1044.45 495.636 1042.92 495.4 1041.35 494.704ZM1042.41 492.308C1043.6 492.837 1044.72 492.966 1045.76 492.697C1046.8 492.428 1047.72 491.879 1048.53 491.048C1049.34 490.217 1050.01 489.222 1050.52 488.062C1051.04 486.901 1051.33 485.738 1051.41 484.572C1051.48 483.406 1051.28 482.344 1050.78 481.385C1050.29 480.426 1049.44 479.682 1048.25 479.153C1047.06 478.625 1045.95 478.499 1044.9 478.775C1043.86 479.052 1042.93 479.609 1042.12 480.447C1041.31 481.285 1040.64 482.285 1040.13 483.445C1039.61 484.605 1039.32 485.765 1039.24 486.923C1039.17 488.081 1039.38 489.136 1039.88 490.088C1040.38 491.039 1041.22 491.779 1042.41 492.308Z" fill="white"/>
<path d="M1068.66 485.332L1067.71 487.611L1058.27 483.642L1059.23 481.363L1068.66 485.332ZM1054.69 500.059L1063.07 480.135C1063.49 479.132 1064.08 478.395 1064.83 477.925C1065.58 477.454 1066.41 477.21 1067.3 477.192C1068.19 477.174 1069.06 477.341 1069.89 477.692C1070.55 477.97 1071.07 478.25 1071.44 478.533C1071.82 478.815 1072.09 479.045 1072.25 479.222L1070.5 481.221C1070.38 481.118 1070.22 480.981 1070 480.811C1069.8 480.643 1069.5 480.478 1069.11 480.315C1068.22 479.941 1067.49 479.895 1066.9 480.177C1066.33 480.463 1065.86 481.038 1065.49 481.905L1057.38 501.19L1054.69 500.059Z" fill="white"/>
<path d="M1074.31 508.191L1081.01 490.418L1083.65 491.412L1082.6 494.189L1082.83 494.276C1083.56 493.467 1084.44 492.956 1085.46 492.742C1086.48 492.521 1087.58 492.628 1088.73 493.064C1089.91 493.506 1090.78 494.14 1091.36 494.966C1091.95 495.787 1092.28 496.755 1092.37 497.869L1092.55 497.939C1093.35 497.193 1094.31 496.721 1095.42 496.524C1096.54 496.319 1097.73 496.457 1099.01 496.936C1100.6 497.535 1101.71 498.522 1102.34 499.898C1102.98 501.266 1102.91 502.996 1102.12 505.086L1097.64 516.981L1094.91 515.952L1099.39 504.057C1099.88 502.746 1099.88 501.673 1099.37 500.84C1098.87 500.007 1098.13 499.407 1097.16 499.04C1095.91 498.57 1094.8 498.583 1093.83 499.08C1092.86 499.57 1092.16 500.389 1091.72 501.538L1087.36 513.109L1084.59 512.063L1089.17 499.89C1089.55 498.88 1089.53 497.942 1089.11 497.078C1088.69 496.206 1087.96 495.576 1086.93 495.186C1086.22 494.919 1085.48 494.858 1084.73 495.003C1083.97 495.151 1083.28 495.49 1082.65 496.019C1082.03 496.542 1081.56 497.24 1081.23 498.112L1077.04 509.22L1074.31 508.191Z" fill="white"/>
<path d="M1101.74 525.902C1101.27 525.741 1100.86 525.559 1100.52 525.355C1100.18 525.16 1099.95 525.002 1099.84 524.884L1101.37 522.692C1101.98 523.094 1102.56 523.359 1103.09 523.489C1103.62 523.619 1104.15 523.545 1104.69 523.268C1105.24 523.002 1105.83 522.47 1106.48 521.673L1107.48 520.446L1107.03 500.108L1110.02 501.135L1110.07 517.152L1110.26 517.216L1120.13 504.601L1123.12 505.628L1108.43 523.598C1107.77 524.408 1107.08 525.03 1106.37 525.465C1105.65 525.907 1104.91 526.161 1104.13 526.228C1103.37 526.296 1102.57 526.188 1101.74 525.902Z" fill="white"/>
<path d="M1136.04 517.613L1132.77 528.56L1129.98 527.725L1137.23 503.46L1140.02 504.296L1137.36 513.205L1137.6 513.276C1138.3 512.464 1139.17 511.908 1140.18 511.61C1141.21 511.307 1142.44 511.368 1143.87 511.796C1145.11 512.166 1146.12 512.739 1146.91 513.515C1147.69 514.284 1148.19 515.254 1148.4 516.426C1148.62 517.593 1148.49 518.958 1148.03 520.522L1144.57 532.086L1141.78 531.25L1145.17 519.876C1145.61 518.431 1145.57 517.201 1145.05 516.187C1144.55 515.168 1143.63 514.461 1142.32 514.067C1141.4 513.793 1140.52 513.741 1139.68 513.911C1138.84 514.083 1138.11 514.478 1137.47 515.095C1136.83 515.715 1136.36 516.554 1136.04 517.613Z" fill="white"/>
<path d="M1149.65 533.467L1154.68 515.153L1157.5 515.927L1152.46 534.241L1149.65 533.467ZM1156.95 512.494C1156.4 512.343 1155.98 512.027 1155.69 511.544C1155.4 511.063 1155.33 510.561 1155.47 510.036C1155.62 509.511 1155.94 509.116 1156.43 508.849C1156.93 508.585 1157.45 508.528 1158 508.679C1158.55 508.83 1158.97 509.145 1159.25 509.626C1159.55 510.109 1159.62 510.612 1159.48 511.137C1159.34 511.662 1159.01 512.056 1158.51 512.32C1158.02 512.587 1157.5 512.645 1156.95 512.494Z" fill="white"/>
<path d="M1163.26 544.855C1161.89 544.512 1160.76 544.041 1159.87 543.443C1158.97 542.852 1158.26 542.191 1157.75 541.459C1157.24 540.737 1156.88 540.007 1156.65 539.272L1159.31 538.254C1159.48 538.654 1159.71 539.119 1159.99 539.649C1160.27 540.187 1160.71 540.701 1161.31 541.191C1161.92 541.692 1162.77 542.081 1163.89 542.36C1165.37 542.733 1166.69 542.681 1167.84 542.204C1168.99 541.727 1169.75 540.721 1170.14 539.185L1171.08 535.443L1170.84 535.383C1170.54 535.667 1170.14 536.009 1169.64 536.408C1169.14 536.802 1168.49 537.101 1167.68 537.306C1166.88 537.506 1165.88 537.455 1164.68 537.154C1163.19 536.781 1161.95 536.094 1160.94 535.094C1159.94 534.096 1159.27 532.839 1158.92 531.323C1158.57 529.809 1158.64 528.093 1159.12 526.174C1159.6 524.287 1160.34 522.727 1161.35 521.494C1162.37 520.253 1163.57 519.397 1164.94 518.926C1166.32 518.448 1167.79 518.403 1169.34 518.792C1170.54 519.092 1171.44 519.531 1172.04 520.107C1172.65 520.677 1173.09 521.262 1173.34 521.86C1173.6 522.452 1173.79 522.934 1173.92 523.305L1174.2 523.378L1174.94 520.451L1177.67 521.137L1172.92 540.087C1172.52 541.67 1171.84 542.868 1170.87 543.679C1169.91 544.5 1168.77 544.991 1167.44 545.152C1166.13 545.323 1164.73 545.224 1163.26 544.855ZM1165.7 534.708C1166.84 534.992 1167.86 534.973 1168.78 534.65C1169.69 534.327 1170.47 533.729 1171.13 532.855C1171.78 531.982 1172.28 530.866 1172.62 529.506C1172.95 528.179 1173.04 526.958 1172.9 525.842C1172.75 524.726 1172.36 523.782 1171.72 523.01C1171.08 522.238 1170.19 521.707 1169.04 521.419C1167.84 521.118 1166.76 521.171 1165.81 521.578C1164.86 521.987 1164.06 522.653 1163.41 523.577C1162.76 524.502 1162.28 525.588 1161.97 526.836C1161.64 528.115 1161.56 529.296 1161.71 530.38C1161.88 531.458 1162.28 532.376 1162.94 533.134C1163.6 533.886 1164.52 534.411 1165.7 534.708Z" fill="white"/>
<path d="M1183.52 530.248L1181.07 541.407L1178.22 540.781L1183.65 516.047L1186.5 516.673L1184.51 525.755L1184.75 525.808C1185.4 524.946 1186.22 524.328 1187.21 523.955C1188.21 523.577 1189.44 523.547 1190.9 523.867C1192.16 524.145 1193.21 524.642 1194.05 525.358C1194.89 526.066 1195.46 526.997 1195.76 528.15C1196.06 529.298 1196.04 530.668 1195.69 532.263L1193.1 544.05L1190.25 543.424L1192.8 531.83C1193.12 530.356 1192.99 529.133 1192.4 528.16C1191.82 527.18 1190.86 526.543 1189.52 526.247C1188.58 526.042 1187.7 526.055 1186.87 526.287C1186.05 526.521 1185.35 526.969 1184.76 527.632C1184.17 528.297 1183.76 529.169 1183.52 530.248Z" fill="white"/>
<path d="M1205.98 520.751L1201.12 545.605L1198.26 545.045L1203.12 520.192L1205.98 520.751Z" fill="white"/>
<path d="M1206.46 546.612L1209.85 527.925L1212.73 528.446L1209.33 547.134L1206.46 546.612ZM1211.88 525.075C1211.32 524.973 1210.87 524.695 1210.54 524.24C1210.21 523.787 1210.09 523.293 1210.19 522.757C1210.29 522.222 1210.57 521.8 1211.03 521.491C1211.51 521.183 1212.03 521.08 1212.59 521.182C1213.15 521.283 1213.59 521.561 1213.92 522.014C1214.25 522.469 1214.37 522.964 1214.28 523.499C1214.18 524.035 1213.89 524.456 1213.42 524.764C1212.95 525.073 1212.44 525.177 1211.88 525.075Z" fill="white"/>
<path d="M1221.03 556.726C1219.64 556.507 1218.47 556.14 1217.53 555.624C1216.58 555.117 1215.82 554.521 1215.24 553.838C1214.67 553.165 1214.24 552.471 1213.95 551.759L1216.5 550.507C1216.71 550.89 1216.98 551.332 1217.31 551.835C1217.64 552.345 1218.12 552.818 1218.76 553.252C1219.41 553.696 1220.3 554.007 1221.43 554.185C1222.95 554.423 1224.26 554.252 1225.36 553.674C1226.46 553.096 1227.13 552.025 1227.38 550.462L1227.97 546.65L1227.73 546.612C1227.46 546.921 1227.1 547.297 1226.63 547.74C1226.17 548.177 1225.54 548.534 1224.76 548.811C1223.98 549.081 1222.98 549.12 1221.76 548.929C1220.24 548.691 1218.94 548.119 1217.85 547.213C1216.76 546.308 1215.98 545.117 1215.49 543.639C1215.01 542.162 1214.93 540.446 1215.24 538.492C1215.54 536.57 1216.14 534.95 1217.04 533.631C1217.94 532.303 1219.05 531.344 1220.38 530.751C1221.71 530.15 1223.17 529.974 1224.75 530.222C1225.97 530.414 1226.9 530.77 1227.56 531.289C1228.22 531.802 1228.7 532.345 1229 532.918C1229.32 533.485 1229.55 533.947 1229.71 534.306L1230.01 534.352L1230.47 531.372L1233.26 531.809L1230.23 551.11C1229.97 552.722 1229.4 553.976 1228.51 554.87C1227.63 555.775 1226.53 556.366 1225.23 556.646C1223.93 556.934 1222.53 556.961 1221.03 556.726ZM1222.56 546.4C1223.71 546.582 1224.73 546.471 1225.61 546.067C1226.49 545.663 1227.22 544.996 1227.79 544.068C1228.36 543.14 1228.76 541.983 1228.97 540.599C1229.19 539.247 1229.17 538.022 1228.93 536.924C1228.68 535.826 1228.21 534.921 1227.5 534.209C1226.79 533.498 1225.85 533.05 1224.68 532.865C1223.46 532.674 1222.39 532.823 1221.48 533.314C1220.58 533.807 1219.84 534.542 1219.27 535.52C1218.71 536.5 1218.33 537.625 1218.13 538.896C1217.92 540.199 1217.94 541.383 1218.19 542.449C1218.45 543.507 1218.94 544.385 1219.66 545.082C1220.39 545.772 1221.35 546.211 1222.56 546.4Z" fill="white"/>
<path d="M1239.83 540.301L1238.45 551.642L1235.55 551.289L1238.61 526.151L1241.51 526.504L1240.38 535.734L1240.63 535.764C1241.19 534.844 1241.95 534.152 1242.9 533.687C1243.86 533.214 1245.08 533.068 1246.57 533.249C1247.85 533.405 1248.94 533.8 1249.85 534.433C1250.75 535.058 1251.4 535.931 1251.81 537.051C1252.22 538.165 1252.33 539.531 1252.13 541.152L1250.67 553.132L1247.77 552.779L1249.21 540.995C1249.39 539.498 1249.14 538.292 1248.47 537.379C1247.8 536.459 1246.78 535.916 1245.41 535.749C1244.46 535.634 1243.59 535.731 1242.79 536.04C1241.99 536.35 1241.33 536.863 1240.81 537.58C1240.29 538.297 1239.96 539.204 1239.83 540.301Z" fill="white"/>
<path d="M1265.87 535.478L1265.64 537.941L1255.84 537.025L1256.07 534.562L1265.87 535.478ZM1259.35 530.299L1262.26 530.57L1260.57 548.595C1260.5 549.415 1260.56 550.042 1260.76 550.475C1260.97 550.9 1261.25 551.2 1261.62 551.375C1261.99 551.542 1262.39 551.646 1262.82 551.686C1263.14 551.715 1263.4 551.724 1263.61 551.71C1263.82 551.688 1263.99 551.671 1264.11 551.657L1264.46 554.323C1264.26 554.378 1263.97 554.426 1263.61 554.467C1263.25 554.516 1262.8 554.516 1262.26 554.465C1261.44 554.388 1260.65 554.137 1259.9 553.71C1259.15 553.284 1258.55 552.686 1258.1 551.915C1257.66 551.146 1257.49 550.211 1257.6 549.111L1259.35 530.299Z" fill="white"/>
<path d="M1281.17 540.825L1278.51 541.386C1278.37 540.939 1278.16 540.498 1277.87 540.065C1277.58 539.624 1277.18 539.25 1276.66 538.941C1276.13 538.632 1275.45 538.449 1274.6 538.391C1273.44 538.312 1272.45 538.513 1271.64 538.994C1270.84 539.468 1270.41 540.112 1270.36 540.927C1270.31 541.65 1270.53 542.24 1271.03 542.695C1271.53 543.151 1272.33 543.557 1273.43 543.913L1276.19 544.797C1277.86 545.324 1279.08 546.039 1279.85 546.943C1280.62 547.839 1280.96 548.949 1280.87 550.273C1280.8 551.359 1280.42 552.308 1279.74 553.12C1279.06 553.933 1278.15 554.549 1277.01 554.966C1275.86 555.383 1274.56 555.542 1273.08 555.441C1271.15 555.309 1269.58 554.779 1268.37 553.854C1267.16 552.928 1266.44 551.648 1266.22 550.013L1269.03 549.511C1269.22 550.549 1269.67 551.348 1270.36 551.908C1271.07 552.469 1272.02 552.79 1273.21 552.872C1274.57 552.965 1275.66 552.751 1276.5 552.229C1277.35 551.701 1277.8 551.029 1277.85 550.215C1277.9 549.557 1277.71 548.99 1277.28 548.515C1276.85 548.031 1276.16 547.645 1275.22 547.358L1272.12 546.401C1270.41 545.871 1269.18 545.146 1268.42 544.227C1267.68 543.3 1267.35 542.183 1267.44 540.875C1267.51 539.806 1267.88 538.881 1268.53 538.1C1269.2 537.319 1270.07 536.73 1271.14 536.333C1272.23 535.936 1273.44 535.783 1274.77 535.874C1276.65 536.003 1278.09 536.515 1279.1 537.411C1280.12 538.307 1280.81 539.445 1281.17 540.825Z" fill="white"/>
<path d="M1289.89 530.589L1288.86 548.763L1285.99 548.639L1286.53 530.444L1289.89 530.589ZM1287.11 556.014C1286.5 555.988 1285.99 555.747 1285.57 555.292C1285.15 554.836 1284.95 554.304 1284.98 553.694C1285.01 553.085 1285.25 552.571 1285.7 552.154C1286.16 551.736 1286.69 551.541 1287.3 551.567C1287.91 551.593 1288.42 551.834 1288.84 552.29C1289.26 552.745 1289.45 553.278 1289.43 553.887C1289.41 554.291 1289.29 554.657 1289.07 554.986C1288.86 555.315 1288.58 555.575 1288.23 555.766C1287.89 555.949 1287.52 556.032 1287.11 556.014Z" fill="white"/>
<path d="M1304.48 531.111L1308.14 531.057L1317.06 551.949L1317.35 551.945L1325.65 530.8L1329.31 530.746L1329.68 556.068L1326.81 556.11L1326.53 536.871L1326.28 536.875L1318.65 556.229L1315.88 556.27L1307.69 537.148L1307.44 537.152L1307.72 556.39L1304.85 556.432L1304.48 531.111Z" fill="white"/>
<path d="M1343.43 555.634C1341.72 555.741 1340.19 555.428 1338.85 554.694C1337.51 553.96 1336.44 552.883 1335.62 551.464C1334.82 550.044 1334.35 548.355 1334.23 546.397C1334.1 544.422 1334.35 542.676 1334.98 541.159C1335.61 539.641 1336.54 538.435 1337.77 537.54C1339.02 536.644 1340.49 536.143 1342.2 536.036C1343.91 535.929 1345.44 536.243 1346.77 536.977C1348.11 537.71 1349.19 538.791 1350 540.219C1350.81 541.647 1351.28 543.348 1351.41 545.322C1351.53 547.28 1351.27 549.014 1350.64 550.524C1350.02 552.033 1349.09 553.236 1347.85 554.131C1346.61 555.026 1345.14 555.527 1343.43 555.634ZM1343.27 553.017C1344.57 552.936 1345.61 552.536 1346.41 551.817C1347.21 551.098 1347.78 550.183 1348.11 549.072C1348.45 547.961 1348.57 546.771 1348.49 545.504C1348.42 544.237 1348.14 543.069 1347.67 542C1347.2 540.931 1346.52 540.086 1345.64 539.464C1344.76 538.841 1343.67 538.571 1342.37 538.652C1341.07 538.734 1340.02 539.138 1339.22 539.865C1338.42 540.592 1337.86 541.516 1337.52 542.635C1337.19 543.755 1337.06 544.948 1337.14 546.215C1337.22 547.482 1337.5 548.646 1337.97 549.707C1338.44 550.767 1339.11 551.605 1339.99 552.219C1340.88 552.832 1341.97 553.099 1343.27 553.017Z" fill="white"/>
<path d="M1356.38 554.26L1354.57 535.354L1357.37 535.084L1357.65 537.939L1357.84 537.921C1358.1 536.952 1358.65 536.133 1359.5 535.464C1360.34 534.794 1361.33 534.405 1362.46 534.296C1362.68 534.276 1362.94 534.254 1363.26 534.232C1363.59 534.209 1363.83 534.198 1363.99 534.199L1364.28 537.153C1364.18 537.138 1363.95 537.122 1363.59 537.107C1363.24 537.083 1362.87 537.089 1362.49 537.126C1361.57 537.215 1360.77 537.486 1360.08 537.941C1359.4 538.387 1358.89 538.967 1358.53 539.68C1358.19 540.384 1358.06 541.163 1358.14 542.016L1359.29 553.98L1356.38 554.26Z" fill="white"/>
<path d="M1376.66 552.433C1374.85 552.669 1373.23 552.472 1371.81 551.842C1370.4 551.203 1369.24 550.206 1368.34 548.852C1367.45 547.488 1366.88 545.842 1366.63 543.913C1366.38 541.983 1366.51 540.237 1367.02 538.675C1367.54 537.102 1368.38 535.821 1369.53 534.831C1370.7 533.831 1372.14 533.22 1373.84 532.999C1374.82 532.872 1375.81 532.909 1376.81 533.112C1377.8 533.314 1378.74 533.732 1379.62 534.366C1380.5 534.991 1381.25 535.875 1381.88 537.016C1382.5 538.157 1382.92 539.606 1383.15 541.363L1383.31 542.59L1368.79 544.478L1368.47 541.977L1380.04 540.471C1379.91 539.408 1379.57 538.488 1379.04 537.709C1378.51 536.93 1377.83 536.349 1376.99 535.968C1376.16 535.586 1375.22 535.463 1374.17 535.599C1373.02 535.749 1372.06 536.165 1371.29 536.846C1370.53 537.519 1369.99 538.338 1369.66 539.304C1369.32 540.27 1369.23 541.272 1369.36 542.31L1369.58 543.978C1369.76 545.4 1370.16 546.574 1370.78 547.499C1371.41 548.415 1372.2 549.073 1373.15 549.473C1374.1 549.865 1375.16 549.985 1376.32 549.833C1377.09 549.734 1377.76 549.539 1378.34 549.246C1378.94 548.945 1379.43 548.548 1379.82 548.057C1380.21 547.557 1380.49 546.964 1380.65 546.278L1383.55 546.699C1383.38 547.685 1382.99 548.584 1382.39 549.393C1381.79 550.195 1381 550.862 1380.03 551.396C1379.06 551.921 1377.94 552.267 1376.66 552.433Z" fill="white"/>
<path d="M1399.56 555.821L1394.74 530.153L1397.52 529.634L1398.07 532.599L1398.41 532.535C1398.56 532.172 1398.78 531.704 1399.05 531.132C1399.34 530.55 1399.8 529.994 1400.43 529.465C1401.06 528.926 1401.99 528.543 1403.21 528.315C1404.78 528.02 1406.24 528.153 1407.58 528.714C1408.93 529.275 1410.08 530.214 1411.02 531.53C1411.96 532.846 1412.62 534.484 1412.98 536.445C1413.36 538.422 1413.34 540.199 1412.94 541.775C1412.54 543.343 1411.82 544.636 1410.77 545.654C1409.73 546.663 1408.43 547.313 1406.87 547.605C1405.68 547.83 1404.68 547.812 1403.88 547.55C1403.09 547.28 1402.44 546.926 1401.96 546.489C1401.47 546.043 1401.09 545.67 1400.82 545.369L1400.58 545.415L1402.43 555.283L1399.56 555.821ZM1399.31 538.958C1399.58 540.368 1400.02 541.573 1400.63 542.573C1401.25 543.565 1402.01 544.291 1402.92 544.749C1403.82 545.2 1404.85 545.317 1406 545.102C1407.2 544.877 1408.14 544.373 1408.83 543.591C1409.52 542.799 1409.96 541.826 1410.17 540.672C1410.38 539.509 1410.36 538.263 1410.11 536.934C1409.86 535.622 1409.44 534.477 1408.83 533.499C1408.24 532.513 1407.48 531.787 1406.55 531.323C1405.63 530.85 1404.56 530.727 1403.35 530.955C1402.18 531.174 1401.26 531.654 1400.57 532.394C1399.89 533.126 1399.44 534.057 1399.24 535.186C1399.03 536.307 1399.05 537.565 1399.31 538.958Z" fill="white"/>
<path d="M1419.03 544.726L1414.97 526.172L1417.82 525.548L1421.88 544.103L1419.03 544.726ZM1415.74 522.763C1415.19 522.884 1414.67 522.8 1414.18 522.509C1413.7 522.217 1413.41 521.805 1413.29 521.274C1413.18 520.742 1413.27 520.244 1413.59 519.779C1413.91 519.313 1414.34 519.019 1414.9 518.897C1415.45 518.775 1415.97 518.861 1416.45 519.153C1416.93 519.443 1417.23 519.854 1417.35 520.386C1417.47 520.917 1417.37 521.416 1417.05 521.883C1416.73 522.348 1416.3 522.641 1415.74 522.763Z" fill="white"/>
<path d="M1434.69 541.485C1432.97 541.917 1431.38 541.882 1429.93 541.378C1428.47 540.875 1427.23 539.991 1426.2 538.728C1425.17 537.464 1424.43 535.913 1423.97 534.074C1423.5 532.202 1423.43 530.465 1423.76 528.861C1424.1 527.248 1424.78 525.882 1425.82 524.764C1426.86 523.637 1428.22 522.865 1429.88 522.448C1431.18 522.124 1432.4 522.072 1433.56 522.292C1434.72 522.512 1435.74 522.97 1436.62 523.668C1437.5 524.365 1438.17 525.27 1438.61 526.382L1435.78 527.09C1435.36 526.304 1434.69 525.681 1433.79 525.219C1432.89 524.747 1431.81 524.667 1430.56 524.98C1429.46 525.256 1428.57 525.786 1427.88 526.569C1427.2 527.343 1426.75 528.308 1426.55 529.464C1426.35 530.609 1426.43 531.878 1426.78 533.269C1427.13 534.693 1427.67 535.876 1428.38 536.82C1429.1 537.762 1429.94 538.421 1430.91 538.799C1431.89 539.175 1432.94 539.222 1434.06 538.942C1434.79 538.758 1435.43 538.463 1435.97 538.057C1436.5 537.651 1436.92 537.156 1437.21 536.572C1437.51 535.989 1437.66 535.339 1437.67 534.623L1440.5 533.915C1440.61 535.042 1440.46 536.121 1440.05 537.151C1439.64 538.171 1438.98 539.065 1438.08 539.835C1437.18 540.595 1436.05 541.145 1434.69 541.485Z" fill="white"/>
<path d="M1449.02 517.549L1449.69 519.929L1440.22 522.602L1439.55 520.222L1449.02 517.549ZM1441.07 515.063L1443.88 514.271L1448.8 531.694C1449.02 532.487 1449.3 533.05 1449.65 533.381C1449.99 533.703 1450.37 533.88 1450.77 533.912C1451.18 533.934 1451.59 533.886 1452 533.77C1452.31 533.683 1452.56 533.595 1452.75 533.507C1452.94 533.412 1453.09 533.335 1453.2 533.278L1454.48 535.64C1454.31 535.765 1454.07 535.911 1453.75 536.079C1453.43 536.254 1453.01 536.416 1452.48 536.564C1451.69 536.788 1450.86 536.836 1450.01 536.71C1449.16 536.582 1448.38 536.239 1447.69 535.681C1447 535.122 1446.5 534.311 1446.2 533.248L1441.07 515.063Z" fill="white"/>
<path d="M1466.14 524.026L1462.78 513.315L1465.56 512.44L1471.26 530.558L1468.47 531.434L1467.51 528.367L1467.32 528.426C1467.18 529.48 1466.77 530.47 1466.08 531.396C1465.38 532.315 1464.35 532.99 1462.98 533.42C1461.85 533.776 1460.76 533.845 1459.73 533.626C1458.69 533.4 1457.76 532.863 1456.94 532.014C1456.12 531.158 1455.46 529.959 1454.98 528.418L1451.36 516.905L1454.14 516.03L1457.7 527.354C1458.12 528.675 1458.82 529.613 1459.8 530.167C1460.8 530.718 1461.87 530.812 1463.03 530.449C1463.72 530.231 1464.37 529.833 1464.97 529.254C1465.59 528.673 1466.02 527.94 1466.28 527.055C1466.54 526.168 1466.5 525.158 1466.14 524.026Z" fill="white"/>
<path d="M1476.53 528.752L1470.3 510.81L1472.96 509.885L1473.9 512.595L1474.09 512.53C1474.11 511.529 1474.45 510.603 1475.12 509.753C1475.78 508.902 1476.65 508.291 1477.73 507.918C1477.93 507.847 1478.18 507.763 1478.49 507.666C1478.8 507.568 1479.03 507.5 1479.19 507.462L1480.16 510.265C1480.06 510.274 1479.84 510.314 1479.48 510.383C1479.14 510.442 1478.78 510.535 1478.42 510.662C1477.54 510.965 1476.83 511.418 1476.27 512.022C1475.72 512.616 1475.35 513.301 1475.18 514.077C1475.01 514.843 1475.06 515.631 1475.34 516.441L1479.29 527.795L1476.53 528.752Z" fill="white"/>
<path d="M1495.8 522.179C1494.09 522.835 1492.48 523.025 1490.95 522.747C1489.42 522.459 1488.07 521.762 1486.87 520.658C1485.68 519.542 1484.74 518.077 1484.04 516.261C1483.34 514.445 1483.06 512.717 1483.19 511.078C1483.32 509.428 1483.84 507.985 1484.73 506.749C1485.63 505.503 1486.88 504.572 1488.48 503.957C1489.4 503.602 1490.37 503.405 1491.39 503.367C1492.41 503.329 1493.42 503.514 1494.43 503.922C1495.43 504.323 1496.37 505.005 1497.24 505.967C1498.11 506.93 1498.87 508.238 1499.5 509.892L1499.95 511.046L1486.28 516.3L1485.38 513.946L1496.27 509.757C1495.89 508.757 1495.35 507.941 1494.64 507.31C1493.95 506.676 1493.15 506.273 1492.24 506.1C1491.35 505.924 1490.4 506.025 1489.42 506.404C1488.34 506.821 1487.5 507.451 1486.91 508.294C1486.33 509.127 1486 510.052 1485.9 511.069C1485.81 512.085 1485.95 513.082 1486.32 514.06L1486.93 515.629C1487.44 516.968 1488.11 518.014 1488.93 518.768C1489.75 519.511 1490.67 519.965 1491.69 520.13C1492.7 520.287 1493.76 520.155 1494.86 519.732C1495.58 519.457 1496.19 519.108 1496.69 518.686C1497.19 518.254 1497.58 517.752 1497.84 517.182C1498.11 516.603 1498.23 515.962 1498.23 515.258L1501.14 514.985C1501.21 515.984 1501.05 516.948 1500.65 517.876C1500.26 518.797 1499.65 519.631 1498.83 520.378C1498.01 521.117 1497 521.717 1495.8 522.179Z" fill="white"/>
<path d="M1513.66 498.524L1511.53 500.227C1511.21 499.889 1510.82 499.593 1510.37 499.338C1509.91 499.073 1509.38 498.921 1508.78 498.882C1508.17 498.843 1507.48 498.989 1506.69 499.319C1505.62 499.771 1504.83 500.395 1504.33 501.19C1503.83 501.975 1503.74 502.743 1504.05 503.494C1504.34 504.163 1504.8 504.588 1505.45 504.77C1506.1 504.952 1507 504.954 1508.14 504.776L1511.01 504.316C1512.73 504.035 1514.14 504.124 1515.24 504.582C1516.33 505.032 1517.14 505.869 1517.66 507.091C1518.08 508.094 1518.17 509.112 1517.93 510.145C1517.69 511.176 1517.15 512.135 1516.32 513.024C1515.49 513.913 1514.39 514.644 1513.03 515.218C1511.25 515.972 1509.61 516.209 1508.11 515.928C1506.62 515.648 1505.4 514.829 1504.46 513.472L1506.74 511.756C1507.38 512.595 1508.14 513.108 1509.01 513.293C1509.9 513.475 1510.89 513.333 1511.99 512.868C1513.24 512.339 1514.12 511.653 1514.64 510.81C1515.15 509.957 1515.25 509.154 1514.93 508.402C1514.68 507.795 1514.25 507.376 1513.65 507.145C1513.05 506.907 1512.26 506.872 1511.3 507.039L1508.09 507.587C1506.33 507.885 1504.9 507.793 1503.82 507.314C1502.73 506.823 1501.93 505.974 1501.42 504.767C1501.01 503.78 1500.92 502.789 1501.15 501.796C1501.39 500.799 1501.9 499.88 1502.68 499.04C1503.47 498.197 1504.48 497.515 1505.71 496.995C1507.44 496.264 1508.96 496.069 1510.27 496.412C1511.59 496.751 1512.72 497.455 1513.66 498.524Z" fill="white"/>
<path d="M1536.39 504.294L1522.77 489.85L1525.52 488.487L1535.66 499.69L1535.83 499.603L1533.01 484.773L1535.8 483.389L1545.83 494.591L1546 494.504L1543.24 479.697L1545.99 478.334L1549.24 497.92L1546.67 499.195L1536.47 487.97L1536.2 488.102L1538.96 503.019L1536.39 504.294Z" fill="white"/>
<path d="M1557.84 493.403L1548.87 476.663L1551.44 475.284L1560.41 492.025L1557.84 493.403ZM1548.68 473.172C1548.18 473.441 1547.66 473.502 1547.11 473.355C1546.57 473.204 1546.17 472.889 1545.92 472.41C1545.66 471.93 1545.62 471.424 1545.79 470.892C1545.97 470.356 1546.31 469.953 1546.81 469.684C1547.31 469.416 1547.83 469.357 1548.37 469.507C1548.92 469.654 1549.32 469.967 1549.58 470.447C1549.83 470.926 1549.87 471.434 1549.69 471.97C1549.52 472.503 1549.18 472.903 1548.68 473.172Z" fill="white"/>
<path d="M1555.47 465.867L1567.74 488.02L1565.18 489.434L1552.91 467.281L1555.47 465.867Z" fill="white"/>
<path d="M1562.43 461.932L1575.01 483.913L1572.47 485.362L1559.9 463.381L1562.43 461.932Z" fill="white"/>
<path d="M1594.8 472.523C1593.29 473.465 1591.76 473.918 1590.23 473.884C1588.69 473.85 1587.24 473.39 1585.87 472.504C1584.5 471.617 1583.32 470.369 1582.32 468.76C1581.3 467.122 1580.7 465.49 1580.52 463.863C1580.34 462.224 1580.58 460.714 1581.22 459.331C1581.87 457.938 1582.92 456.788 1584.38 455.881C1585.51 455.176 1586.66 454.749 1587.83 454.603C1589 454.456 1590.11 454.58 1591.17 454.974C1592.22 455.368 1593.13 456.025 1593.89 456.945L1591.42 458.488C1590.77 457.871 1589.95 457.482 1588.94 457.32C1587.94 457.147 1586.89 457.401 1585.8 458.081C1584.84 458.682 1584.15 459.461 1583.73 460.418C1583.32 461.364 1583.2 462.418 1583.36 463.58C1583.52 464.731 1583.98 465.916 1584.74 467.133C1585.52 468.379 1586.39 469.341 1587.35 470.021C1588.33 470.696 1589.33 471.065 1590.37 471.127C1591.42 471.184 1592.43 470.908 1593.41 470.298C1594.06 469.897 1594.57 469.421 1594.96 468.871C1595.34 468.32 1595.58 467.721 1595.69 467.075C1595.79 466.428 1595.73 465.763 1595.52 465.08L1598 463.537C1598.45 464.576 1598.64 465.649 1598.56 466.756C1598.49 467.851 1598.14 468.904 1597.51 469.914C1596.89 470.913 1595.99 471.782 1594.8 472.523Z" fill="white"/>
<path d="M1611.39 461.82C1609.96 462.77 1608.48 463.263 1606.95 463.301C1605.43 463.333 1603.96 462.94 1602.54 462.12C1601.13 461.295 1599.88 460.066 1598.8 458.432C1597.7 456.785 1597.04 455.149 1596.82 453.523C1596.61 451.892 1596.81 450.381 1597.43 448.99C1598.06 447.593 1599.09 446.42 1600.51 445.471C1601.94 444.521 1603.42 444.03 1604.94 443.997C1606.47 443.96 1607.94 444.357 1609.35 445.188C1610.78 446.015 1612.03 447.252 1613.13 448.9C1614.22 450.533 1614.86 452.162 1615.07 453.785C1615.29 455.404 1615.08 456.912 1614.46 458.308C1613.84 459.7 1612.82 460.871 1611.39 461.82ZM1609.94 459.638C1611.02 458.916 1611.73 458.045 1612.06 457.023C1612.39 456.001 1612.42 454.926 1612.15 453.796C1611.89 452.666 1611.4 451.573 1610.7 450.516C1610 449.459 1609.17 448.586 1608.23 447.897C1607.29 447.207 1606.28 446.814 1605.2 446.717C1604.13 446.62 1603.05 446.932 1601.96 447.653C1600.88 448.375 1600.18 449.25 1599.85 450.278C1599.52 451.307 1599.5 452.389 1599.77 453.526C1600.04 454.662 1600.53 455.759 1601.23 456.816C1601.93 457.873 1602.75 458.743 1603.69 459.425C1604.63 460.108 1605.63 460.494 1606.7 460.584C1607.77 460.674 1608.85 460.359 1609.94 459.638Z" fill="white"/>
<path d="M1621.97 454.279L1610.85 438.888L1613.13 437.236L1614.87 439.641L1615.07 439.496C1614.8 438.443 1614.85 437.43 1615.24 436.459C1615.62 435.481 1616.31 434.63 1617.31 433.906C1618.33 433.171 1619.34 432.791 1620.35 432.764C1621.36 432.725 1622.35 432.979 1623.33 433.526L1623.49 433.41C1623.31 432.33 1623.44 431.271 1623.89 430.233C1624.34 429.189 1625.11 428.269 1626.21 427.472C1627.59 426.476 1629.02 426.093 1630.52 426.322C1632.02 426.545 1633.42 427.561 1634.73 429.371L1642.17 439.672L1639.81 441.382L1632.36 431.081C1631.54 429.946 1630.64 429.359 1629.67 429.32C1628.69 429.282 1627.79 429.567 1626.95 430.175C1625.86 430.958 1625.26 431.892 1625.14 432.976C1625.01 434.054 1625.31 435.091 1626.03 436.086L1633.28 446.106L1630.87 447.845L1623.25 437.304C1622.62 436.429 1621.82 435.929 1620.87 435.805C1619.91 435.675 1618.98 435.933 1618.09 436.581C1617.47 437.025 1617.02 437.604 1616.72 438.318C1616.43 439.027 1616.33 439.79 1616.42 440.608C1616.52 441.414 1616.84 442.195 1617.38 442.95L1624.34 452.569L1621.97 454.279Z" fill="white"/>
<path d="M1652.95 431.807C1651.51 432.93 1650.01 433.58 1648.47 433.757C1646.93 433.923 1645.43 433.65 1643.96 432.938C1642.5 432.215 1641.18 431.086 1639.98 429.55C1638.79 428.014 1638.02 426.443 1637.66 424.837C1637.31 423.219 1637.39 421.689 1637.89 420.247C1638.38 418.794 1639.31 417.541 1640.66 416.488C1641.45 415.881 1642.32 415.412 1643.28 415.08C1644.25 414.748 1645.27 414.632 1646.35 414.732C1647.42 414.825 1648.52 415.206 1649.63 415.874C1650.75 416.542 1651.85 417.576 1652.94 418.975L1653.7 419.951L1642.14 428.939L1640.59 426.947L1649.8 419.782C1649.15 418.936 1648.39 418.312 1647.54 417.912C1646.69 417.506 1645.81 417.352 1644.89 417.448C1643.98 417.54 1643.11 417.91 1642.27 418.558C1641.36 419.271 1640.74 420.116 1640.42 421.093C1640.11 422.058 1640.05 423.041 1640.26 424.042C1640.46 425.043 1640.88 425.956 1641.53 426.783L1642.56 428.11C1643.44 429.242 1644.38 430.05 1645.38 430.534C1646.39 431.006 1647.4 431.174 1648.42 431.037C1649.44 430.894 1650.41 430.461 1651.34 429.737C1651.95 429.267 1652.43 428.757 1652.79 428.208C1653.14 427.648 1653.37 427.056 1653.46 426.433C1653.54 425.803 1653.48 425.152 1653.27 424.48L1655.98 423.374C1656.33 424.311 1656.46 425.281 1656.35 426.283C1656.24 427.28 1655.9 428.254 1655.33 429.205C1654.76 430.15 1653.97 431.017 1652.95 431.807Z" fill="white"/>
<path d="M1669.86 417.733L1657.75 403.108L1659.99 401.246L1672.11 415.871L1669.86 417.733ZM1656.87 399.724C1656.43 400.087 1655.93 400.251 1655.37 400.216C1654.81 400.175 1654.35 399.945 1654.01 399.526C1653.66 399.107 1653.52 398.62 1653.58 398.064C1653.65 397.503 1653.91 397.04 1654.34 396.677C1654.78 396.315 1655.28 396.153 1655.84 396.194C1656.4 396.229 1656.86 396.456 1657.21 396.875C1657.55 397.294 1657.69 397.784 1657.62 398.346C1657.56 398.902 1657.31 399.361 1656.87 399.724Z" fill="white"/>
<path d="M1671.04 401.851L1678.49 410.515L1676.28 412.417L1663.89 398.015L1666.03 396.177L1667.97 398.428L1668.15 398.266C1667.86 397.245 1667.87 396.216 1668.18 395.181C1668.48 394.14 1669.17 393.152 1670.26 392.217C1671.23 391.379 1672.26 390.845 1673.33 390.616C1674.4 390.381 1675.49 390.493 1676.59 390.95C1677.68 391.4 1678.76 392.238 1679.81 393.464L1687.68 402.615L1685.46 404.517L1677.73 395.516C1676.75 394.385 1675.7 393.756 1674.57 393.63C1673.44 393.497 1672.35 393.872 1671.33 394.753C1670.62 395.36 1670.12 396.056 1669.83 396.841C1669.54 397.62 1669.49 398.44 1669.68 399.302C1669.87 400.164 1670.32 401.013 1671.04 401.851Z" fill="white"/>
<path d="M1692.23 372.885L1693.9 374.707L1686.65 381.363L1684.98 379.542L1692.23 372.885ZM1684.02 374.25L1686.17 372.276L1698.41 385.611C1698.97 386.218 1699.47 386.593 1699.93 386.735C1700.38 386.865 1700.8 386.854 1701.17 386.7C1701.55 386.535 1701.89 386.308 1702.21 386.018C1702.44 385.801 1702.63 385.61 1702.76 385.447C1702.88 385.277 1702.98 385.141 1703.05 385.039L1705.26 386.569C1705.17 386.757 1705.02 386.999 1704.81 387.293C1704.6 387.593 1704.3 387.928 1703.9 388.296C1703.29 388.853 1702.57 389.269 1701.75 389.543C1700.93 389.812 1700.09 389.854 1699.22 389.671C1698.35 389.482 1697.54 388.981 1696.8 388.168L1684.02 374.25Z" fill="white"/>
<path d="M1701.56 374.523L1709.43 382.804L1707.32 384.814L1689.87 366.461L1691.99 364.45L1698.39 371.189L1698.57 371.019C1698.22 370.001 1698.17 368.976 1698.41 367.945C1698.66 366.902 1699.33 365.866 1700.41 364.838C1701.35 363.946 1702.35 363.353 1703.41 363.059C1704.47 362.76 1705.56 362.811 1706.68 363.212C1707.8 363.602 1708.92 364.388 1710.04 365.571L1718.36 374.318L1716.25 376.329L1708.07 367.725C1707.03 366.632 1705.94 366.056 1704.8 365.999C1703.67 365.929 1702.6 366.369 1701.6 367.317C1700.91 367.976 1700.43 368.713 1700.16 369.528C1699.89 370.338 1699.87 371.174 1700.09 372.037C1700.31 372.894 1700.8 373.722 1701.56 374.523Z" fill="white"/>
<path d="M1728.05 365.31C1726.75 366.601 1725.35 367.428 1723.84 367.792C1722.33 368.143 1720.8 368.055 1719.27 367.526C1717.73 366.986 1716.27 366.026 1714.9 364.647C1713.53 363.268 1712.57 361.802 1712.03 360.25C1711.48 358.687 1711.37 357.159 1711.69 355.668C1712.01 354.165 1712.78 352.809 1713.99 351.599C1714.69 350.902 1715.5 350.33 1716.42 349.883C1717.33 349.437 1718.33 349.197 1719.42 349.165C1720.5 349.127 1721.63 349.372 1722.82 349.9C1724.01 350.427 1725.22 351.319 1726.47 352.576L1727.35 353.452L1716.97 363.778L1715.19 361.99L1723.46 353.757C1722.71 352.997 1721.88 352.471 1720.98 352.177C1720.09 351.877 1719.2 351.831 1718.3 352.039C1717.41 352.241 1716.59 352.714 1715.84 353.458C1715.02 354.278 1714.51 355.191 1714.31 356.199C1714.12 357.196 1714.18 358.178 1714.5 359.146C1714.83 360.115 1715.36 360.97 1716.1 361.712L1717.28 362.905C1718.3 363.921 1719.33 364.609 1720.38 364.967C1721.44 365.314 1722.46 365.357 1723.46 365.098C1724.45 364.832 1725.37 364.283 1726.2 363.452C1726.74 362.911 1727.16 362.347 1727.45 361.759C1727.73 361.159 1727.88 360.545 1727.9 359.915C1727.91 359.28 1727.76 358.641 1727.47 357.999L1730.03 356.572C1730.5 357.459 1730.73 358.407 1730.75 359.416C1730.76 360.418 1730.54 361.426 1730.09 362.439C1729.64 363.446 1728.96 364.404 1728.05 365.31Z" fill="white"/>
<path d="M1735.25 330.104L1737.04 331.808L1729.99 339.227L1728.19 337.523L1735.25 330.104ZM1744.07 348.389L1728.41 333.494C1727.62 332.745 1727.14 331.935 1726.96 331.064C1726.79 330.194 1726.85 329.338 1727.15 328.497C1727.45 327.656 1727.92 326.906 1728.54 326.249C1729.03 325.729 1729.48 325.345 1729.88 325.096C1730.27 324.847 1730.58 324.676 1730.81 324.583L1732.06 326.93C1731.92 327.004 1731.73 327.111 1731.5 327.251C1731.27 327.385 1731.01 327.604 1730.72 327.909C1730.05 328.608 1729.75 329.28 1729.8 329.926C1729.87 330.566 1730.24 331.209 1730.92 331.857L1746.08 346.274L1744.07 348.389Z" fill="white"/>
<path d="M1754.41 325.942L1746.15 318.337L1748.13 316.19L1762.1 329.054L1760.12 331.201L1757.76 329.024L1757.62 329.169C1758.03 330.15 1758.17 331.215 1758.03 332.364C1757.88 333.508 1757.32 334.607 1756.35 335.662C1755.55 336.536 1754.64 337.136 1753.63 337.464C1752.62 337.786 1751.55 337.783 1750.41 337.457C1749.27 337.125 1748.11 336.412 1746.92 335.317L1738.04 327.144L1740.02 324.997L1748.75 333.036C1749.77 333.974 1750.85 334.438 1751.98 334.426C1753.11 334.408 1754.09 333.953 1754.91 333.062C1755.41 332.528 1755.77 331.859 1756 331.056C1756.24 330.247 1756.26 329.395 1756.04 328.5C1755.83 327.598 1755.28 326.746 1754.41 325.942Z" fill="white"/>
<path d="M1757.17 306.045L1759.02 307.69L1752.47 315.037L1750.62 313.392L1757.17 306.045ZM1749.14 308.222L1751.08 306.044L1764.59 318.09C1765.21 318.639 1765.75 318.961 1766.21 319.057C1766.68 319.141 1767.09 319.088 1767.45 318.899C1767.81 318.697 1768.13 318.437 1768.41 318.117C1768.63 317.877 1768.79 317.669 1768.9 317.493C1769.01 317.312 1769.09 317.167 1769.16 317.058L1771.51 318.359C1771.43 318.556 1771.3 318.812 1771.12 319.126C1770.95 319.445 1770.68 319.808 1770.32 320.214C1769.77 320.829 1769.1 321.315 1768.31 321.669C1767.52 322.018 1766.69 322.145 1765.8 322.05C1764.92 321.949 1764.06 321.53 1763.24 320.795L1749.14 308.222Z" fill="white"/>
<path d="M1775.33 302.269L1766.83 294.93L1768.74 292.721L1783.12 305.137L1781.21 307.346L1778.77 305.244L1778.65 305.394C1779.08 306.361 1779.25 307.421 1779.15 308.574C1779.04 309.722 1778.52 310.838 1777.58 311.924C1776.8 312.822 1775.92 313.451 1774.92 313.81C1773.92 314.164 1772.84 314.196 1771.7 313.905C1770.55 313.609 1769.37 312.933 1768.14 311.877L1759.01 303.988L1760.92 301.779L1769.9 309.539C1770.95 310.445 1772.04 310.873 1773.17 310.826C1774.3 310.772 1775.27 310.287 1776.06 309.37C1776.53 308.821 1776.88 308.141 1777.09 307.331C1777.3 306.515 1777.29 305.662 1777.04 304.775C1776.8 303.88 1776.23 303.045 1775.33 302.269Z" fill="white"/>
<path d="M1786.76 300.833L1772.2 288.639L1774.01 286.477L1776.21 288.319L1776.33 288.167C1775.84 287.299 1775.65 286.329 1775.79 285.258C1775.92 284.187 1776.35 283.215 1777.08 282.343C1777.22 282.179 1777.4 281.976 1777.61 281.735C1777.82 281.494 1777.99 281.315 1778.11 281.199L1780.38 283.104C1780.3 283.164 1780.12 283.314 1779.86 283.554C1779.59 283.783 1779.33 284.046 1779.09 284.343C1778.49 285.05 1778.11 285.807 1777.94 286.612C1777.77 287.405 1777.81 288.18 1778.06 288.936C1778.31 289.681 1778.76 290.329 1779.42 290.879L1788.63 298.595L1786.76 300.833Z" fill="white"/>
<path d="M1800.12 285.336C1798.96 286.753 1797.65 287.721 1796.18 288.238C1794.72 288.744 1793.19 288.814 1791.61 288.447C1790.02 288.068 1788.48 287.264 1786.97 286.034C1785.46 284.804 1784.36 283.445 1783.66 281.957C1782.96 280.458 1782.69 278.951 1782.85 277.434C1783.01 275.906 1783.63 274.478 1784.72 273.15C1785.34 272.383 1786.09 271.731 1786.95 271.192C1787.82 270.653 1788.79 270.312 1789.86 270.168C1790.93 270.019 1792.09 270.145 1793.32 270.548C1794.56 270.95 1795.86 271.711 1797.23 272.832L1798.19 273.614L1788.94 284.956L1786.98 283.361L1794.36 274.318C1793.53 273.64 1792.66 273.202 1791.73 273.002C1790.82 272.796 1789.92 272.843 1789.05 273.142C1788.18 273.435 1787.42 273.99 1786.75 274.807C1786.01 275.708 1785.6 276.669 1785.51 277.692C1785.42 278.703 1785.59 279.674 1786.01 280.603C1786.43 281.533 1787.05 282.329 1787.86 282.991L1789.16 284.054C1790.27 284.961 1791.37 285.539 1792.46 285.786C1793.54 286.022 1794.56 285.959 1795.53 285.598C1796.49 285.231 1797.34 284.591 1798.09 283.678C1798.57 283.084 1798.93 282.48 1799.15 281.865C1799.37 281.239 1799.46 280.613 1799.41 279.985C1799.35 279.352 1799.14 278.732 1798.79 278.123L1801.19 276.439C1801.74 277.274 1802.07 278.192 1802.19 279.193C1802.31 280.19 1802.19 281.215 1801.85 282.269C1801.51 283.317 1800.93 284.339 1800.12 285.336Z" fill="white"/>
<path d="M1815.04 266.324C1814.66 266.805 1814.17 267.083 1813.56 267.159C1812.94 267.235 1812.4 267.085 1811.92 266.71C1811.43 266.335 1811.16 265.841 1811.08 265.227C1811 264.614 1811.15 264.067 1811.53 263.586C1811.9 263.105 1812.4 262.827 1813.01 262.751C1813.63 262.675 1814.17 262.825 1814.65 263.2C1814.97 263.448 1815.2 263.758 1815.34 264.128C1815.49 264.492 1815.54 264.87 1815.49 265.264C1815.44 265.645 1815.29 265.999 1815.04 266.324ZM1803.92 257.654C1803.55 258.135 1803.05 258.414 1802.44 258.49C1801.83 258.566 1801.28 258.416 1800.8 258.041C1800.32 257.666 1800.04 257.171 1799.96 256.558C1799.89 255.945 1800.04 255.398 1800.41 254.917C1800.79 254.436 1801.28 254.157 1801.9 254.082C1802.51 254.006 1803.06 254.155 1803.54 254.531C1803.86 254.779 1804.09 255.088 1804.23 255.459C1804.37 255.823 1804.42 256.201 1804.37 256.594C1804.33 256.976 1804.18 257.329 1803.92 257.654Z" fill="white"/>
<path d="M1812.02 252.472C1814.48 254.379 1816.5 256.457 1818.08 258.706C1819.65 260.944 1820.84 263.334 1821.66 265.874L1820.09 267.908C1819.81 266.939 1819.35 265.887 1818.72 264.751C1818.09 263.614 1817.34 262.458 1816.46 261.284C1815.57 260.105 1814.59 258.966 1813.52 257.869C1812.45 256.759 1811.33 255.756 1810.17 254.858C1808.62 253.657 1806.93 252.589 1805.1 251.653C1803.27 250.717 1801.48 249.973 1799.71 249.423C1797.95 248.872 1796.4 248.576 1795.05 248.536L1796.63 246.502C1799.29 246.656 1801.91 247.216 1804.47 248.181C1807.04 249.135 1809.55 250.565 1812.02 252.472Z" fill="white"/>
</svg>
