<svg width="1920" height="1091" viewBox="0 0 1920 1091" fill="none" xmlns="http://www.w3.org/2000/svg">
<mask id="mask0_33_2936" style="mask-type:alpha" maskUnits="userSpaceOnUse" x="0" y="0" width="1920" height="1091">
<rect width="1920" height="1091" fill="#FF0000"/>
</mask>
<g mask="url(#mask0_33_2936)">
<path d="M1773.1 614.365C1863.95 482.726 1953.84 483.318 2042.74 616.141C2143.59 784.991 2233.48 785.583 2312.38 617.917" stroke="#005AA4" strokeWidth="60"/>
<path d="M-478 598.1C-100.778 309.967 276.444 309.967 653.667 598.1C1101.62 994.283 1478.84 994.283 1785.33 598.1" stroke="#005AA4" strokeWidth="60"/>
<path d="M56.8557 395.489L53.6418 395.57L62.3029 370.021L65.4674 369.942L75.3978 395.025L72.1838 395.105L64.0845 373.984L63.8867 373.989L56.8557 395.489ZM57.7945 385.571L70.7492 385.246L70.8174 387.965L57.8627 388.29L57.7945 385.571Z" fill="white"/>
<path d="M102.257 402.41L102.441 392.372L102.194 392.367C101.973 392.709 101.66 393.14 101.255 393.661C100.85 394.173 100.277 394.628 99.5358 395.027C98.7948 395.417 97.8144 395.601 96.5946 395.579C95.0121 395.549 93.6224 395.124 92.4255 394.302C91.2287 393.472 90.3018 392.318 89.6447 390.838C88.9877 389.35 88.6776 387.6 88.7146 385.589C88.7512 383.595 89.1251 381.87 89.8361 380.416C90.5471 378.961 91.5199 377.845 92.7544 377.068C93.989 376.291 95.4057 375.917 97.0047 375.947C98.241 375.969 99.2139 376.193 99.9234 376.619C100.641 377.036 101.185 377.508 101.555 378.034C101.933 378.552 102.226 378.978 102.434 379.311L102.78 379.318L102.836 376.301L105.654 376.353L105.175 402.464L102.257 402.41ZM97.0383 392.965C98.2087 392.986 99.2034 392.7 100.022 392.104C100.841 391.501 101.471 390.659 101.911 389.579C102.352 388.491 102.585 387.229 102.612 385.795C102.638 384.378 102.454 383.133 102.062 382.063C101.669 380.984 101.075 380.14 100.278 379.532C99.4813 378.915 98.4896 378.596 97.3027 378.574C96.0664 378.551 95.0303 378.85 94.1944 379.469C93.3669 380.081 92.7372 380.922 92.3053 381.995C91.8818 383.059 91.6577 384.258 91.6332 385.594C91.6084 386.945 91.7919 388.177 92.1837 389.289C92.5839 390.393 93.186 391.278 93.99 391.944C94.8024 392.602 95.8185 392.942 97.0383 392.965Z" fill="white"/>
<path d="M123.204 388.341L123.723 377.126L126.638 377.261L125.76 396.233L122.844 396.098L122.993 392.887L122.796 392.878C122.306 393.82 121.577 394.608 120.607 395.239C119.637 395.863 118.436 396.142 117.003 396.075C115.817 396.02 114.775 395.712 113.877 395.151C112.979 394.581 112.291 393.757 111.813 392.678C111.335 391.592 111.133 390.241 111.208 388.627L111.766 376.572L114.682 376.707L114.132 388.565C114.068 389.948 114.404 391.07 115.14 391.929C115.884 392.789 116.862 393.246 118.072 393.302C118.797 393.336 119.542 393.185 120.309 392.849C121.084 392.514 121.744 391.975 122.29 391.233C122.844 390.491 123.149 389.527 123.204 388.341Z" fill="white"/>
<path d="M131.566 396.627L132.856 377.677L135.767 377.876L134.477 396.825L131.566 396.627ZM134.551 374.62C133.984 374.581 133.507 374.355 133.122 373.94C132.746 373.526 132.576 373.048 132.613 372.505C132.65 371.962 132.883 371.511 133.312 371.152C133.75 370.794 134.252 370.634 134.82 370.672C135.387 370.711 135.859 370.937 136.236 371.351C136.621 371.766 136.795 372.244 136.758 372.787C136.721 373.33 136.484 373.781 136.046 374.139C135.617 374.498 135.119 374.659 134.551 374.62Z" fill="white"/>
<path d="M147.705 398.249C145.931 398.095 144.44 397.544 143.231 396.595C142.023 395.646 141.137 394.407 140.575 392.877C140.013 391.347 139.813 389.637 139.977 387.748C140.144 385.827 140.644 384.161 141.478 382.753C142.321 381.336 143.415 380.269 144.759 379.55C146.113 378.823 147.644 378.534 149.353 378.682C150.683 378.797 151.861 379.148 152.886 379.733C153.91 380.318 154.725 381.084 155.33 382.03C155.935 382.976 156.268 384.048 156.33 385.245L153.422 384.993C153.275 384.111 152.849 383.304 152.143 382.573C151.446 381.834 150.456 381.409 149.175 381.298C148.042 381.2 147.023 381.409 146.117 381.926C145.221 382.436 144.488 383.204 143.919 384.23C143.359 385.249 143.017 386.473 142.893 387.902C142.766 389.364 142.886 390.657 143.252 391.781C143.626 392.905 144.21 393.804 145.004 394.477C145.806 395.151 146.782 395.537 147.932 395.637C148.687 395.703 149.384 395.631 150.023 395.421C150.662 395.212 151.216 394.879 151.686 394.424C152.156 393.968 152.511 393.403 152.751 392.729L155.659 392.981C155.397 394.084 154.904 395.054 154.177 395.893C153.46 396.725 152.548 397.357 151.443 397.791C150.347 398.217 149.101 398.37 147.705 398.249Z" fill="white"/>
<path d="M163.439 392.405L163.791 388.811L164.381 388.877L173.577 381.393L177.166 381.794L167.373 389.709L167.128 389.681L163.439 392.405ZM159.967 398.985L162.777 373.817L165.678 374.141L162.867 399.308L159.967 398.985ZM171.961 400.324L165.631 390.161L167.92 388.376L175.648 400.735L171.961 400.324Z" fill="white"/>
<path d="M195.265 411.085C193.872 410.873 192.701 410.511 191.753 410C190.804 409.497 190.04 408.905 189.46 408.225C188.886 407.554 188.454 406.863 188.162 406.151L190.706 404.888C190.914 405.27 191.185 405.711 191.517 406.212C191.848 406.721 192.335 407.191 192.978 407.623C193.628 408.064 194.52 408.37 195.653 408.543C197.168 408.773 198.475 408.597 199.573 408.014C200.671 407.43 201.339 406.356 201.577 404.792L202.158 400.978L201.913 400.941C201.649 401.251 201.283 401.628 200.815 402.074C200.356 402.513 199.734 402.873 198.95 403.153C198.174 403.427 197.175 403.471 195.953 403.285C194.437 403.054 193.131 402.488 192.034 401.588C190.945 400.688 190.154 399.5 189.662 398.025C189.177 396.55 189.084 394.835 189.382 392.879C189.675 390.956 190.268 389.332 191.162 388.009C192.056 386.678 193.166 385.713 194.492 385.114C195.818 384.507 197.272 384.324 198.853 384.565C200.075 384.751 201.014 385.102 201.669 385.619C202.334 386.129 202.818 386.669 203.123 387.241C203.438 387.806 203.676 388.268 203.838 388.626L204.131 388.67L204.586 385.688L207.373 386.112L204.432 405.427C204.186 407.04 203.62 408.296 202.733 409.195C201.852 410.104 200.761 410.7 199.458 410.986C198.163 411.28 196.765 411.314 195.265 411.085ZM196.738 400.753C197.896 400.929 198.914 400.813 199.793 400.405C200.673 399.997 201.396 399.327 201.963 398.396C202.53 397.466 202.919 396.307 203.13 394.922C203.336 393.569 203.314 392.344 203.064 391.247C202.814 390.15 202.334 389.247 201.625 388.539C200.916 387.831 199.974 387.387 198.801 387.208C197.578 387.022 196.512 387.177 195.603 387.672C194.702 388.169 193.968 388.908 193.402 389.889C192.844 390.871 192.468 391.998 192.274 393.269C192.076 394.573 192.104 395.757 192.359 396.822C192.623 397.879 193.115 398.755 193.835 399.448C194.565 400.134 195.532 400.569 196.738 400.753Z" fill="white"/>
<path d="M217.117 381.367L212.848 406.329L209.971 405.837L214.24 380.875L217.117 381.367Z" fill="white"/>
<path d="M218.318 407.301L221.747 388.62L224.618 389.147L221.188 407.828L218.318 407.301ZM223.778 385.774C223.219 385.672 222.771 385.392 222.436 384.937C222.109 384.483 221.994 383.988 222.092 383.453C222.191 382.918 222.473 382.497 222.941 382.188C223.416 381.882 223.933 381.78 224.493 381.882C225.052 381.985 225.496 382.264 225.823 382.718C226.158 383.173 226.277 383.668 226.179 384.203C226.08 384.739 225.794 385.159 225.318 385.466C224.851 385.774 224.338 385.877 223.778 385.774Z" fill="white"/>
<path d="M226.723 408.775L230.604 390.183L233.363 390.759L232.757 393.664L232.999 393.715C233.594 392.803 234.38 392.163 235.358 391.794C236.338 391.418 237.433 391.356 238.643 391.608C239.87 391.864 240.832 392.356 241.531 393.083C242.24 393.803 242.72 394.708 242.973 395.796L243.167 395.837C243.843 394.976 244.717 394.362 245.787 393.996C246.859 393.622 248.06 393.574 249.392 393.852C251.054 394.198 252.305 395.003 253.145 396.264C253.987 397.518 254.179 399.238 253.723 401.425L251.126 413.868L248.269 413.272L250.866 400.829C251.152 399.457 250.982 398.398 250.354 397.652C249.727 396.907 248.905 396.428 247.888 396.216C246.581 395.943 245.485 396.127 244.602 396.768C243.72 397.401 243.154 398.318 242.903 399.521L240.377 411.625L237.472 411.019L240.13 398.285C240.35 397.228 240.185 396.305 239.634 395.516C239.084 394.719 238.269 394.208 237.187 393.982C236.445 393.827 235.71 393.88 234.982 394.141C234.262 394.403 233.631 394.844 233.089 395.464C232.557 396.077 232.195 396.839 232.005 397.751L229.58 409.372L226.723 408.775Z" fill="white"/>
<path d="M254.985 422.117L261.161 396.743L263.9 397.409L263.186 400.341L263.523 400.423C263.809 400.153 264.197 399.815 264.686 399.408C265.185 398.995 265.831 398.677 266.624 398.454C267.426 398.225 268.428 398.257 269.629 398.549C271.183 398.927 272.458 399.649 273.455 400.715C274.451 401.78 275.108 403.107 275.426 404.694C275.744 406.282 275.667 408.045 275.195 409.983C274.719 411.937 273.975 413.55 272.961 414.822C271.949 416.086 270.759 416.968 269.39 417.466C268.024 417.956 266.572 418.014 265.034 417.64C263.848 417.352 262.947 416.924 262.33 416.358C261.714 415.784 261.276 415.198 261.014 414.6C260.754 413.994 260.561 413.497 260.435 413.11L260.195 413.052L257.82 422.807L254.985 422.117ZM261.702 406.648C261.363 408.042 261.268 409.321 261.417 410.486C261.569 411.642 261.963 412.617 262.602 413.409C263.243 414.192 264.132 414.723 265.269 414.999C266.455 415.288 267.52 415.216 268.465 414.784C269.42 414.347 270.227 413.644 270.887 412.676C271.557 411.702 272.051 410.558 272.371 409.245C272.687 407.947 272.771 406.729 272.624 405.59C272.487 404.446 272.092 403.471 271.439 402.668C270.797 401.858 269.874 401.307 268.673 401.014C267.52 400.734 266.479 400.79 265.552 401.184C264.627 401.57 263.837 402.234 263.183 403.178C262.531 404.114 262.038 405.271 261.702 406.648Z" fill="white"/>
<path d="M294.301 409.605L291.577 409.642C291.531 409.177 291.406 408.704 291.203 408.222C291.009 407.735 290.685 407.289 290.23 406.885C289.775 406.482 289.138 406.169 288.318 405.949C287.195 405.647 286.191 405.655 285.303 405.971C284.426 406.282 283.881 406.831 283.67 407.619C283.481 408.32 283.587 408.942 283.988 409.485C284.388 410.027 285.093 410.58 286.103 411.141L288.646 412.542C290.179 413.38 291.238 414.318 291.822 415.354C292.407 416.382 292.528 417.537 292.184 418.819C291.901 419.869 291.346 420.728 290.519 421.393C289.699 422.06 288.688 422.489 287.485 422.678C286.282 422.866 284.968 422.769 283.543 422.386C281.672 421.884 280.233 421.062 279.225 419.92C278.217 418.779 277.759 417.384 277.852 415.736L280.707 415.786C280.696 416.842 280.979 417.711 281.555 418.395C282.139 419.081 283.008 419.58 284.162 419.89C285.476 420.243 286.594 420.244 287.516 419.895C288.448 419.539 289.02 418.967 289.232 418.179C289.403 417.542 289.323 416.949 288.993 416.399C288.665 415.841 288.068 415.331 287.202 414.868L284.337 413.33C282.765 412.481 281.696 411.532 281.133 410.484C280.579 409.431 280.473 408.271 280.813 407.005C281.091 405.97 281.627 405.133 282.423 404.493C283.226 403.855 284.194 403.445 285.327 403.263C286.468 403.083 287.683 403.166 288.973 403.513C290.788 404.001 292.106 404.782 292.927 405.856C293.756 406.932 294.214 408.182 294.301 409.605Z" fill="white"/>
<path d="M302.831 427.822C301.076 427.305 299.675 426.472 298.63 425.323C297.595 424.168 296.939 422.789 296.663 421.187C296.396 419.579 296.538 417.842 297.087 415.976C297.636 414.109 298.46 412.564 299.558 411.341C300.667 410.112 301.952 409.278 303.413 408.84C304.884 408.396 306.442 408.416 308.087 408.9C309.036 409.179 309.927 409.613 310.759 410.201C311.591 410.79 312.282 411.551 312.832 412.486C313.384 413.414 313.715 414.525 313.824 415.82C313.933 417.115 313.737 418.613 313.237 420.313L312.888 421.499L298.842 417.369L299.554 414.948L310.753 418.242C311.055 417.214 311.119 416.236 310.945 415.308C310.779 414.383 310.389 413.577 309.775 412.889C309.169 412.204 308.36 411.712 307.347 411.415C306.232 411.087 305.186 411.08 304.209 411.394C303.241 411.702 302.411 412.231 301.718 412.981C301.025 413.731 300.531 414.608 300.235 415.613L299.761 417.226C299.356 418.602 299.25 419.839 299.443 420.935C299.647 422.026 300.102 422.946 300.81 423.696C301.52 424.437 302.44 424.974 303.571 425.307C304.306 425.523 305.001 425.616 305.655 425.584C306.318 425.548 306.929 425.384 307.488 425.092C308.048 424.793 308.54 424.362 308.964 423.799L311.445 425.354C310.891 426.188 310.175 426.854 309.298 427.352C308.423 427.842 307.435 428.136 306.332 428.233C305.232 428.322 304.065 428.185 302.831 427.822Z" fill="white"/>
<path d="M331.464 436.812C329.837 436.271 328.538 435.41 327.567 434.227C326.604 433.047 326.01 431.646 325.784 430.025C325.566 428.406 325.767 426.666 326.386 424.804C327.01 422.927 327.895 421.401 329.041 420.227C330.195 419.056 331.511 418.285 332.988 417.917C334.474 417.55 336.03 417.638 337.657 418.179C339.285 418.719 340.58 419.58 341.542 420.76C342.513 421.943 343.106 423.347 343.321 424.974C343.544 426.603 343.344 428.356 342.72 430.234C342.101 432.095 341.216 433.608 340.064 434.772C338.921 435.938 337.607 436.704 336.121 437.07C334.643 437.439 333.091 437.353 331.464 436.812ZM332.29 434.325C333.526 434.735 334.649 434.757 335.657 434.388C336.666 434.02 337.533 433.383 338.26 432.478C338.986 431.573 339.55 430.518 339.95 429.313C340.351 428.108 340.532 426.922 340.495 425.754C340.457 424.586 340.146 423.549 339.562 422.642C338.977 421.736 338.067 421.077 336.831 420.666C335.595 420.255 334.471 420.238 333.46 420.614C332.449 420.991 331.579 421.635 330.849 422.548C330.12 423.461 329.556 424.52 329.155 425.725C328.755 426.929 328.574 428.112 328.615 429.272C328.655 430.432 328.968 431.461 329.556 432.36C330.143 433.259 331.055 433.914 332.29 434.325Z" fill="white"/>
<path d="M358.473 425.65L357.646 427.981L347.998 424.557L348.825 422.226L358.473 425.65ZM345.363 441.151L352.591 420.781C352.955 419.755 353.499 418.986 354.223 418.474C354.948 417.961 355.755 417.67 356.646 417.601C357.536 417.532 358.408 417.649 359.263 417.953C359.939 418.193 360.471 418.443 360.86 418.703C361.249 418.963 361.531 419.177 361.708 419.345L360.072 421.441C359.949 421.345 359.775 421.218 359.551 421.06C359.335 420.904 359.029 420.756 358.633 420.616C357.724 420.293 356.986 420.289 356.42 420.604C355.861 420.922 355.424 421.524 355.11 422.409L348.113 442.127L345.363 441.151Z" fill="white"/>
<path d="M365.661 448.491L372.616 430.818L375.24 431.85L374.153 434.611L374.383 434.702C375.123 433.903 376.005 433.405 377.031 433.206C378.061 433 379.15 433.123 380.301 433.576C381.467 434.035 382.333 434.681 382.9 435.516C383.477 436.345 383.798 437.318 383.864 438.433L384.048 438.506C384.86 437.771 385.824 437.313 386.941 437.133C388.06 436.944 389.253 437.099 390.519 437.597C392.099 438.219 393.197 439.222 393.812 440.607C394.431 441.985 394.331 443.713 393.513 445.792L388.858 457.62L386.142 456.551L390.797 444.723C391.31 443.419 391.32 442.347 390.827 441.506C390.334 440.665 389.605 440.055 388.638 439.674C387.395 439.185 386.285 439.182 385.306 439.665C384.331 440.141 383.618 440.95 383.168 442.093L378.64 453.599L375.879 452.512L380.642 440.408C381.038 439.403 381.03 438.465 380.62 437.595C380.212 436.717 379.494 436.076 378.467 435.671C377.761 435.393 377.027 435.322 376.266 435.456C375.512 435.594 374.815 435.922 374.177 436.441C373.549 436.956 373.065 437.647 372.724 438.514L368.376 449.56L365.661 448.491Z" fill="white"/>
<path d="M392.546 466.941C392.091 466.748 391.702 466.537 391.378 466.309C391.05 466.089 390.833 465.916 390.725 465.789L392.416 463.714C392.997 464.159 393.548 464.465 394.068 464.633C394.588 464.8 395.127 464.766 395.685 464.528C396.247 464.302 396.88 463.815 397.584 463.066L398.666 461.914L399.687 441.597L402.599 442.838L401.491 458.817L401.673 458.894L412.428 447.025L415.341 448.265L399.394 465.128C398.676 465.888 397.945 466.459 397.2 466.84C396.451 467.23 395.69 467.429 394.915 467.44C394.147 467.453 393.358 467.287 392.546 466.941Z" fill="white"/>
<path d="M433.801 449.599L423.306 472.646L420.65 471.437L431.145 448.39L433.801 449.599Z" fill="white"/>
<path d="M428.336 474.958L436.348 457.737L438.994 458.968L430.982 476.189L428.336 474.958ZM439.028 455.493C438.513 455.253 438.15 454.87 437.939 454.345C437.737 453.823 437.75 453.316 437.979 452.823C438.209 452.329 438.589 451.992 439.118 451.811C439.655 451.634 440.182 451.665 440.698 451.905C441.213 452.145 441.572 452.526 441.775 453.048C441.986 453.573 441.976 454.082 441.746 454.575C441.517 455.069 441.134 455.404 440.597 455.581C440.067 455.762 439.544 455.733 439.028 455.493Z" fill="white"/>
<path d="M451.832 465.059L450.765 467.29L441.529 462.871L442.596 460.641L451.832 465.059ZM437.167 479.097L446.494 459.599C446.963 458.617 447.585 457.91 448.359 457.476C449.133 457.042 449.967 456.838 450.86 456.862C451.752 456.887 452.608 457.096 453.426 457.487C454.073 457.796 454.576 458.101 454.935 458.401C455.294 458.701 455.553 458.943 455.711 459.128L453.864 461.041C453.751 460.932 453.592 460.788 453.386 460.607C453.188 460.43 452.899 460.25 452.52 460.069C451.649 459.653 450.916 459.572 450.32 459.825C449.73 460.083 449.233 460.635 448.828 461.483L439.799 480.357L437.167 479.097Z" fill="white"/>
<path d="M453.762 487.611C452.124 486.795 450.891 485.73 450.063 484.415C449.247 483.097 448.843 481.624 448.851 479.999C448.871 478.369 449.314 476.684 450.182 474.942C451.049 473.201 452.131 471.824 453.427 470.812C454.735 469.796 456.146 469.201 457.661 469.025C459.187 468.846 460.717 469.139 462.252 469.903C463.137 470.344 463.938 470.927 464.654 471.653C465.371 472.378 465.917 473.249 466.295 474.266C466.676 475.275 466.807 476.427 466.687 477.721C466.568 479.016 466.113 480.456 465.322 482.042L464.771 483.149L451.666 476.621L452.791 474.363L463.239 479.568C463.717 478.609 463.952 477.657 463.943 476.713C463.942 475.773 463.699 474.911 463.215 474.127C462.738 473.346 462.027 472.72 461.083 472.25C460.042 471.731 459.014 471.541 457.996 471.679C456.99 471.813 456.08 472.189 455.266 472.806C454.452 473.423 453.812 474.2 453.345 475.137L452.595 476.642C451.956 477.926 451.635 479.124 451.633 480.238C451.642 481.347 451.929 482.333 452.495 483.195C453.064 484.049 453.876 484.739 454.931 485.265C455.617 485.607 456.285 485.82 456.934 485.904C457.594 485.984 458.224 485.929 458.825 485.74C459.429 485.544 459.989 485.206 460.504 484.726L462.675 486.691C461.983 487.415 461.161 487.945 460.211 488.282C459.264 488.612 458.239 488.727 457.137 488.629C456.038 488.524 454.913 488.185 453.762 487.611Z" fill="white"/>
<path d="M480.038 472.1L471.488 488.17L468.938 486.857L477.047 470.56L480.038 472.1ZM466.863 494.022C466.321 493.743 465.955 493.31 465.767 492.721C465.578 492.133 465.623 491.567 465.903 491.025C466.182 490.482 466.616 490.117 467.204 489.929C467.792 489.74 468.358 489.785 468.9 490.064C469.443 490.344 469.808 490.777 469.997 491.366C470.185 491.954 470.14 492.52 469.861 493.062C469.676 493.421 469.414 493.704 469.076 493.91C468.746 494.12 468.383 494.239 467.988 494.268C467.605 494.293 467.23 494.211 466.863 494.022Z" fill="white"/>
<path d="M483.037 502.256L495.206 480.048L497.895 481.521L492.476 491.411L504.318 497.9L509.737 488.01L512.426 489.484L500.257 511.692L497.567 510.218L503.01 500.285L491.169 493.797L485.726 503.73L483.037 502.256Z" fill="white"/>
<path d="M511.935 518.829C510.448 517.975 509.347 516.871 508.632 515.519C507.924 514.17 507.621 512.679 507.723 511.045C507.832 509.416 508.376 507.751 509.354 506.05C510.34 504.334 511.511 503.016 512.868 502.094C514.232 501.176 515.675 500.684 517.197 500.617C518.726 500.554 520.233 500.95 521.72 501.805C523.207 502.659 524.304 503.761 525.012 505.109C525.728 506.462 526.029 507.956 525.915 509.593C525.809 511.234 525.262 512.912 524.277 514.627C523.299 516.328 522.13 517.634 520.77 518.545C519.417 519.459 517.976 519.948 516.447 520.011C514.925 520.077 513.421 519.683 511.935 518.829ZM513.241 516.556C514.37 517.205 515.466 517.45 516.528 517.29C517.589 517.13 518.566 516.679 519.459 515.937C520.351 515.195 521.114 514.274 521.746 513.173C522.379 512.072 522.794 510.946 522.99 509.794C523.186 508.642 523.088 507.564 522.696 506.559C522.304 505.554 521.543 504.727 520.414 504.078C519.284 503.429 518.187 503.188 517.121 503.355C516.055 503.522 515.074 503.98 514.177 504.729C513.281 505.478 512.516 506.403 511.884 507.504C511.251 508.605 510.839 509.727 510.647 510.872C510.455 512.017 510.557 513.088 510.953 514.086C511.349 515.084 512.112 515.907 513.241 516.556Z" fill="white"/>
<path d="M546.051 516.459L530.272 529.15L527.725 527.626L531.451 507.722L534.167 509.347L530.895 525.027L531.064 525.129L543.335 514.833L546.051 516.459Z" fill="white"/>
<path d="M545.766 539.077C544.212 538.11 543.085 536.933 542.385 535.546C541.696 534.157 541.432 532.653 541.594 531.035C541.767 529.415 542.367 527.778 543.395 526.127C544.423 524.475 545.629 523.206 547.015 522.321C548.412 521.432 549.873 520.972 551.398 520.94C552.934 520.906 554.43 521.341 555.886 522.247C556.726 522.769 557.468 523.425 558.113 524.215C558.758 525.004 559.22 525.923 559.5 526.971C559.785 528.012 559.806 529.171 559.565 530.448C559.324 531.725 558.736 533.116 557.799 534.621L557.146 535.671L544.715 527.938L546.047 525.796L555.959 531.962C556.525 531.052 556.848 530.127 556.928 529.186C557.015 528.25 556.855 527.369 556.447 526.542C556.046 525.72 555.397 525.03 554.501 524.473C553.514 523.859 552.508 523.573 551.482 523.614C550.468 523.653 549.526 523.941 548.658 524.478C547.79 525.016 547.079 525.729 546.526 526.618L545.638 528.046C544.88 529.264 544.448 530.427 544.341 531.535C544.245 532.641 544.438 533.649 544.92 534.56C545.406 535.465 546.15 536.228 547.151 536.851C547.801 537.256 548.446 537.531 549.084 537.675C549.734 537.817 550.366 537.822 550.982 537.691C551.602 537.552 552.192 537.268 552.75 536.839L554.726 539C553.969 539.655 553.101 540.106 552.123 540.352C551.149 540.591 550.118 540.609 549.03 540.408C547.946 540.2 546.858 539.756 545.766 539.077Z" fill="white"/>
<path d="M556.483 545.338L566.711 529.334L569.087 530.853L567.542 533.27L567.708 533.377C568.506 532.771 569.445 532.466 570.524 532.461C571.603 532.456 572.622 532.76 573.581 533.373C573.761 533.488 573.985 533.636 574.251 533.816C574.518 533.996 574.716 534.138 574.846 534.24L573.248 536.741C573.178 536.667 573.007 536.513 572.735 536.281C572.474 536.046 572.181 535.824 571.854 535.615C571.076 535.118 570.277 534.837 569.457 534.773C568.649 534.706 567.885 534.845 567.167 535.188C566.46 535.528 565.876 536.06 565.414 536.782L558.942 546.91L556.483 545.338Z" fill="white"/>
<path d="M582.005 562.474C580.58 561.519 579.557 560.343 578.936 558.945C578.322 557.551 578.122 556.043 578.336 554.42C578.557 552.801 579.214 551.177 580.306 549.547C581.407 547.904 582.666 546.669 584.083 545.842C585.507 545.02 586.98 544.628 588.503 544.665C590.032 544.708 591.509 545.206 592.934 546.16C594.358 547.115 595.378 548.289 595.992 549.683C596.613 551.081 596.811 552.593 596.585 554.218C596.367 555.847 595.707 557.484 594.605 559.128C593.513 560.758 592.258 561.98 590.838 562.796C589.426 563.615 587.955 564.004 586.425 563.962C584.903 563.924 583.429 563.428 582.005 562.474ZM583.464 560.296C584.546 561.021 585.622 561.34 586.692 561.253C587.762 561.166 588.768 560.783 589.709 560.104C590.651 559.425 591.474 558.558 592.181 557.503C592.888 556.449 593.378 555.354 593.653 554.218C593.928 553.082 593.904 552 593.581 550.97C593.259 549.94 592.557 549.063 591.475 548.338C590.393 547.613 589.314 547.298 588.24 547.391C587.165 547.485 586.154 547.875 585.209 548.561C584.263 549.247 583.437 550.117 582.73 551.172C582.023 552.226 581.535 553.318 581.265 554.447C580.995 555.576 581.023 556.652 581.35 557.674C581.677 558.697 582.382 559.571 583.464 560.296Z" fill="white"/>
<path d="M616.172 562.35L599.599 573.986L597.158 572.3L602.172 552.681L604.777 554.48L600.49 569.913L600.652 570.025L613.567 560.551L616.172 562.35Z" fill="white"/>
<path d="M614.406 584.887C612.914 583.826 611.862 582.582 611.249 581.154C610.647 579.725 610.477 578.207 610.739 576.603C611.012 574.996 611.712 573.4 612.84 571.815C613.968 570.23 615.25 569.038 616.688 568.24C618.138 567.44 619.624 567.071 621.148 567.133C622.683 567.194 624.149 567.721 625.547 568.715C626.353 569.288 627.053 569.989 627.648 570.817C628.243 571.644 628.647 572.59 628.862 573.653C629.082 574.71 629.032 575.868 628.712 577.128C628.392 578.387 627.719 579.739 626.692 581.184L625.975 582.191L614.045 573.704L615.507 571.649L625.019 578.415C625.64 577.542 626.02 576.639 626.158 575.705C626.303 574.776 626.197 573.887 625.841 573.036C625.491 572.191 624.887 571.462 624.027 570.851C623.08 570.177 622.093 569.829 621.067 569.807C620.052 569.783 619.095 570.013 618.195 570.495C617.295 570.978 616.541 571.646 615.935 572.499L614.96 573.869C614.128 575.038 613.625 576.172 613.45 577.272C613.286 578.369 613.416 579.388 613.841 580.327C614.27 581.26 614.965 582.067 615.925 582.751C616.55 583.195 617.176 583.509 617.804 583.693C618.444 583.875 619.075 583.919 619.698 583.826C620.325 583.726 620.931 583.479 621.515 583.085L623.353 585.364C622.557 585.971 621.663 586.368 620.672 586.552C619.685 586.731 618.655 586.686 617.581 586.417C616.512 586.143 615.454 585.632 614.406 584.887Z" fill="white"/>
<path d="M624.713 591.816L635.934 576.492L638.209 578.158L636.514 580.472L636.674 580.589C637.508 580.036 638.464 579.791 639.542 579.854C640.619 579.918 641.617 580.286 642.534 580.958C642.707 581.084 642.921 581.246 643.176 581.443C643.43 581.639 643.619 581.793 643.742 581.904L641.989 584.298C641.924 584.219 641.763 584.056 641.506 583.806C641.261 583.555 640.982 583.315 640.669 583.086C639.924 582.541 639.145 582.21 638.331 582.094C637.528 581.976 636.757 582.066 636.019 582.363C635.292 582.658 634.675 583.151 634.168 583.843L627.067 593.54L624.713 591.816Z" fill="white"/>
<path d="M649.32 610.623C647.863 609.516 646.851 608.238 646.283 606.792C645.728 605.344 645.606 603.822 645.918 602.227C646.242 600.63 646.992 599.057 648.17 597.508C649.347 595.96 650.667 594.809 652.13 594.057C653.604 593.303 655.101 592.982 656.622 593.093C658.155 593.202 659.604 593.775 660.969 594.813C661.756 595.411 662.434 596.134 663.002 596.98C663.57 597.826 663.945 598.784 664.126 599.854C664.312 600.917 664.225 602.073 663.865 603.322C663.506 604.571 662.79 605.901 661.717 607.312L660.969 608.296L649.315 599.435L650.841 597.427L660.133 604.492C660.782 603.639 661.19 602.748 661.358 601.819C661.532 600.895 661.455 600.003 661.126 599.142C660.803 598.286 660.222 597.538 659.382 596.899C658.457 596.196 657.481 595.817 656.456 595.762C655.443 595.706 654.479 595.905 653.564 596.359C652.649 596.813 651.875 597.457 651.241 598.29L650.223 599.629C649.355 600.771 648.816 601.888 648.606 602.982C648.408 604.073 648.506 605.095 648.9 606.048C649.299 606.993 649.968 607.823 650.907 608.536C651.517 609 652.133 609.334 652.755 609.538C653.388 609.74 654.018 609.804 654.643 609.731C655.273 609.651 655.887 609.423 656.483 609.048L658.248 611.384C657.433 611.966 656.527 612.333 655.53 612.487C654.538 612.634 653.51 612.556 652.445 612.254C651.385 611.945 650.344 611.402 649.32 610.623Z" fill="white"/>
<path d="M663.398 622.756C662.49 621.966 661.815 621.078 661.373 620.092C660.936 619.1 660.783 618.088 660.916 617.056C661.054 616.018 661.529 615.033 662.341 614.1C663.055 613.279 663.796 612.754 664.563 612.526C665.335 612.291 666.119 612.263 666.915 612.441C667.71 612.62 668.496 612.921 669.274 613.346C670.063 613.771 670.828 614.229 671.569 614.721C672.537 615.366 673.316 615.896 673.906 616.311C674.508 616.725 674.995 616.969 675.368 617.042C675.748 617.121 676.091 616.983 676.4 616.628L676.465 616.554C677.266 615.633 677.636 614.699 677.576 613.751C677.522 612.808 676.988 611.896 675.974 611.014C674.923 610.099 673.899 609.612 672.902 609.553C671.904 609.494 671.057 609.62 670.36 609.932L668.92 607.367C670.05 606.821 671.137 606.576 672.181 606.632C673.237 606.687 674.219 606.94 675.127 607.391C676.046 607.842 676.866 608.381 677.588 609.008C678.048 609.409 678.528 609.925 679.028 610.556C679.539 611.186 679.928 611.913 680.196 612.736C680.47 613.564 680.498 614.48 680.282 615.482C680.065 616.485 679.462 617.555 678.472 618.693L670.258 628.134L668.057 626.219L669.745 624.278L669.633 624.181C669.213 624.362 668.675 624.478 668.018 624.53C667.361 624.581 666.636 624.48 665.841 624.225C665.046 623.971 664.232 623.481 663.398 622.756ZM665.455 621.071C666.326 621.828 667.208 622.296 668.103 622.473C669.004 622.656 669.842 622.609 670.617 622.333C671.399 622.063 672.05 621.629 672.569 621.032L674.322 619.017C674.131 619.047 673.837 618.972 673.439 618.789C673.052 618.605 672.624 618.369 672.154 618.081C671.695 617.791 671.252 617.504 670.823 617.218C670.405 616.931 670.065 616.701 669.802 616.526C669.165 616.103 668.524 615.759 667.881 615.494C667.249 615.228 666.637 615.128 666.045 615.192C665.465 615.256 664.932 615.568 664.445 616.127C663.78 616.892 663.559 617.717 663.784 618.601C664.021 619.485 664.578 620.308 665.455 621.071Z" fill="white"/>
<path d="M679.843 636.873C678.489 635.717 677.596 634.401 677.164 632.927C676.732 631.452 676.732 629.929 677.163 628.357C677.595 626.785 678.426 625.279 679.657 623.837C680.91 622.37 682.285 621.305 683.782 620.644C685.291 619.981 686.802 619.748 688.314 619.944C689.838 620.14 691.252 620.795 692.556 621.908C693.572 622.775 694.326 623.745 694.82 624.817C695.314 625.889 695.532 626.986 695.474 628.107C695.416 629.228 695.065 630.294 694.419 631.304L692.2 629.409C692.593 628.606 692.715 627.702 692.565 626.696C692.427 625.69 691.87 624.769 690.892 623.934C690.026 623.195 689.075 622.773 688.038 622.668C687.012 622.561 685.969 622.76 684.91 623.265C683.862 623.768 682.872 624.566 681.941 625.656C680.988 626.772 680.334 627.894 679.978 629.021C679.629 630.154 679.582 631.225 679.837 632.234C680.098 633.248 680.667 634.13 681.545 634.879C682.122 635.372 682.731 635.718 683.372 635.919C684.014 636.12 684.658 636.172 685.305 636.074C685.953 635.976 686.57 635.723 687.158 635.314L689.377 637.209C688.523 637.955 687.557 638.458 686.479 638.718C685.411 638.977 684.302 638.963 683.151 638.673C682.011 638.383 680.909 637.783 679.843 636.873Z" fill="white"/>
<path d="M698.881 637.516L691.56 646.288L689.319 644.418L705.545 624.976L707.786 626.845L701.828 633.985L702.018 634.143C702.988 633.675 704 633.505 705.053 633.632C706.118 633.759 707.223 634.3 708.369 635.256C709.362 636.085 710.066 637.011 710.48 638.033C710.9 639.048 710.974 640.136 710.704 641.296C710.446 642.455 709.794 643.66 708.748 644.914L701.016 654.179L698.775 652.31L706.381 643.196C707.348 642.038 707.794 640.891 707.721 639.756C707.66 638.621 707.101 637.612 706.044 636.73C705.309 636.117 704.522 635.723 703.681 635.547C702.846 635.376 702.013 635.449 701.181 635.764C700.355 636.084 699.588 636.668 698.881 637.516Z" fill="white"/>
<path d="M708.183 669.307L724.605 649.001L726.798 650.774L724.9 653.12L725.169 653.338C725.543 653.216 726.039 653.076 726.655 652.917C727.283 652.757 728.002 652.745 728.814 652.882C729.637 653.018 730.53 653.474 731.491 654.252C732.735 655.258 733.579 656.455 734.025 657.844C734.471 659.233 734.498 660.713 734.108 662.284C733.717 663.855 732.894 665.416 731.64 666.968C730.375 668.531 729.013 669.672 727.553 670.389C726.098 671.1 724.646 671.388 723.195 671.254C721.75 671.114 720.412 670.546 719.182 669.551C718.233 668.784 717.601 668.012 717.284 667.237C716.973 666.455 716.827 665.738 716.846 665.085C716.87 664.426 716.907 663.895 716.958 663.491L716.766 663.335L710.452 671.142L708.183 669.307ZM720.864 658.189C719.962 659.305 719.33 660.421 718.967 661.537C718.61 662.648 718.551 663.698 718.79 664.686C719.035 665.669 719.612 666.528 720.523 667.264C721.471 668.031 722.465 668.421 723.504 668.435C724.554 668.447 725.585 668.156 726.594 667.563C727.616 666.968 728.552 666.145 729.402 665.094C730.242 664.056 730.838 662.99 731.192 661.898C731.557 660.804 731.616 659.755 731.369 658.749C731.133 657.742 730.535 656.85 729.573 656.073C728.65 655.326 727.686 654.933 726.679 654.893C725.678 654.846 724.68 655.11 723.685 655.684C722.696 656.252 721.756 657.087 720.864 658.189Z" fill="white"/>
<path d="M729.247 677.118L741.073 662.257L743.357 664.074L731.53 678.936L729.247 677.118ZM744.205 660.704C743.76 660.35 743.497 659.893 743.416 659.333C743.341 658.778 743.473 658.288 743.812 657.862C744.151 657.436 744.599 657.198 745.156 657.146C745.72 657.1 746.224 657.253 746.669 657.608C747.114 657.962 747.374 658.416 747.449 658.971C747.53 659.531 747.402 660.024 747.063 660.449C746.724 660.875 746.273 661.111 745.709 661.158C745.152 661.209 744.651 661.058 744.205 660.704Z" fill="white"/>
<path d="M741.636 687.398C740.234 686.301 739.286 685.024 738.792 683.57C738.297 682.115 738.232 680.593 738.597 679.004C738.961 677.416 739.728 675.875 740.896 674.382C742.085 672.863 743.414 671.741 744.882 671.016C746.361 670.29 747.86 669.993 749.38 670.125C750.911 670.255 752.351 670.849 753.701 671.906C754.753 672.729 755.548 673.666 756.087 674.716C756.626 675.766 756.89 676.852 756.88 677.975C756.87 679.098 756.564 680.177 755.963 681.214L753.665 679.415C754.023 678.596 754.106 677.688 753.914 676.689C753.733 675.689 753.137 674.793 752.124 674.001C751.229 673.299 750.26 672.918 749.219 672.857C748.19 672.795 747.157 673.038 746.12 673.587C745.094 674.135 744.139 674.973 743.255 676.103C742.351 677.258 741.745 678.407 741.438 679.548C741.137 680.694 741.135 681.766 741.433 682.763C741.737 683.766 742.343 684.623 743.252 685.334C743.849 685.802 744.473 686.122 745.122 686.295C745.772 686.469 746.417 686.493 747.06 686.368C747.702 686.242 748.308 685.963 748.878 685.53L751.176 687.328C750.355 688.11 749.411 688.653 748.344 688.959C747.289 689.264 746.181 689.296 745.018 689.056C743.867 688.815 742.74 688.262 741.636 687.398Z" fill="white"/>
<path d="M769.558 684.466L768.053 686.429L760.242 680.441L761.746 678.478L769.558 684.466ZM766.792 676.612L769.108 678.387L758.094 692.754C757.592 693.408 757.311 693.972 757.25 694.444C757.2 694.915 757.284 695.322 757.499 695.664C757.726 696.004 758.01 696.305 758.35 696.566C758.606 696.761 758.825 696.909 759.009 697.008C759.197 697.1 759.348 697.175 759.461 697.23L758.337 699.672C758.135 699.61 757.871 699.501 757.545 699.344C757.213 699.194 756.831 698.954 756.4 698.622C755.745 698.121 755.212 697.489 754.8 696.726C754.394 695.968 754.206 695.143 754.235 694.252C754.27 693.365 754.624 692.483 755.296 691.607L766.792 676.612Z" fill="white"/>
<path d="M774.691 702.417L781.449 693.451L783.779 695.207L772.348 710.375L770.017 708.618L771.952 706.051L771.794 705.932C770.858 706.434 769.812 706.672 768.654 706.647C767.502 706.614 766.353 706.166 765.208 705.303C764.26 704.589 763.573 703.746 763.149 702.776C762.729 701.799 762.626 700.73 762.84 699.57C763.058 698.403 763.654 697.175 764.626 695.884L771.89 686.247L774.22 688.003L767.076 697.483C766.242 698.589 765.887 699.704 766.009 700.829C766.139 701.958 766.687 702.888 767.655 703.617C768.234 704.054 768.935 704.35 769.757 704.505C770.586 704.665 771.436 704.593 772.305 704.288C773.181 703.989 773.977 703.365 774.691 702.417Z" fill="white"/>
<path d="M776.91 713.732L788.182 698.446L790.452 700.119L788.749 702.428L788.908 702.545C789.745 701.994 790.701 701.752 791.779 701.82C792.856 701.887 793.852 702.258 794.768 702.933C794.94 703.06 795.153 703.223 795.407 703.42C795.661 703.617 795.849 703.772 795.972 703.883L794.211 706.271C794.146 706.193 793.986 706.028 793.73 705.778C793.485 705.526 793.207 705.285 792.895 705.055C792.152 704.507 791.374 704.174 790.56 704.055C789.758 703.935 788.987 704.022 788.247 704.316C787.519 704.609 786.901 705.101 786.392 705.791L779.259 715.464L776.91 713.732Z" fill="white"/>
<path d="M793.21 726.111C791.726 725.04 790.682 723.789 790.078 722.358C789.485 720.924 789.325 719.406 789.596 717.803C789.88 716.198 790.59 714.607 791.728 713.029C792.866 711.451 794.156 710.268 795.599 709.479C797.054 708.688 798.543 708.329 800.066 708.401C801.601 708.471 803.064 709.007 804.454 710.01C805.257 710.589 805.953 711.294 806.542 712.125C807.132 712.957 807.53 713.905 807.738 714.97C807.951 716.028 807.894 717.186 807.566 718.443C807.238 719.701 806.556 721.049 805.519 722.486L804.796 723.489L792.921 714.926L794.397 712.88L803.865 719.707C804.491 718.838 804.877 717.937 805.021 717.005C805.172 716.077 805.072 715.186 804.721 714.334C804.377 713.486 803.777 712.754 802.921 712.137C801.978 711.457 800.994 711.102 799.968 711.074C798.953 711.043 797.994 711.267 797.091 711.744C796.188 712.221 795.431 712.884 794.818 713.733L793.835 715.097C792.996 716.26 792.485 717.391 792.303 718.49C792.132 719.586 792.256 720.605 792.674 721.547C793.098 722.483 793.787 723.295 794.743 723.984C795.365 724.433 795.99 724.751 796.616 724.939C797.255 725.125 797.886 725.173 798.509 725.084C799.137 724.988 799.744 724.745 800.33 724.355L802.154 726.645C801.354 727.248 800.458 727.638 799.465 727.816C798.478 727.988 797.448 727.937 796.376 727.662C795.308 727.38 794.253 726.863 793.21 726.111Z" fill="white"/>
<path d="M829.067 727.655L827.655 729.686L819.573 724.068L820.984 722.037L829.067 727.655ZM825.937 719.938L828.333 721.604L818.002 736.469C817.531 737.145 817.276 737.721 817.237 738.196C817.21 738.669 817.312 739.071 817.543 739.403C817.786 739.732 818.084 740.019 818.436 740.264C818.7 740.447 818.926 740.584 819.114 740.675C819.306 740.759 819.461 740.826 819.576 740.876L818.568 743.367C818.363 743.315 818.094 743.219 817.76 743.077C817.422 742.943 817.03 742.72 816.583 742.41C815.906 741.939 815.344 741.332 814.896 740.59C814.456 739.852 814.229 739.037 814.216 738.145C814.211 737.257 814.523 736.36 815.154 735.453L825.937 719.938Z" fill="white"/>
<path d="M826.625 749.448C825.206 748.485 824.19 747.303 823.578 745.9C822.972 744.503 822.781 742.994 823.005 741.372C823.235 739.755 823.902 738.135 825.004 736.512C826.115 734.875 827.381 733.647 828.803 732.829C830.232 732.015 831.708 731.632 833.23 731.679C834.759 731.731 836.233 732.238 837.652 733.201C839.071 734.164 840.083 735.344 840.689 736.741C841.301 738.143 841.49 739.656 841.255 741.28C841.026 742.908 840.356 744.541 839.245 746.178C838.144 747.801 836.88 749.016 835.456 749.823C834.039 750.634 832.565 751.014 831.036 750.963C829.514 750.916 828.043 750.411 826.625 749.448ZM828.097 747.279C829.174 748.01 830.249 748.336 831.319 748.256C832.39 748.175 833.398 747.799 834.343 747.125C835.289 746.452 836.118 745.59 836.831 744.539C837.544 743.489 838.041 742.397 838.322 741.263C838.604 740.129 838.587 739.046 838.271 738.014C837.954 736.983 837.258 736.101 836.18 735.37C835.102 734.638 834.026 734.316 832.95 734.403C831.875 734.49 830.862 734.874 829.912 735.554C828.962 736.235 828.131 737.1 827.418 738.151C826.705 739.201 826.21 740.29 825.933 741.417C825.657 742.544 825.678 743.62 825.999 744.645C826.32 745.669 827.019 746.547 828.097 747.279Z" fill="white"/>
<path d="M865.168 756.717L862.563 755.918C862.662 755.462 862.688 754.973 862.641 754.452C862.606 753.929 862.434 753.406 862.125 752.882C861.815 752.358 861.304 751.866 860.591 751.405C859.614 750.775 858.655 750.474 857.714 750.504C856.784 750.531 856.097 750.887 855.654 751.573C855.261 752.182 855.171 752.807 855.386 753.446C855.601 754.086 856.104 754.827 856.893 755.671L858.886 757.782C860.089 759.05 860.809 760.266 861.048 761.431C861.291 762.589 861.053 763.726 860.332 764.841C859.742 765.755 858.951 766.402 857.96 766.782C856.975 767.167 855.881 767.265 854.678 767.076C853.475 766.888 852.254 766.393 851.014 765.593C849.387 764.542 848.268 763.319 847.658 761.923C847.048 760.528 847.039 759.06 847.632 757.52L850.334 758.441C850.001 759.443 850.004 760.357 850.343 761.185C850.689 762.017 851.364 762.757 852.368 763.406C853.511 764.144 854.574 764.487 855.559 764.436C856.555 764.383 857.275 764.014 857.718 763.328C858.075 762.774 858.181 762.185 858.035 761.561C857.893 760.929 857.481 760.261 856.799 759.555L854.542 757.214C853.305 755.924 852.578 754.694 852.362 753.524C852.158 752.352 852.411 751.215 853.122 750.114C853.704 749.214 854.471 748.581 855.424 748.215C856.383 747.854 857.431 747.76 858.565 747.933C859.706 748.111 860.838 748.562 861.959 749.287C863.538 750.306 864.554 751.453 865.007 752.727C865.467 754.006 865.52 755.336 865.168 756.717Z" fill="white"/>
<path d="M867.787 776.253C866.236 775.282 865.112 774.101 864.416 772.712C863.732 771.32 863.473 769.816 863.639 768.199C863.817 766.579 864.423 764.944 865.455 763.296C866.488 761.647 867.699 760.382 869.087 759.501C870.487 758.617 871.949 758.161 873.474 758.134C875.01 758.104 876.505 758.544 877.958 759.454C878.796 759.979 879.537 760.637 880.179 761.429C880.821 762.22 881.281 763.14 881.558 764.189C881.839 765.231 881.857 766.39 881.612 767.666C881.367 768.943 880.775 770.332 879.834 771.834L879.178 772.882L866.77 765.111L868.109 762.973L878.001 769.169C878.57 768.261 878.896 767.336 878.979 766.396C879.069 765.461 878.911 764.579 878.506 763.751C878.107 762.927 877.461 762.236 876.567 761.676C875.581 761.059 874.576 760.769 873.55 760.808C872.536 760.843 871.593 761.129 870.723 761.664C869.853 762.198 869.141 762.909 868.585 763.797L867.692 765.222C866.931 766.438 866.495 767.599 866.385 768.707C866.286 769.812 866.476 770.821 866.955 771.734C867.438 772.64 868.179 773.406 869.178 774.031C869.828 774.438 870.472 774.715 871.11 774.861C871.759 775.005 872.391 775.013 873.007 774.883C873.628 774.746 874.218 774.464 874.778 774.037L876.747 776.204C875.988 776.857 875.119 777.304 874.14 777.547C873.165 777.783 872.134 777.799 871.047 777.594C869.963 777.383 868.877 776.936 867.787 776.253Z" fill="white"/>
<path d="M885.039 786.833C883.472 785.887 882.329 784.726 881.61 783.349C880.902 781.969 880.618 780.469 880.757 778.849C880.908 777.226 881.486 775.582 882.491 773.916C883.496 772.25 884.685 770.965 886.059 770.061C887.444 769.154 888.898 768.674 890.422 768.621C891.958 768.565 893.459 768.98 894.928 769.866C895.775 770.377 896.526 771.023 897.181 771.803C897.837 772.584 898.312 773.496 898.606 774.54C898.905 775.577 898.942 776.736 898.719 778.016C898.495 779.296 897.926 780.695 897.01 782.213L896.372 783.272L883.835 775.709L885.138 773.549L895.133 779.579C895.687 778.661 895.997 777.732 896.065 776.79C896.139 775.853 895.967 774.974 895.547 774.153C895.135 773.336 894.477 772.655 893.574 772.11C892.578 771.51 891.568 771.238 890.543 771.293C889.529 771.346 888.592 771.647 887.731 772.196C886.87 772.745 886.169 773.468 885.629 774.365L884.76 775.805C884.019 777.033 883.603 778.202 883.511 779.311C883.43 780.418 883.637 781.424 884.131 782.328C884.63 783.226 885.384 783.979 886.393 784.588C887.049 784.984 887.698 785.25 888.338 785.386C888.989 785.519 889.622 785.515 890.236 785.375C890.854 785.228 891.439 784.937 891.992 784.5L893.997 786.633C893.249 787.299 892.387 787.761 891.413 788.021C890.442 788.273 889.412 788.306 888.321 788.119C887.234 787.926 886.14 787.497 885.039 786.833Z" fill="white"/>
<path d="M923.201 791.547L920.556 790.892C920.629 790.431 920.628 789.942 920.553 789.425C920.489 788.904 920.289 788.391 919.951 787.885C919.613 787.379 919.075 786.916 918.338 786.495C917.328 785.92 916.354 785.672 915.415 785.754C914.488 785.832 913.822 786.226 913.418 786.935C913.059 787.565 913.004 788.194 913.254 788.82C913.504 789.447 914.046 790.159 914.881 790.958L916.987 792.957C918.258 794.156 919.045 795.331 919.347 796.481C919.654 797.623 919.479 798.771 918.821 799.924C918.282 800.869 917.528 801.559 916.559 801.994C915.597 802.432 914.511 802.59 913.299 802.469C912.087 802.347 910.84 801.921 909.559 801.189C907.876 800.23 906.691 799.07 906.005 797.711C905.319 796.352 905.229 794.886 905.736 793.315L908.485 794.086C908.208 795.105 908.261 796.018 908.645 796.825C909.037 797.637 909.751 798.339 910.79 798.931C911.971 799.605 913.052 799.889 914.033 799.784C915.024 799.676 915.722 799.267 916.127 798.558C916.454 797.986 916.527 797.391 916.346 796.776C916.17 796.153 915.721 795.509 915.001 794.842L912.619 792.629C911.312 791.409 910.519 790.221 910.239 789.065C909.97 787.906 910.16 786.757 910.81 785.618C911.34 784.687 912.071 784.013 913.003 783.595C913.941 783.181 914.981 783.029 916.123 783.14C917.273 783.254 918.427 783.643 919.587 784.304C921.22 785.235 922.298 786.324 922.82 787.571C923.35 788.823 923.477 790.148 923.201 791.547Z" fill="white"/>
<path d="M926.687 810.739C925.183 809.916 924.059 808.835 923.315 807.498C922.579 806.165 922.245 804.681 922.312 803.045C922.388 801.414 922.896 799.737 923.838 798.016C924.788 796.281 925.931 794.938 927.269 793.988C928.613 793.041 930.046 792.519 931.565 792.42C933.093 792.326 934.608 792.69 936.112 793.513C937.617 794.336 938.737 795.414 939.473 796.747C940.217 798.084 940.549 799.572 940.47 801.211C940.398 802.854 939.887 804.543 938.938 806.278C937.996 808 936.855 809.33 935.514 810.269C934.18 811.212 932.75 811.731 931.223 811.825C929.703 811.924 928.191 811.562 926.687 810.739ZM927.945 808.439C929.088 809.064 930.188 809.286 931.246 809.104C932.304 808.921 933.272 808.45 934.149 807.689C935.025 806.929 935.768 805.991 936.378 804.878C936.987 803.764 937.378 802.629 937.55 801.474C937.722 800.318 937.601 799.242 937.188 798.245C936.775 797.249 935.997 796.438 934.854 795.812C933.711 795.187 932.609 794.969 931.547 795.159C930.485 795.348 929.514 795.827 928.633 796.595C927.752 797.363 927.007 798.303 926.398 799.417C925.789 800.531 925.4 801.662 925.232 802.81C925.064 803.959 925.188 805.028 925.606 806.017C926.023 807.006 926.803 807.814 927.945 808.439Z" fill="white"/>
<path d="M938.334 816.645L947.017 799.753L949.525 801.042L948.168 803.682L948.388 803.795C949.203 803.074 950.131 802.666 951.172 802.571C952.217 802.468 953.289 802.699 954.389 803.265C955.503 803.837 956.3 804.567 956.781 805.454C957.272 806.337 957.495 807.336 957.45 808.453L957.626 808.543C958.507 807.893 959.512 807.534 960.641 807.465C961.773 807.39 962.944 807.663 964.154 808.284C965.664 809.061 966.657 810.169 967.131 811.608C967.609 813.04 967.337 814.75 966.316 816.737L960.505 828.042L957.909 826.708L963.721 815.403C964.361 814.156 964.478 813.09 964.072 812.204C963.665 811.319 963 810.638 962.076 810.164C960.888 809.553 959.783 809.439 958.762 809.822C957.744 810.198 956.954 810.932 956.392 812.025L950.739 823.022L948.1 821.665L954.047 810.096C954.54 809.136 954.626 808.202 954.305 807.295C953.987 806.381 953.337 805.671 952.354 805.166C951.68 804.82 950.957 804.675 950.186 804.733C949.422 804.794 948.696 805.052 948.009 805.505C947.333 805.955 946.782 806.594 946.356 807.422L940.93 817.98L938.334 816.645Z" fill="white"/>
<path d="M972.384 834.23C970.737 833.433 969.492 832.382 968.649 831.076C967.818 829.767 967.397 828.299 967.387 826.673C967.389 825.044 967.813 823.353 968.661 821.602C969.509 819.851 970.575 818.463 971.86 817.436C973.155 816.406 974.56 815.794 976.073 815.601C977.596 815.405 979.13 815.68 980.673 816.428C981.564 816.859 982.371 817.433 983.095 818.15C983.82 818.867 984.377 819.732 984.766 820.744C985.158 821.749 985.302 822.9 985.197 824.195C985.092 825.491 984.653 826.936 983.881 828.531L983.342 829.644L970.164 823.264L971.264 820.994L981.77 826.081C982.237 825.116 982.461 824.162 982.441 823.218C982.429 822.278 982.177 821.419 981.684 820.64C981.198 819.864 980.481 819.247 979.531 818.787C978.485 818.28 977.454 818.102 976.438 818.251C975.434 818.397 974.528 818.783 973.721 819.409C972.914 820.035 972.283 820.819 971.826 821.761L971.094 823.275C970.469 824.566 970.161 825.768 970.172 826.881C970.193 827.991 970.492 828.973 971.067 829.829C971.645 830.677 972.465 831.357 973.526 831.871C974.216 832.205 974.886 832.41 975.536 832.487C976.197 832.56 976.827 832.498 977.425 832.302C978.027 832.099 978.583 831.755 979.093 831.269L981.286 833.21C980.602 833.941 979.787 834.481 978.84 834.828C977.897 835.168 976.873 835.296 975.77 835.21C974.67 835.117 973.541 834.791 972.384 834.23Z" fill="white"/>
<path d="M999.349 846.704C997.782 846.008 996.573 845.024 995.721 843.753C994.877 842.486 994.421 841.034 994.354 839.398C994.294 837.766 994.662 836.054 995.458 834.261C996.261 832.452 997.29 831.02 998.544 829.962C999.806 828.908 1001.19 828.269 1002.7 828.045C1004.21 827.824 1005.75 828.062 1007.32 828.758C1008.89 829.453 1010.09 830.435 1010.94 831.703C1011.79 832.974 1012.24 834.43 1012.3 836.069C1012.36 837.712 1011.99 839.438 1011.19 841.246C1010.39 843.039 1009.37 844.459 1008.11 845.506C1006.86 846.556 1005.47 847.191 1003.96 847.412C1002.45 847.636 1000.92 847.4 999.349 846.704ZM1000.41 844.308C1001.6 844.837 1002.72 844.966 1003.76 844.697C1004.8 844.428 1005.72 843.879 1006.53 843.048C1007.34 842.217 1008.01 841.222 1008.52 840.062C1009.04 838.901 1009.33 837.738 1009.41 836.572C1009.48 835.406 1009.28 834.344 1008.78 833.385C1008.29 832.426 1007.44 831.682 1006.25 831.153C1005.06 830.625 1003.95 830.499 1002.9 830.775C1001.86 831.052 1000.93 831.609 1000.12 832.447C999.305 833.285 998.641 834.285 998.125 835.445C997.61 836.605 997.316 837.765 997.244 838.923C997.171 840.081 997.384 841.136 997.881 842.088C998.379 843.039 999.223 843.779 1000.41 844.308Z" fill="white"/>
<path d="M1026.66 837.332L1025.71 839.611L1016.27 835.642L1017.23 833.363L1026.66 837.332ZM1012.69 852.059L1021.07 832.135C1021.49 831.132 1022.08 830.395 1022.83 829.925C1023.58 829.454 1024.41 829.21 1025.3 829.192C1026.19 829.174 1027.06 829.341 1027.89 829.692C1028.55 829.97 1029.07 830.25 1029.44 830.533C1029.82 830.815 1030.09 831.045 1030.25 831.222L1028.5 833.221C1028.38 833.118 1028.22 832.981 1028 832.811C1027.8 832.643 1027.5 832.478 1027.11 832.315C1026.22 831.941 1025.49 831.895 1024.9 832.177C1024.33 832.463 1023.86 833.038 1023.49 833.905L1015.38 853.19L1012.69 852.059Z" fill="white"/>
<path d="M1032.31 860.191L1039.01 842.418L1041.65 843.412L1040.6 846.189L1040.83 846.276C1041.56 845.467 1042.44 844.956 1043.46 844.742C1044.48 844.521 1045.58 844.628 1046.73 845.064C1047.91 845.506 1048.78 846.14 1049.36 846.966C1049.95 847.787 1050.28 848.755 1050.37 849.869L1050.55 849.939C1051.35 849.193 1052.31 848.721 1053.42 848.524C1054.54 848.319 1055.73 848.457 1057.01 848.936C1058.6 849.535 1059.71 850.522 1060.34 851.898C1060.98 853.266 1060.91 854.996 1060.12 857.086L1055.64 868.981L1052.91 867.952L1057.39 856.057C1057.88 854.746 1057.88 853.673 1057.37 852.84C1056.87 852.007 1056.13 851.407 1055.16 851.04C1053.91 850.57 1052.8 850.583 1051.83 851.08C1050.86 851.57 1050.16 852.389 1049.72 853.538L1045.36 865.109L1042.59 864.063L1047.17 851.89C1047.55 850.88 1047.53 849.942 1047.11 849.078C1046.69 848.206 1045.96 847.576 1044.93 847.186C1044.22 846.919 1043.48 846.858 1042.73 847.003C1041.97 847.151 1041.28 847.49 1040.65 848.019C1040.03 848.542 1039.56 849.24 1039.23 850.112L1035.04 861.22L1032.31 860.191Z" fill="white"/>
<path d="M1059.74 877.902C1059.27 877.741 1058.86 877.559 1058.52 877.355C1058.18 877.16 1057.95 877.002 1057.84 876.884L1059.37 874.692C1059.98 875.094 1060.56 875.359 1061.09 875.489C1061.62 875.619 1062.15 875.545 1062.69 875.268C1063.24 875.002 1063.83 874.47 1064.48 873.673L1065.48 872.446L1065.03 852.108L1068.02 853.135L1068.07 869.152L1068.26 869.216L1078.13 856.601L1081.12 857.628L1066.43 875.598C1065.77 876.408 1065.08 877.03 1064.37 877.465C1063.65 877.907 1062.91 878.161 1062.13 878.228C1061.37 878.296 1060.57 878.188 1059.74 877.902Z" fill="white"/>
<path d="M1094.04 869.613L1090.77 880.56L1087.98 879.725L1095.23 855.46L1098.02 856.296L1095.36 865.205L1095.6 865.276C1096.3 864.464 1097.17 863.908 1098.18 863.61C1099.21 863.307 1100.44 863.368 1101.87 863.796C1103.11 864.166 1104.12 864.739 1104.91 865.515C1105.69 866.284 1106.19 867.254 1106.4 868.426C1106.62 869.593 1106.49 870.958 1106.03 872.522L1102.57 884.086L1099.78 883.25L1103.17 871.876C1103.61 870.431 1103.57 869.201 1103.05 868.187C1102.55 867.168 1101.63 866.461 1100.32 866.067C1099.4 865.793 1098.52 865.741 1097.68 865.911C1096.84 866.083 1096.11 866.478 1095.47 867.095C1094.83 867.715 1094.36 868.554 1094.04 869.613Z" fill="white"/>
<path d="M1107.65 885.467L1112.68 867.153L1115.5 867.927L1110.46 886.241L1107.65 885.467ZM1114.95 864.494C1114.4 864.343 1113.98 864.027 1113.69 863.544C1113.4 863.063 1113.33 862.561 1113.47 862.036C1113.62 861.511 1113.94 861.116 1114.43 860.849C1114.93 860.585 1115.45 860.528 1116 860.679C1116.55 860.83 1116.97 861.145 1117.25 861.626C1117.55 862.109 1117.62 862.612 1117.48 863.137C1117.34 863.662 1117.01 864.056 1116.51 864.32C1116.02 864.587 1115.5 864.645 1114.95 864.494Z" fill="white"/>
<path d="M1121.26 896.855C1119.89 896.512 1118.76 896.041 1117.87 895.443C1116.97 894.852 1116.26 894.191 1115.75 893.459C1115.24 892.737 1114.88 892.007 1114.65 891.272L1117.31 890.254C1117.48 890.654 1117.71 891.119 1117.99 891.649C1118.27 892.187 1118.71 892.701 1119.31 893.191C1119.92 893.692 1120.77 894.081 1121.89 894.36C1123.37 894.733 1124.69 894.681 1125.84 894.204C1126.99 893.727 1127.75 892.721 1128.14 891.185L1129.08 887.443L1128.84 887.383C1128.54 887.667 1128.14 888.009 1127.64 888.408C1127.14 888.802 1126.49 889.101 1125.68 889.306C1124.88 889.506 1123.88 889.455 1122.68 889.154C1121.19 888.781 1119.95 888.094 1118.94 887.094C1117.94 886.096 1117.27 884.839 1116.92 883.323C1116.57 881.809 1116.64 880.093 1117.12 878.174C1117.6 876.287 1118.34 874.727 1119.35 873.494C1120.37 872.253 1121.57 871.397 1122.94 870.926C1124.32 870.448 1125.79 870.403 1127.34 870.792C1128.54 871.092 1129.44 871.531 1130.04 872.107C1130.65 872.677 1131.09 873.262 1131.34 873.86C1131.6 874.452 1131.79 874.934 1131.92 875.305L1132.2 875.378L1132.94 872.451L1135.67 873.137L1130.92 892.087C1130.52 893.67 1129.84 894.868 1128.87 895.679C1127.91 896.5 1126.77 896.991 1125.44 897.152C1124.13 897.323 1122.73 897.224 1121.26 896.855ZM1123.7 886.708C1124.84 886.992 1125.86 886.973 1126.78 886.65C1127.69 886.327 1128.47 885.729 1129.13 884.855C1129.78 883.982 1130.28 882.866 1130.62 881.506C1130.95 880.179 1131.04 878.958 1130.9 877.842C1130.75 876.726 1130.36 875.782 1129.72 875.01C1129.08 874.238 1128.19 873.707 1127.04 873.419C1125.84 873.118 1124.76 873.171 1123.81 873.578C1122.86 873.987 1122.06 874.653 1121.41 875.577C1120.76 876.502 1120.28 877.588 1119.97 878.836C1119.64 880.115 1119.56 881.296 1119.71 882.38C1119.88 883.458 1120.28 884.376 1120.94 885.134C1121.6 885.886 1122.52 886.411 1123.7 886.708Z" fill="white"/>
<path d="M1141.52 882.248L1139.07 893.407L1136.22 892.781L1141.65 868.047L1144.5 868.673L1142.51 877.755L1142.75 877.808C1143.4 876.946 1144.22 876.328 1145.21 875.955C1146.21 875.577 1147.44 875.547 1148.9 875.867C1150.16 876.145 1151.21 876.642 1152.05 877.358C1152.89 878.066 1153.46 878.997 1153.76 880.15C1154.06 881.298 1154.04 882.668 1153.69 884.263L1151.1 896.05L1148.25 895.424L1150.8 883.83C1151.12 882.356 1150.99 881.133 1150.4 880.16C1149.82 879.18 1148.86 878.543 1147.52 878.247C1146.58 878.042 1145.7 878.055 1144.87 878.287C1144.05 878.521 1143.35 878.969 1142.76 879.632C1142.17 880.297 1141.76 881.169 1141.52 882.248Z" fill="white"/>
<path d="M1163.98 872.751L1159.12 897.605L1156.26 897.045L1161.12 872.192L1163.98 872.751Z" fill="white"/>
<path d="M1164.46 898.612L1167.85 879.925L1170.73 880.446L1167.33 899.134L1164.46 898.612ZM1169.88 877.075C1169.32 876.973 1168.87 876.695 1168.54 876.24C1168.21 875.787 1168.09 875.293 1168.19 874.757C1168.29 874.222 1168.57 873.8 1169.03 873.491C1169.51 873.183 1170.03 873.08 1170.59 873.182C1171.15 873.283 1171.59 873.561 1171.92 874.014C1172.25 874.469 1172.37 874.964 1172.28 875.499C1172.18 876.035 1171.89 876.456 1171.42 876.764C1170.95 877.073 1170.44 877.177 1169.88 877.075Z" fill="white"/>
<path d="M1179.03 908.726C1177.64 908.507 1176.47 908.14 1175.53 907.624C1174.58 907.117 1173.82 906.521 1173.24 905.838C1172.67 905.165 1172.24 904.471 1171.95 903.759L1174.5 902.507C1174.71 902.89 1174.98 903.332 1175.31 903.835C1175.64 904.345 1176.12 904.818 1176.76 905.252C1177.41 905.696 1178.3 906.007 1179.43 906.185C1180.95 906.423 1182.26 906.252 1183.36 905.674C1184.46 905.096 1185.13 904.025 1185.38 902.462L1185.97 898.65L1185.73 898.612C1185.46 898.921 1185.1 899.297 1184.63 899.74C1184.17 900.177 1183.54 900.534 1182.76 900.811C1181.98 901.081 1180.98 901.12 1179.76 900.929C1178.24 900.691 1176.94 900.119 1175.85 899.213C1174.76 898.308 1173.98 897.117 1173.49 895.639C1173.01 894.162 1172.93 892.446 1173.24 890.492C1173.54 888.57 1174.14 886.95 1175.04 885.631C1175.94 884.303 1177.05 883.344 1178.38 882.751C1179.71 882.15 1181.17 881.974 1182.75 882.222C1183.97 882.414 1184.9 882.77 1185.56 883.289C1186.22 883.802 1186.7 884.345 1187 884.918C1187.32 885.485 1187.55 885.947 1187.71 886.306L1188.01 886.352L1188.47 883.372L1191.26 883.809L1188.23 903.11C1187.97 904.722 1187.4 905.976 1186.51 906.87C1185.63 907.775 1184.53 908.366 1183.23 908.646C1181.93 908.934 1180.53 908.961 1179.03 908.726ZM1180.56 898.4C1181.71 898.582 1182.73 898.471 1183.61 898.067C1184.49 897.663 1185.22 896.996 1185.79 896.068C1186.36 895.14 1186.76 893.983 1186.97 892.599C1187.19 891.247 1187.17 890.022 1186.93 888.924C1186.68 887.826 1186.21 886.921 1185.5 886.209C1184.79 885.498 1183.85 885.05 1182.68 884.865C1181.46 884.674 1180.39 884.823 1179.48 885.314C1178.58 885.807 1177.84 886.542 1177.27 887.52C1176.71 888.5 1176.33 889.625 1176.13 890.896C1175.92 892.199 1175.94 893.383 1176.19 894.449C1176.45 895.507 1176.94 896.385 1177.66 897.082C1178.39 897.772 1179.35 898.211 1180.56 898.4Z" fill="white"/>
<path d="M1197.83 892.301L1196.45 903.642L1193.55 903.289L1196.61 878.151L1199.51 878.504L1198.38 887.734L1198.63 887.764C1199.19 886.844 1199.95 886.152 1200.9 885.687C1201.86 885.214 1203.08 885.068 1204.57 885.249C1205.85 885.405 1206.94 885.8 1207.85 886.433C1208.75 887.058 1209.4 887.931 1209.81 889.051C1210.22 890.165 1210.33 891.531 1210.13 893.152L1208.67 905.132L1205.77 904.779L1207.21 892.995C1207.39 891.498 1207.14 890.292 1206.47 889.379C1205.8 888.459 1204.78 887.916 1203.41 887.749C1202.46 887.634 1201.59 887.731 1200.79 888.04C1199.99 888.35 1199.33 888.863 1198.81 889.58C1198.29 890.297 1197.96 891.204 1197.83 892.301Z" fill="white"/>
<path d="M1223.87 887.478L1223.64 889.941L1213.84 889.025L1214.07 886.562L1223.87 887.478ZM1217.35 882.299L1220.26 882.57L1218.57 900.595C1218.5 901.415 1218.56 902.042 1218.76 902.475C1218.97 902.9 1219.25 903.2 1219.62 903.375C1219.99 903.542 1220.39 903.646 1220.82 903.686C1221.14 903.715 1221.4 903.724 1221.61 903.71C1221.82 903.688 1221.99 903.671 1222.11 903.657L1222.46 906.323C1222.26 906.378 1221.97 906.426 1221.61 906.467C1221.25 906.516 1220.8 906.516 1220.26 906.465C1219.44 906.388 1218.65 906.137 1217.9 905.71C1217.15 905.284 1216.55 904.686 1216.1 903.915C1215.66 903.146 1215.49 902.211 1215.6 901.111L1217.35 882.299Z" fill="white"/>
<path d="M1239.17 892.825L1236.51 893.386C1236.37 892.939 1236.16 892.498 1235.87 892.065C1235.58 891.624 1235.18 891.25 1234.66 890.941C1234.13 890.632 1233.45 890.449 1232.6 890.391C1231.44 890.312 1230.45 890.513 1229.64 890.994C1228.84 891.468 1228.41 892.112 1228.36 892.927C1228.31 893.65 1228.53 894.24 1229.03 894.695C1229.53 895.151 1230.33 895.557 1231.43 895.913L1234.19 896.797C1235.86 897.324 1237.08 898.039 1237.85 898.943C1238.62 899.839 1238.96 900.949 1238.87 902.273C1238.8 903.359 1238.42 904.308 1237.74 905.12C1237.06 905.933 1236.15 906.549 1235.01 906.966C1233.86 907.383 1232.56 907.542 1231.08 907.441C1229.15 907.309 1227.58 906.779 1226.37 905.854C1225.16 904.928 1224.44 903.648 1224.22 902.013L1227.03 901.511C1227.22 902.549 1227.67 903.348 1228.36 903.908C1229.07 904.469 1230.02 904.79 1231.21 904.872C1232.57 904.965 1233.66 904.751 1234.5 904.229C1235.35 903.701 1235.8 903.029 1235.85 902.215C1235.9 901.557 1235.71 900.99 1235.28 900.515C1234.85 900.031 1234.16 899.645 1233.22 899.358L1230.12 898.401C1228.41 897.871 1227.18 897.146 1226.42 896.227C1225.68 895.3 1225.35 894.183 1225.44 892.875C1225.51 891.806 1225.88 890.881 1226.53 890.1C1227.2 889.319 1228.07 888.73 1229.14 888.333C1230.23 887.936 1231.44 887.783 1232.77 887.874C1234.65 888.003 1236.09 888.515 1237.1 889.411C1238.12 890.307 1238.81 891.445 1239.17 892.825Z" fill="white"/>
<path d="M1247.89 882.589L1246.86 900.763L1243.99 900.639L1244.53 882.444L1247.89 882.589ZM1245.11 908.014C1244.5 907.988 1243.99 907.747 1243.57 907.292C1243.15 906.836 1242.95 906.304 1242.98 905.694C1243.01 905.085 1243.25 904.571 1243.7 904.154C1244.16 903.736 1244.69 903.541 1245.3 903.567C1245.91 903.593 1246.42 903.834 1246.84 904.29C1247.26 904.745 1247.45 905.278 1247.43 905.887C1247.41 906.291 1247.29 906.657 1247.07 906.986C1246.86 907.315 1246.58 907.575 1246.23 907.766C1245.89 907.949 1245.52 908.032 1245.11 908.014Z" fill="white"/>
<path d="M1262.48 883.111L1266.14 883.057L1275.06 903.949L1275.35 903.945L1283.65 882.8L1287.31 882.746L1287.68 908.068L1284.81 908.11L1284.53 888.871L1284.28 888.875L1276.65 908.229L1273.88 908.27L1265.69 889.148L1265.44 889.152L1265.72 908.39L1262.85 908.432L1262.48 883.111Z" fill="white"/>
<path d="M1301.43 907.634C1299.72 907.741 1298.19 907.428 1296.85 906.694C1295.51 905.96 1294.44 904.883 1293.62 903.464C1292.82 902.044 1292.35 900.355 1292.23 898.397C1292.1 896.422 1292.35 894.676 1292.98 893.159C1293.61 891.641 1294.54 890.435 1295.77 889.54C1297.02 888.644 1298.49 888.143 1300.2 888.036C1301.91 887.929 1303.44 888.243 1304.77 888.977C1306.11 889.71 1307.19 890.791 1308 892.219C1308.81 893.647 1309.28 895.348 1309.41 897.322C1309.53 899.28 1309.27 901.014 1308.64 902.524C1308.02 904.033 1307.09 905.236 1305.85 906.131C1304.61 907.026 1303.14 907.527 1301.43 907.634ZM1301.27 905.017C1302.57 904.936 1303.61 904.536 1304.41 903.817C1305.21 903.098 1305.78 902.183 1306.11 901.072C1306.45 899.961 1306.57 898.771 1306.49 897.504C1306.42 896.237 1306.14 895.069 1305.67 894C1305.2 892.931 1304.52 892.086 1303.64 891.464C1302.76 890.841 1301.67 890.571 1300.37 890.652C1299.07 890.734 1298.02 891.138 1297.22 891.865C1296.42 892.592 1295.86 893.516 1295.52 894.635C1295.19 895.755 1295.06 896.948 1295.14 898.215C1295.22 899.482 1295.5 900.646 1295.97 901.707C1296.44 902.767 1297.11 903.605 1297.99 904.219C1298.88 904.832 1299.97 905.099 1301.27 905.017Z" fill="white"/>
<path d="M1314.38 906.26L1312.57 887.354L1315.37 887.084L1315.65 889.939L1315.84 889.921C1316.1 888.952 1316.65 888.133 1317.5 887.464C1318.34 886.794 1319.33 886.405 1320.46 886.296C1320.68 886.276 1320.94 886.254 1321.26 886.232C1321.59 886.209 1321.83 886.198 1321.99 886.199L1322.28 889.153C1322.18 889.138 1321.95 889.122 1321.59 889.107C1321.24 889.083 1320.87 889.089 1320.49 889.126C1319.57 889.215 1318.77 889.486 1318.08 889.941C1317.4 890.387 1316.89 890.967 1316.53 891.68C1316.19 892.384 1316.06 893.163 1316.14 894.016L1317.29 905.98L1314.38 906.26Z" fill="white"/>
<path d="M1334.66 904.433C1332.85 904.669 1331.23 904.472 1329.81 903.842C1328.4 903.203 1327.24 902.206 1326.34 900.852C1325.45 899.488 1324.88 897.842 1324.63 895.913C1324.38 893.983 1324.51 892.237 1325.02 890.675C1325.54 889.102 1326.38 887.821 1327.53 886.831C1328.7 885.831 1330.14 885.22 1331.84 884.999C1332.82 884.872 1333.81 884.909 1334.81 885.112C1335.8 885.314 1336.74 885.732 1337.62 886.366C1338.5 886.991 1339.25 887.875 1339.88 889.016C1340.5 890.157 1340.92 891.606 1341.15 893.363L1341.31 894.59L1326.79 896.478L1326.47 893.977L1338.04 892.471C1337.91 891.408 1337.57 890.488 1337.04 889.709C1336.51 888.93 1335.83 888.349 1334.99 887.968C1334.16 887.586 1333.22 887.463 1332.17 887.599C1331.02 887.749 1330.06 888.165 1329.29 888.846C1328.53 889.519 1327.99 890.338 1327.66 891.304C1327.32 892.27 1327.23 893.272 1327.36 894.31L1327.58 895.978C1327.76 897.4 1328.16 898.574 1328.78 899.499C1329.41 900.415 1330.2 901.073 1331.15 901.473C1332.1 901.865 1333.16 901.985 1334.32 901.833C1335.09 901.734 1335.76 901.539 1336.34 901.246C1336.94 900.945 1337.43 900.548 1337.82 900.057C1338.21 899.557 1338.49 898.964 1338.65 898.278L1341.55 898.699C1341.38 899.685 1340.99 900.584 1340.39 901.393C1339.79 902.195 1339 902.862 1338.03 903.396C1337.06 903.921 1335.94 904.267 1334.66 904.433Z" fill="white"/>
<path d="M1357.56 907.821L1352.74 882.153L1355.52 881.634L1356.07 884.599L1356.41 884.535C1356.56 884.172 1356.78 883.704 1357.05 883.132C1357.34 882.55 1357.8 881.994 1358.43 881.465C1359.06 880.926 1359.99 880.543 1361.21 880.315C1362.78 880.02 1364.24 880.153 1365.58 880.714C1366.93 881.275 1368.08 882.214 1369.02 883.53C1369.96 884.846 1370.62 886.484 1370.98 888.445C1371.36 890.422 1371.34 892.199 1370.94 893.775C1370.54 895.343 1369.82 896.636 1368.77 897.654C1367.73 898.663 1366.43 899.313 1364.87 899.605C1363.68 899.83 1362.68 899.812 1361.88 899.55C1361.09 899.28 1360.44 898.926 1359.96 898.489C1359.47 898.043 1359.09 897.67 1358.82 897.369L1358.58 897.415L1360.43 907.283L1357.56 907.821ZM1357.31 890.958C1357.58 892.368 1358.02 893.573 1358.63 894.573C1359.25 895.565 1360.01 896.291 1360.92 896.749C1361.82 897.2 1362.85 897.317 1364 897.102C1365.2 896.877 1366.14 896.373 1366.83 895.591C1367.52 894.799 1367.96 893.826 1368.17 892.672C1368.38 891.509 1368.36 890.263 1368.11 888.934C1367.86 887.622 1367.44 886.477 1366.83 885.499C1366.24 884.513 1365.48 883.787 1364.55 883.323C1363.63 882.85 1362.56 882.727 1361.35 882.955C1360.18 883.174 1359.26 883.654 1358.57 884.394C1357.89 885.126 1357.44 886.057 1357.24 887.186C1357.03 888.307 1357.05 889.565 1357.31 890.958Z" fill="white"/>
<path d="M1377.03 896.726L1372.97 878.172L1375.82 877.548L1379.88 896.103L1377.03 896.726ZM1373.74 874.763C1373.19 874.884 1372.67 874.8 1372.18 874.509C1371.7 874.217 1371.41 873.805 1371.29 873.274C1371.18 872.742 1371.27 872.244 1371.59 871.779C1371.91 871.313 1372.34 871.019 1372.9 870.897C1373.45 870.775 1373.97 870.861 1374.45 871.153C1374.93 871.443 1375.23 871.854 1375.35 872.386C1375.47 872.917 1375.37 873.416 1375.05 873.883C1374.73 874.348 1374.3 874.641 1373.74 874.763Z" fill="white"/>
<path d="M1392.69 893.485C1390.97 893.917 1389.38 893.882 1387.93 893.378C1386.47 892.875 1385.23 891.991 1384.2 890.728C1383.17 889.464 1382.43 887.913 1381.97 886.074C1381.5 884.202 1381.43 882.465 1381.76 880.861C1382.1 879.248 1382.78 877.882 1383.82 876.764C1384.86 875.637 1386.22 874.865 1387.88 874.448C1389.18 874.124 1390.4 874.072 1391.56 874.292C1392.72 874.512 1393.74 874.97 1394.62 875.668C1395.5 876.365 1396.17 877.27 1396.61 878.382L1393.78 879.09C1393.36 878.304 1392.69 877.681 1391.79 877.219C1390.89 876.747 1389.81 876.667 1388.56 876.98C1387.46 877.256 1386.57 877.786 1385.88 878.569C1385.2 879.343 1384.75 880.308 1384.55 881.464C1384.35 882.609 1384.43 883.878 1384.78 885.269C1385.13 886.693 1385.67 887.876 1386.38 888.82C1387.1 889.762 1387.94 890.421 1388.91 890.799C1389.89 891.175 1390.94 891.222 1392.06 890.942C1392.79 890.758 1393.43 890.463 1393.97 890.057C1394.5 889.651 1394.92 889.156 1395.21 888.572C1395.51 887.989 1395.66 887.339 1395.67 886.623L1398.5 885.915C1398.61 887.042 1398.46 888.121 1398.05 889.151C1397.64 890.171 1396.98 891.065 1396.08 891.835C1395.18 892.595 1394.05 893.145 1392.69 893.485Z" fill="white"/>
<path d="M1407.02 869.549L1407.69 871.929L1398.22 874.602L1397.55 872.222L1407.02 869.549ZM1399.07 867.063L1401.88 866.271L1406.8 883.694C1407.02 884.487 1407.3 885.05 1407.65 885.381C1407.99 885.703 1408.37 885.88 1408.77 885.912C1409.18 885.934 1409.59 885.886 1410 885.77C1410.31 885.683 1410.56 885.595 1410.75 885.507C1410.94 885.412 1411.09 885.335 1411.2 885.278L1412.48 887.64C1412.31 887.765 1412.07 887.911 1411.75 888.079C1411.43 888.254 1411.01 888.416 1410.48 888.564C1409.69 888.788 1408.86 888.836 1408.01 888.71C1407.16 888.582 1406.38 888.239 1405.69 887.681C1405 887.122 1404.5 886.311 1404.2 885.248L1399.07 867.063Z" fill="white"/>
<path d="M1424.14 876.026L1420.78 865.315L1423.56 864.44L1429.26 882.558L1426.47 883.434L1425.51 880.367L1425.32 880.426C1425.18 881.48 1424.77 882.47 1424.08 883.396C1423.38 884.315 1422.35 884.99 1420.98 885.42C1419.85 885.776 1418.76 885.845 1417.73 885.626C1416.69 885.4 1415.76 884.863 1414.94 884.014C1414.12 883.158 1413.46 881.959 1412.98 880.418L1409.36 868.905L1412.14 868.03L1415.7 879.354C1416.12 880.675 1416.82 881.613 1417.8 882.167C1418.8 882.718 1419.87 882.812 1421.03 882.449C1421.72 882.231 1422.37 881.833 1422.97 881.254C1423.59 880.673 1424.02 879.94 1424.28 879.055C1424.54 878.168 1424.5 877.158 1424.14 876.026Z" fill="white"/>
<path d="M1434.53 880.752L1428.3 862.81L1430.96 861.885L1431.9 864.595L1432.09 864.53C1432.11 863.529 1432.45 862.603 1433.12 861.753C1433.78 860.902 1434.65 860.291 1435.73 859.918C1435.93 859.847 1436.18 859.763 1436.49 859.666C1436.8 859.568 1437.03 859.5 1437.19 859.462L1438.16 862.265C1438.06 862.274 1437.84 862.314 1437.48 862.383C1437.14 862.442 1436.78 862.535 1436.42 862.662C1435.54 862.965 1434.83 863.418 1434.27 864.022C1433.72 864.616 1433.35 865.301 1433.18 866.077C1433.01 866.843 1433.06 867.631 1433.34 868.441L1437.29 879.795L1434.53 880.752Z" fill="white"/>
<path d="M1453.8 874.179C1452.09 874.835 1450.48 875.025 1448.95 874.747C1447.42 874.459 1446.07 873.762 1444.87 872.658C1443.68 871.542 1442.74 870.077 1442.04 868.261C1441.34 866.445 1441.06 864.717 1441.19 863.078C1441.32 861.428 1441.84 859.985 1442.73 858.749C1443.63 857.503 1444.88 856.572 1446.48 855.957C1447.4 855.602 1448.37 855.405 1449.39 855.367C1450.41 855.329 1451.42 855.514 1452.43 855.922C1453.43 856.323 1454.37 857.005 1455.24 857.967C1456.11 858.93 1456.87 860.238 1457.5 861.892L1457.95 863.046L1444.28 868.3L1443.38 865.946L1454.27 861.757C1453.89 860.757 1453.35 859.941 1452.64 859.31C1451.95 858.676 1451.15 858.273 1450.24 858.1C1449.35 857.924 1448.4 858.025 1447.42 858.404C1446.34 858.821 1445.5 859.451 1444.91 860.294C1444.33 861.127 1444 862.052 1443.9 863.069C1443.81 864.085 1443.95 865.082 1444.32 866.06L1444.93 867.629C1445.44 868.968 1446.11 870.014 1446.93 870.768C1447.75 871.511 1448.67 871.965 1449.69 872.13C1450.7 872.287 1451.76 872.155 1452.86 871.732C1453.58 871.457 1454.19 871.108 1454.69 870.686C1455.19 870.254 1455.58 869.752 1455.84 869.182C1456.11 868.603 1456.23 867.962 1456.23 867.258L1459.14 866.985C1459.21 867.984 1459.05 868.948 1458.65 869.876C1458.26 870.797 1457.65 871.631 1456.83 872.378C1456.01 873.117 1455 873.717 1453.8 874.179Z" fill="white"/>
<path d="M1471.66 850.524L1469.53 852.227C1469.21 851.889 1468.82 851.593 1468.37 851.338C1467.91 851.073 1467.38 850.921 1466.78 850.882C1466.17 850.843 1465.48 850.989 1464.69 851.319C1463.62 851.771 1462.83 852.395 1462.33 853.19C1461.83 853.975 1461.74 854.743 1462.05 855.494C1462.34 856.163 1462.8 856.588 1463.45 856.77C1464.1 856.952 1465 856.954 1466.14 856.776L1469.01 856.316C1470.73 856.035 1472.14 856.124 1473.24 856.582C1474.33 857.032 1475.14 857.869 1475.66 859.091C1476.08 860.094 1476.17 861.112 1475.93 862.145C1475.69 863.176 1475.15 864.135 1474.32 865.024C1473.49 865.913 1472.39 866.644 1471.03 867.218C1469.25 867.972 1467.61 868.209 1466.11 867.928C1464.62 867.648 1463.4 866.829 1462.46 865.472L1464.74 863.756C1465.38 864.595 1466.14 865.108 1467.01 865.293C1467.9 865.475 1468.89 865.333 1469.99 864.868C1471.24 864.339 1472.12 863.653 1472.64 862.81C1473.15 861.957 1473.25 861.154 1472.93 860.402C1472.68 859.795 1472.25 859.376 1471.65 859.145C1471.05 858.907 1470.26 858.872 1469.3 859.039L1466.09 859.587C1464.33 859.885 1462.9 859.793 1461.82 859.314C1460.73 858.823 1459.93 857.974 1459.42 856.767C1459.01 855.78 1458.92 854.789 1459.15 853.796C1459.39 852.799 1459.9 851.88 1460.68 851.04C1461.47 850.197 1462.48 849.515 1463.71 848.995C1465.44 848.264 1466.96 848.069 1468.27 848.412C1469.59 848.751 1470.72 849.455 1471.66 850.524Z" fill="white"/>
<path d="M1494.39 856.294L1480.77 841.85L1483.52 840.487L1493.66 851.69L1493.83 851.603L1491.01 836.773L1493.8 835.389L1503.83 846.591L1504 846.504L1501.24 831.697L1503.99 830.334L1507.24 849.92L1504.67 851.195L1494.47 839.97L1494.2 840.102L1496.96 855.019L1494.39 856.294Z" fill="white"/>
<path d="M1515.84 845.403L1506.87 828.663L1509.44 827.284L1518.41 844.025L1515.84 845.403ZM1506.68 825.172C1506.18 825.441 1505.66 825.502 1505.11 825.355C1504.57 825.204 1504.17 824.889 1503.92 824.41C1503.66 823.93 1503.62 823.424 1503.79 822.892C1503.97 822.356 1504.31 821.953 1504.81 821.684C1505.31 821.416 1505.83 821.357 1506.37 821.507C1506.92 821.654 1507.32 821.967 1507.58 822.447C1507.83 822.926 1507.87 823.434 1507.69 823.97C1507.52 824.503 1507.18 824.903 1506.68 825.172Z" fill="white"/>
<path d="M1513.47 817.867L1525.74 840.02L1523.18 841.434L1510.91 819.281L1513.47 817.867Z" fill="white"/>
<path d="M1520.43 813.932L1533.01 835.913L1530.47 837.362L1517.9 815.381L1520.43 813.932Z" fill="white"/>
<path d="M1552.8 824.523C1551.29 825.465 1549.76 825.918 1548.23 825.884C1546.69 825.85 1545.24 825.39 1543.87 824.504C1542.5 823.617 1541.32 822.369 1540.32 820.76C1539.3 819.122 1538.7 817.49 1538.52 815.863C1538.34 814.224 1538.58 812.714 1539.22 811.331C1539.87 809.938 1540.92 808.788 1542.38 807.881C1543.51 807.175 1544.66 806.749 1545.83 806.602C1547 806.456 1548.11 806.579 1549.17 806.973C1550.22 807.368 1551.13 808.025 1551.89 808.945L1549.42 810.488C1548.77 809.871 1547.95 809.482 1546.94 809.32C1545.94 809.147 1544.89 809.401 1543.8 810.08C1542.84 810.682 1542.15 811.461 1541.73 812.418C1541.32 813.364 1541.2 814.418 1541.36 815.58C1541.52 816.731 1541.98 817.916 1542.74 819.133C1543.52 820.379 1544.39 821.341 1545.35 822.021C1546.33 822.696 1547.33 823.065 1548.37 823.127C1549.42 823.184 1550.43 822.908 1551.41 822.298C1552.06 821.897 1552.57 821.421 1552.96 820.871C1553.34 820.32 1553.58 819.721 1553.69 819.075C1553.79 818.428 1553.73 817.763 1553.52 817.08L1556 815.537C1556.45 816.576 1556.64 817.649 1556.56 818.756C1556.49 819.851 1556.14 820.904 1555.51 821.914C1554.89 822.913 1553.99 823.782 1552.8 824.523Z" fill="white"/>
<path d="M1569.39 813.82C1567.96 814.77 1566.48 815.263 1564.95 815.301C1563.43 815.333 1561.96 814.94 1560.54 814.12C1559.13 813.295 1557.88 812.066 1556.8 810.432C1555.7 808.785 1555.04 807.149 1554.82 805.523C1554.61 803.892 1554.81 802.381 1555.43 800.99C1556.06 799.593 1557.09 798.42 1558.51 797.471C1559.94 796.521 1561.42 796.03 1562.94 795.997C1564.47 795.96 1565.94 796.357 1567.35 797.188C1568.78 798.015 1570.03 799.252 1571.13 800.9C1572.22 802.533 1572.86 804.162 1573.07 805.785C1573.29 807.404 1573.08 808.912 1572.46 810.308C1571.84 811.7 1570.82 812.871 1569.39 813.82ZM1567.94 811.638C1569.02 810.916 1569.73 810.045 1570.06 809.023C1570.39 808.001 1570.42 806.926 1570.15 805.796C1569.89 804.666 1569.4 803.573 1568.7 802.516C1568 801.459 1567.17 800.586 1566.23 799.897C1565.29 799.207 1564.28 798.814 1563.2 798.717C1562.13 798.62 1561.05 798.932 1559.96 799.653C1558.88 800.375 1558.18 801.25 1557.85 802.278C1557.52 803.307 1557.5 804.389 1557.77 805.526C1558.04 806.662 1558.53 807.759 1559.23 808.816C1559.93 809.873 1560.75 810.743 1561.69 811.425C1562.63 812.108 1563.63 812.494 1564.7 812.584C1565.77 812.674 1566.85 812.359 1567.94 811.638Z" fill="white"/>
<path d="M1579.97 806.279L1568.85 790.888L1571.13 789.236L1572.87 791.641L1573.07 791.496C1572.8 790.443 1572.85 789.43 1573.24 788.459C1573.62 787.481 1574.31 786.63 1575.31 785.906C1576.33 785.171 1577.34 784.791 1578.35 784.764C1579.36 784.725 1580.35 784.979 1581.33 785.526L1581.49 785.41C1581.31 784.33 1581.44 783.271 1581.89 782.233C1582.34 781.189 1583.11 780.269 1584.21 779.472C1585.59 778.476 1587.02 778.093 1588.52 778.322C1590.02 778.545 1591.42 779.561 1592.73 781.371L1600.17 791.672L1597.81 793.382L1590.36 783.081C1589.54 781.945 1588.64 781.358 1587.67 781.32C1586.69 781.282 1585.79 781.567 1584.95 782.175C1583.86 782.958 1583.26 783.891 1583.14 784.976C1583.01 786.054 1583.31 787.09 1584.03 788.086L1591.28 798.106L1588.87 799.845L1581.25 789.304C1580.62 788.429 1579.82 787.929 1578.87 787.805C1577.91 787.675 1576.98 787.933 1576.09 788.581C1575.47 789.025 1575.02 789.604 1574.72 790.318C1574.43 791.027 1574.33 791.79 1574.42 792.608C1574.52 793.414 1574.84 794.195 1575.38 794.95L1582.34 804.569L1579.97 806.279Z" fill="white"/>
<path d="M1610.95 783.807C1609.51 784.93 1608.01 785.58 1606.47 785.757C1604.93 785.923 1603.43 785.65 1601.96 784.938C1600.5 784.215 1599.18 783.086 1597.98 781.55C1596.79 780.014 1596.02 778.443 1595.66 776.837C1595.31 775.219 1595.39 773.689 1595.89 772.247C1596.38 770.794 1597.31 769.541 1598.66 768.488C1599.45 767.881 1600.32 767.412 1601.28 767.08C1602.25 766.748 1603.27 766.632 1604.35 766.732C1605.42 766.825 1606.52 767.206 1607.63 767.874C1608.75 768.542 1609.85 769.576 1610.94 770.975L1611.7 771.951L1600.14 780.939L1598.59 778.947L1607.8 771.781C1607.15 770.936 1606.39 770.312 1605.54 769.912C1604.69 769.506 1603.81 769.352 1602.89 769.448C1601.98 769.54 1601.11 769.91 1600.27 770.558C1599.36 771.271 1598.74 772.116 1598.42 773.093C1598.11 774.058 1598.05 775.041 1598.26 776.042C1598.46 777.043 1598.88 777.956 1599.53 778.783L1600.56 780.11C1601.44 781.242 1602.38 782.05 1603.38 782.534C1604.39 783.006 1605.4 783.174 1606.42 783.037C1607.44 782.894 1608.41 782.461 1609.34 781.737C1609.95 781.267 1610.43 780.757 1610.79 780.208C1611.14 779.648 1611.37 779.056 1611.46 778.433C1611.54 777.803 1611.48 777.152 1611.27 776.48L1613.98 775.374C1614.33 776.311 1614.46 777.281 1614.35 778.283C1614.24 779.28 1613.9 780.254 1613.33 781.205C1612.76 782.15 1611.97 783.017 1610.95 783.807Z" fill="white"/>
<path d="M1627.86 769.733L1615.75 755.108L1617.99 753.246L1630.11 767.871L1627.86 769.733ZM1614.87 751.724C1614.43 752.087 1613.93 752.251 1613.37 752.216C1612.81 752.175 1612.35 751.945 1612.01 751.526C1611.66 751.107 1611.52 750.62 1611.58 750.064C1611.65 749.503 1611.91 749.04 1612.34 748.677C1612.78 748.315 1613.28 748.153 1613.84 748.194C1614.4 748.229 1614.86 748.456 1615.21 748.875C1615.55 749.294 1615.69 749.784 1615.62 750.346C1615.56 750.902 1615.31 751.361 1614.87 751.724Z" fill="white"/>
<path d="M1629.04 753.851L1636.49 762.515L1634.28 764.417L1621.89 750.015L1624.03 748.177L1625.97 750.427L1626.15 750.266C1625.86 749.245 1625.87 748.216 1626.18 747.181C1626.48 746.14 1627.17 745.152 1628.26 744.217C1629.23 743.379 1630.26 742.845 1631.33 742.616C1632.4 742.381 1633.49 742.492 1634.59 742.95C1635.68 743.4 1636.76 744.238 1637.81 745.464L1645.68 754.615L1643.46 756.517L1635.73 747.516C1634.75 746.385 1633.7 745.756 1632.57 745.63C1631.44 745.497 1630.35 745.872 1629.33 746.753C1628.62 747.36 1628.12 748.056 1627.83 748.841C1627.54 749.62 1627.49 750.44 1627.68 751.302C1627.87 752.164 1628.32 753.013 1629.04 753.851Z" fill="white"/>
<path d="M1650.23 724.885L1651.9 726.707L1644.65 733.363L1642.98 731.542L1650.23 724.885ZM1642.02 726.25L1644.17 724.276L1656.41 737.611C1656.97 738.218 1657.47 738.593 1657.93 738.735C1658.38 738.865 1658.8 738.854 1659.17 738.7C1659.55 738.535 1659.89 738.308 1660.21 738.018C1660.44 737.801 1660.63 737.61 1660.76 737.446C1660.88 737.277 1660.98 737.141 1661.05 737.039L1663.26 738.569C1663.17 738.757 1663.02 738.999 1662.81 739.293C1662.6 739.593 1662.3 739.928 1661.9 740.296C1661.29 740.853 1660.57 741.269 1659.75 741.543C1658.93 741.812 1658.09 741.854 1657.22 741.671C1656.35 741.482 1655.54 740.981 1654.8 740.167L1642.02 726.25Z" fill="white"/>
<path d="M1659.56 726.523L1667.43 734.804L1665.32 736.814L1647.87 718.461L1649.99 716.45L1656.39 723.189L1656.57 723.019C1656.22 722.001 1656.17 720.976 1656.41 719.945C1656.66 718.901 1657.33 717.866 1658.41 716.838C1659.35 715.946 1660.35 715.353 1661.41 715.059C1662.47 714.76 1663.56 714.811 1664.68 715.212C1665.8 715.602 1666.92 716.388 1668.04 717.571L1676.36 726.318L1674.25 728.329L1666.07 719.725C1665.03 718.632 1663.94 718.056 1662.8 717.999C1661.67 717.929 1660.6 718.368 1659.6 719.317C1658.91 719.976 1658.43 720.713 1658.16 721.528C1657.89 722.338 1657.87 723.174 1658.09 724.037C1658.31 724.894 1658.8 725.722 1659.56 726.523Z" fill="white"/>
<path d="M1686.05 717.311C1684.75 718.601 1683.35 719.428 1681.84 719.792C1680.33 720.143 1678.8 720.055 1677.27 719.526C1675.73 718.986 1674.27 718.026 1672.9 716.647C1671.53 715.268 1670.57 713.802 1670.03 712.25C1669.48 710.687 1669.37 709.159 1669.69 707.668C1670.01 706.165 1670.78 704.809 1671.99 703.599C1672.69 702.902 1673.5 702.33 1674.42 701.883C1675.33 701.437 1676.33 701.197 1677.42 701.165C1678.5 701.127 1679.63 701.372 1680.82 701.9C1682.01 702.427 1683.22 703.319 1684.47 704.576L1685.35 705.452L1674.97 715.778L1673.19 713.99L1681.46 705.757C1680.71 704.997 1679.88 704.471 1678.98 704.177C1678.09 703.877 1677.2 703.831 1676.3 704.039C1675.41 704.241 1674.59 704.714 1673.84 705.458C1673.02 706.278 1672.51 707.191 1672.31 708.199C1672.12 709.196 1672.18 710.178 1672.5 711.146C1672.83 712.115 1673.36 712.97 1674.1 713.712L1675.28 714.905C1676.3 715.921 1677.33 716.609 1678.38 716.967C1679.44 717.314 1680.46 717.357 1681.46 717.098C1682.45 716.832 1683.37 716.284 1684.2 715.452C1684.74 714.911 1685.16 714.347 1685.45 713.759C1685.73 713.159 1685.88 712.545 1685.9 711.915C1685.91 711.28 1685.76 710.641 1685.47 709.999L1688.03 708.572C1688.5 709.459 1688.73 710.407 1688.75 711.416C1688.76 712.418 1688.54 713.426 1688.09 714.439C1687.64 715.446 1686.96 716.404 1686.05 717.311Z" fill="white"/>
<path d="M1693.25 682.104L1695.04 683.808L1687.99 691.227L1686.19 689.523L1693.25 682.104ZM1702.07 700.389L1686.41 685.494C1685.62 684.745 1685.14 683.935 1684.96 683.064C1684.79 682.194 1684.85 681.338 1685.15 680.497C1685.45 679.655 1685.92 678.906 1686.54 678.249C1687.03 677.729 1687.48 677.345 1687.88 677.096C1688.27 676.847 1688.58 676.676 1688.81 676.583L1690.06 678.93C1689.92 679.004 1689.73 679.111 1689.5 679.251C1689.27 679.385 1689.01 679.604 1688.72 679.909C1688.05 680.608 1687.75 681.28 1687.8 681.926C1687.87 682.566 1688.24 683.209 1688.92 683.857L1704.08 698.274L1702.07 700.389Z" fill="white"/>
<path d="M1712.41 677.942L1704.15 670.337L1706.13 668.19L1720.1 681.054L1718.12 683.201L1715.76 681.024L1715.62 681.169C1716.03 682.15 1716.17 683.215 1716.03 684.364C1715.88 685.508 1715.32 686.607 1714.35 687.662C1713.55 688.536 1712.64 689.136 1711.63 689.464C1710.62 689.786 1709.55 689.784 1708.41 689.457C1707.27 689.125 1706.11 688.412 1704.92 687.317L1696.04 679.144L1698.02 676.997L1706.75 685.037C1707.77 685.974 1708.85 686.438 1709.98 686.426C1711.11 686.408 1712.09 685.953 1712.91 685.062C1713.41 684.528 1713.77 683.859 1714 683.056C1714.24 682.247 1714.26 681.395 1714.04 680.5C1713.83 679.598 1713.28 678.746 1712.41 677.942Z" fill="white"/>
<path d="M1715.17 658.045L1717.02 659.69L1710.47 667.037L1708.62 665.392L1715.17 658.045ZM1707.14 660.222L1709.08 658.044L1722.59 670.09C1723.21 670.639 1723.75 670.961 1724.21 671.057C1724.68 671.141 1725.09 671.088 1725.45 670.899C1725.81 670.697 1726.13 670.437 1726.41 670.117C1726.63 669.877 1726.79 669.669 1726.9 669.493C1727.01 669.312 1727.09 669.167 1727.16 669.058L1729.51 670.359C1729.43 670.556 1729.3 670.812 1729.12 671.126C1728.95 671.445 1728.68 671.808 1728.32 672.214C1727.77 672.83 1727.1 673.315 1726.31 673.669C1725.52 674.018 1724.69 674.145 1723.8 674.05C1722.92 673.949 1722.06 673.53 1721.24 672.795L1707.14 660.222Z" fill="white"/>
<path d="M1733.33 654.269L1724.83 646.93L1726.74 644.721L1741.12 657.137L1739.21 659.346L1736.77 657.244L1736.65 657.394C1737.08 658.361 1737.25 659.421 1737.15 660.574C1737.04 661.722 1736.52 662.838 1735.58 663.924C1734.8 664.822 1733.92 665.451 1732.92 665.81C1731.92 666.164 1730.84 666.196 1729.7 665.905C1728.55 665.609 1727.37 664.933 1726.14 663.877L1717.01 655.988L1718.92 653.779L1727.9 661.539C1728.95 662.445 1730.04 662.874 1731.17 662.826C1732.3 662.772 1733.27 662.287 1734.06 661.37C1734.53 660.821 1734.88 660.141 1735.09 659.331C1735.3 658.515 1735.29 657.663 1735.04 656.775C1734.8 655.88 1734.23 655.045 1733.33 654.269Z" fill="white"/>
<path d="M1744.76 652.833L1730.2 640.639L1732.01 638.477L1734.21 640.319L1734.33 640.167C1733.84 639.299 1733.65 638.329 1733.79 637.258C1733.92 636.187 1734.35 635.215 1735.08 634.343C1735.22 634.179 1735.4 633.976 1735.61 633.735C1735.82 633.494 1735.99 633.315 1736.11 633.199L1738.38 635.105C1738.3 635.164 1738.12 635.314 1737.86 635.554C1737.59 635.783 1737.33 636.046 1737.09 636.343C1736.49 637.051 1736.11 637.807 1735.94 638.612C1735.77 639.405 1735.81 640.18 1736.06 640.936C1736.31 641.681 1736.76 642.329 1737.42 642.879L1746.63 650.595L1744.76 652.833Z" fill="white"/>
<path d="M1758.12 637.336C1756.96 638.753 1755.65 639.721 1754.18 640.238C1752.72 640.744 1751.19 640.814 1749.61 640.447C1748.02 640.068 1746.48 639.264 1744.97 638.034C1743.46 636.804 1742.36 635.445 1741.66 633.957C1740.96 632.458 1740.69 630.951 1740.85 629.434C1741.01 627.906 1741.63 626.478 1742.72 625.15C1743.34 624.383 1744.09 623.731 1744.95 623.192C1745.82 622.653 1746.79 622.312 1747.86 622.168C1748.93 622.019 1750.09 622.145 1751.32 622.548C1752.56 622.95 1753.86 623.711 1755.23 624.832L1756.19 625.614L1746.94 636.956L1744.98 635.361L1752.36 626.318C1751.53 625.64 1750.66 625.202 1749.73 625.002C1748.82 624.796 1747.92 624.843 1747.05 625.142C1746.18 625.435 1745.42 625.99 1744.75 626.807C1744.01 627.708 1743.6 628.669 1743.51 629.692C1743.42 630.703 1743.59 631.674 1744.01 632.603C1744.43 633.533 1745.05 634.329 1745.86 634.991L1747.16 636.054C1748.27 636.961 1749.37 637.539 1750.46 637.786C1751.54 638.022 1752.56 637.959 1753.53 637.598C1754.49 637.231 1755.34 636.591 1756.09 635.678C1756.57 635.084 1756.93 634.48 1757.15 633.866C1757.37 633.239 1757.46 632.613 1757.41 631.985C1757.35 631.352 1757.14 630.732 1756.79 630.123L1759.19 628.439C1759.74 629.274 1760.07 630.192 1760.19 631.193C1760.31 632.19 1760.19 633.215 1759.85 634.269C1759.51 635.317 1758.93 636.339 1758.12 637.336Z" fill="white"/>
<path d="M1773.04 618.324C1772.66 618.805 1772.17 619.083 1771.56 619.159C1770.94 619.235 1770.4 619.085 1769.92 618.71C1769.43 618.335 1769.16 617.841 1769.08 617.227C1769 616.614 1769.15 616.067 1769.53 615.586C1769.9 615.105 1770.4 614.827 1771.01 614.751C1771.63 614.675 1772.17 614.825 1772.65 615.2C1772.97 615.448 1773.2 615.758 1773.34 616.128C1773.49 616.492 1773.54 616.87 1773.49 617.264C1773.44 617.645 1773.29 617.999 1773.04 618.324ZM1761.92 609.654C1761.55 610.135 1761.05 610.414 1760.44 610.49C1759.83 610.566 1759.28 610.416 1758.8 610.041C1758.32 609.666 1758.04 609.171 1757.96 608.558C1757.89 607.945 1758.04 607.398 1758.41 606.917C1758.79 606.436 1759.28 606.157 1759.9 606.082C1760.51 606.006 1761.06 606.155 1761.54 606.531C1761.86 606.779 1762.09 607.088 1762.23 607.459C1762.37 607.823 1762.42 608.201 1762.37 608.594C1762.33 608.976 1762.18 609.329 1761.92 609.654Z" fill="white"/>
<path d="M1770.02 604.472C1772.48 606.378 1774.5 608.457 1776.08 610.706C1777.65 612.944 1778.84 615.333 1779.66 617.874L1778.09 619.908C1777.81 618.939 1777.35 617.887 1776.72 616.751C1776.09 615.614 1775.34 614.458 1774.46 613.284C1773.57 612.105 1772.59 610.966 1771.52 609.869C1770.45 608.759 1769.33 607.756 1768.17 606.858C1766.62 605.657 1764.93 604.589 1763.1 603.653C1761.27 602.717 1759.48 601.973 1757.71 601.423C1755.95 600.872 1754.4 600.576 1753.05 600.536L1754.63 598.502C1757.29 598.656 1759.91 599.216 1762.47 600.181C1765.04 601.134 1767.55 602.565 1770.02 604.472Z" fill="white"/>
</g>
</svg>
